<svg width="634" height="1000" viewBox="0 0 634 1000" fill="none" xmlns="http://www.w3.org/2000/svg">
<g opacity="0.3">
<path d="M292.158 780.499C273.022 780.499 257.723 775.137 247.343 764.413C221.418 737.947 227.125 681.375 262.593 608.717C331.808 466.942 494.293 302.44 624.802 242.03C684.326 214.482 729.781 212.17 752.705 235.635C778.482 261.954 772.923 318.673 737.455 391.332C668.191 533.107 505.755 697.56 375.295 757.969C342.975 772.973 314.885 780.499 292.158 780.499ZM625.343 243.359L625.983 244.687C496.015 305.047 334.218 468.762 265.2 610.045C230.322 681.523 224.567 737.062 249.409 762.544C271.448 784.976 315.722 782.516 374.065 755.46C503.984 695.297 665.83 531.434 734.798 390.2C769.726 318.723 775.481 263.183 750.589 237.701C728.6 215.22 684.326 217.729 625.983 244.736L625.343 243.359Z" fill="url(#paint0_linear_24_460)"/>
<path d="M278.433 784.287C256.1 784.287 238.734 777.892 227.518 765.053C201.249 735.094 210.891 673.209 253.984 595.336C335.301 448.396 511.658 285.665 646.693 232.634C706.119 209.317 750.786 210.153 772.53 234.946C798.799 264.954 789.157 326.79 746.064 404.712C664.698 551.652 488.537 714.334 353.305 767.463C324.724 778.679 299.34 784.287 278.433 784.287ZM721.615 218.565C701.15 218.565 676.209 224.173 647.825 235.291C513.134 288.174 337.908 450.265 256.591 596.713C214.138 673.455 204.348 734.11 229.781 763.085C250.639 786.894 294.126 787.436 352.321 764.61C487.062 711.826 662.435 549.734 743.457 403.433C785.959 326.692 795.749 266.037 770.316 237.062C759.641 224.714 742.866 218.614 721.615 218.614L721.615 218.565Z" fill="url(#paint1_linear_24_460)"/>
<path d="M265.693 787.141C239.424 787.141 219.451 779.417 207.448 764.069C180.835 729.978 195.052 662.928 246.458 579.988C340.27 428.571 529.959 269.087 669.274 224.468C728.306 205.627 771.793 209.711 792.257 235.881C818.821 269.923 804.604 337.023 753.247 419.962C659.435 571.33 469.746 730.814 330.431 775.482C309.572 782.643 287.74 786.575 265.693 787.141ZM734.209 215.712C712.424 216.288 690.856 220.204 670.258 227.322C531.484 271.596 342.533 430.686 249.016 581.513C198.347 663.37 184.081 729.093 209.662 762.249C229.339 787.436 271.891 791.125 329.497 772.678C468.221 728.404 657.222 569.313 750.689 418.487C801.407 336.678 815.673 270.907 790.043 237.8C778.68 223.091 759.544 215.712 734.209 215.712Z" fill="url(#paint2_linear_24_460)"/>
<path d="M254.083 789.453C223.189 789.453 200.61 780.008 187.721 761.364C161.058 722.747 180.293 650.384 240.554 562.771C347.205 407.763 550.078 252.854 692.738 217.877C751.77 203.414 792.896 210.597 812.327 238.686C838.99 277.303 819.755 349.666 759.494 437.279C652.843 592.287 449.97 747.196 307.261 782.173C289.889 786.716 272.036 789.16 254.083 789.453ZM746.015 213.499C728.342 213.817 710.77 216.244 693.673 220.73C551.357 255.854 349.321 409.927 242.965 564.443C183.441 650.974 164.256 722.157 190.131 759.691C208.825 786.698 249.163 793.487 306.572 779.368C448.691 744.392 650.924 590.171 757.083 435.656C816.656 349.321 835.841 277.893 809.917 240.358C797.569 222.551 775.875 213.499 745.965 213.499H746.015Z" fill="url(#paint3_linear_24_460)"/>
<path d="M244.884 790.633C207.891 790.633 181.621 779.171 167.995 756.689C141.578 713.006 166.372 635.33 236.029 543.535C355.765 385.772 571.379 237.455 716.597 212.908C774.154 203.069 814.049 213.695 832.054 243.358C858.471 287.042 833.677 364.718 764.02 456.512C644.48 614.275 428.67 762.543 283.451 787.14C270.716 789.378 257.815 790.546 244.884 790.633ZM755.214 212.317C742.43 212.402 729.676 213.571 717.089 215.81C572.461 240.407 357.979 387.986 238.341 545.404C170.455 634.641 145.12 713.35 170.504 755.164C187.82 783.696 226.682 793.732 282.959 784.238C427.538 759.641 642.316 612.061 761.659 454.643C829.545 365.21 855.126 286.747 829.545 244.785C816.656 223.336 791.076 212.317 755.214 212.317Z" fill="url(#paint4_linear_24_460)"/>
<path d="M238.292 791.224C193.625 791.224 162.781 777.105 148.564 749.803C123.18 701.249 154.861 616.194 233.225 522.235C366.047 362.751 593.959 222.55 740.801 209.76C796.832 204.84 835.104 218.86 851.486 250.197C876.82 298.799 845.189 383.855 766.824 477.764C634.002 637.298 406.09 777.449 259.249 790.289C251.968 790.928 244.983 791.224 238.292 791.224ZM740.899 212.662C594.746 225.452 367.916 365.161 235.291 524.154C157.714 617.129 126.23 701.249 151.023 748.475C166.815 778.679 204.103 792.158 258.855 787.337C405.008 774.596 631.838 634.838 764.414 475.895C841.991 382.92 873.524 299.045 848.731 251.574C832.94 221.369 795.651 207.89 740.899 212.662Z" fill="url(#paint5_linear_24_460)"/>
<path d="M234.947 791.371C180.834 791.371 144.234 773.809 129.624 740.604C105.569 685.901 143.939 595.582 232.339 498.967C378.738 338.892 617.768 208.727 765.2 208.727C819.313 208.727 855.912 226.289 870.572 259.494C894.628 314.197 856.257 404.516 767.857 501.131C621.359 661.157 382.379 791.371 234.947 791.371ZM765.102 211.58C618.408 211.58 380.362 341.351 234.405 500.934C146.842 596.664 108.618 685.852 132.231 739.423C146.35 771.448 181.818 788.616 234.848 788.616C381.542 788.616 619.588 658.844 765.545 499.311C853.207 403.433 891.43 314.197 867.817 260.773C853.699 228.699 818.181 211.58 765.151 211.58H765.102Z" fill="url(#paint6_linear_24_460)"/>
<path d="M235.094 791.371C226.584 791.371 218.418 791.027 210.497 790.24C158.156 785.32 123.819 763.97 111.127 728.65C89.0885 667.306 134.789 571.969 233.372 473.632C393.201 314.148 642.758 195.789 789.6 209.76C841.941 214.679 876.327 236.078 889.019 271.35C910.959 332.743 865.259 428.03 766.725 526.416C615.505 677.292 384.002 791.371 235.094 791.371ZM764.806 211.58C616.686 211.58 386.019 325.315 235.389 475.698C137.642 573.248 92.2369 667.552 113.833 727.666C126.082 761.806 159.632 782.467 210.743 787.337C356.847 801.259 605.322 683.294 764.659 524.35C862.406 426.8 907.811 332.497 886.215 272.383C873.917 237.947 840.416 217.581 789.305 212.711C781.434 211.924 773.268 211.58 764.806 211.58Z" fill="url(#paint7_linear_24_460)"/>
<path d="M239.374 791.617C221.547 791.711 203.753 790.064 186.246 786.698C135.97 776.859 103.847 751.377 93.418 713.695C74.4294 645.12 127.853 545.159 236.57 446.281C409.73 288.862 668.683 184.179 813.803 213.252C864.079 223.091 896.202 248.573 906.631 286.255C925.619 354.83 872.196 454.791 763.479 553.669C610.045 693.673 388.676 791.568 239.374 791.617ZM760.478 211.58C611.964 211.58 391.529 309.376 238.538 448.74C130.756 546.832 77.5286 645.513 96.222 713.203C106.356 749.508 137.79 774.006 186.984 783.844C204.342 787.208 221.989 788.856 239.669 788.764C388.184 788.764 608.619 691.017 761.659 551.652C869.441 453.561 922.619 354.88 903.925 287.19C893.841 250.639 862.505 226.141 813.361 216.253C795.93 212.96 778.216 211.394 760.478 211.58Z" fill="url(#paint8_linear_24_460)"/>
<path d="M248.475 792.454C219.345 792.922 190.315 788.94 162.387 780.648C114.177 765.25 84.563 735.784 76.7412 695.347C61.9833 619.146 123.77 515.103 242.178 417.061C428.423 262.791 695.493 174.145 837.416 219.402C885.576 234.751 915.19 264.267 923.061 304.703C937.819 380.904 875.983 484.947 757.625 582.989C604.535 709.908 396.497 792.454 248.475 792.454ZM751.377 210.498C604.092 210.498 396.891 292.75 244.096 419.324C126.525 516.579 65.0824 619.884 79.6436 694.806C87.2686 734.16 116.194 762.84 163.272 777.844C304.506 822.806 570.346 734.406 755.903 580.727C873.425 483.373 934.917 380.412 920.306 305.245C912.682 265.89 883.756 237.21 836.678 222.206C809.005 213.987 780.241 210.039 751.377 210.498Z" fill="url(#paint9_linear_24_460)"/>
<path d="M262.987 794.47C215.515 794.47 173.209 787.189 139.217 771.743C93.1718 750.836 66.3123 716.696 61.5405 673.012C52.3414 588.892 123.032 481.552 250.393 385.92C449.38 236.521 723.189 165.83 860.93 228.305C906.975 249.212 933.834 283.353 938.606 326.987C947.805 411.157 877.213 518.496 749.754 614.128C599.813 726.633 407.566 794.47 262.987 794.47ZM736.914 208.431C593.073 208.431 401.515 276.121 252.115 388.233C125.541 483.274 55.3422 589.63 64.4429 672.717C69.1163 715.318 95.3855 748.622 140.447 769.086C277.154 831.168 549.685 760.625 747.884 611.668C874.508 516.627 944.657 410.271 935.606 327.184C930.686 284.582 904.663 251.279 859.602 230.814C825.905 215.663 783.943 208.431 736.914 208.431Z" fill="url(#paint10_linear_24_460)"/>
<path d="M283.156 798.357C217.188 798.357 159.337 786.009 116.834 759.937C72.9536 733.028 49.2425 693.673 48.111 646.202C46.0941 554.211 125.738 444.51 261.216 352.912C472.304 210.006 751.525 159.386 883.166 240.112C927.095 267.021 950.856 306.326 952.036 353.847C954.102 445.838 874.459 555.539 738.981 647.087C595.73 743.9 421.586 798.357 283.156 798.357ZM716.794 204.545C579.053 204.545 405.549 258.658 262.889 355.372C128.198 446.428 49.2425 555.145 51.0626 646.153C52.0957 692.591 75.3641 731.06 118.408 757.428C249.164 837.613 526.712 786.944 737.16 644.677C871.851 553.571 951.003 444.903 948.986 353.896C947.953 307.457 924.39 268.988 881.641 242.621C839.531 216.794 782.221 204.545 716.794 204.545Z" fill="url(#paint11_linear_24_460)"/>
<path d="M308.737 804.702C221.468 804.702 145.662 785.319 95.6322 745.03C53.9163 711.48 33.6979 666.321 37.1906 614.225C43.8317 514.855 132.871 404.22 274.892 318.279C497.885 183.49 780.254 155.154 904.565 255.017C946.281 288.566 966.499 333.726 963.007 385.821C956.317 485.192 867.474 595.827 725.256 681.768C592.09 762.199 437.869 804.702 308.737 804.702ZM691.313 198.149C562.771 198.149 409.091 240.603 276.417 320.788C135.036 406.237 46.7341 515.987 40.2898 614.422C36.8463 665.436 56.6712 709.808 97.5999 742.718C220.878 841.892 501.771 813.458 723.78 679.259C865.112 593.81 953.463 484.06 959.908 385.625C963.351 334.611 943.526 290.239 902.597 257.279C853.011 217.384 777.844 198.149 691.313 198.149Z" fill="url(#paint12_linear_24_460)"/>
<path d="M338.548 814.294C227.765 814.294 131.936 785.27 75.7576 726.878C36.403 685.801 20.366 633.804 29.5159 576.543C46.3892 470.68 144.333 360.585 291.568 282.024C525.433 157.466 809.277 153.236 924.291 273.169C943.475 292.693 957.688 316.539 965.735 342.7C973.782 368.862 975.427 396.573 970.533 423.503C953.66 529.367 855.667 639.56 708.432 718.269C588.449 782.22 455.283 814.294 338.548 814.294ZM661.599 188.606C545.356 188.606 412.633 220.729 292.945 284.631C146.547 362.75 49.2424 472.303 32.4183 577.035C27.6035 603.515 29.219 630.763 37.1291 656.488C45.0392 682.213 59.0124 705.661 77.8729 724.861C192.001 843.859 474.272 839.678 707.103 715.416C853.502 637.297 950.905 527.99 967.827 423.011C972.646 396.532 971.033 369.282 963.122 343.557C955.212 317.831 941.237 294.383 922.373 275.186C866.686 217.334 771.497 188.606 661.599 188.606Z" fill="url(#paint13_linear_24_460)"/>
<path d="M370.72 827.627C234.996 827.627 117.08 785.813 57.5561 705.333C20.7595 655.598 9.83863 595.878 26.0232 532.664C54.3092 421.783 160.96 314.001 311.344 244.343C555.293 131.199 838.4 153.926 942.542 294.717C979.289 344.402 990.161 404.172 974.075 467.385C945.739 578.267 839.089 686.049 688.754 755.657C589.122 802.152 480.663 826.696 370.72 827.627ZM629.722 175.276C520.075 176.211 411.907 200.669 312.524 246.999C163.026 316.313 56.9657 423.357 28.8272 533.402C12.9378 595.73 23.9079 654.565 59.9174 703.611C163.223 843.32 444.756 865.457 687.475 752.804C837.023 683.54 943.28 576.496 971.222 466.45C987.111 404.123 976.387 345.287 940.131 296.242C881.149 216.746 764.167 175.276 629.722 175.276Z" fill="url(#paint14_linear_24_460)"/>
<path d="M402.893 845.188C241.884 845.188 101.191 786.55 41.3227 680.293C7.62532 620.523 2.95195 552.046 27.7453 482.142C68.2805 368.26 182.851 264.758 334.268 205.283C587.17 106.159 867.277 157.467 958.727 319.805C992.424 379.624 997.098 448.101 972.304 517.807C931.769 631.739 817.198 735.241 665.781 794.716C582.038 827.689 492.893 844.804 402.893 845.188ZM597.304 157.713C507.61 158.127 418.777 175.243 335.35 208.185C184.721 267.217 70.7401 370.179 30.3525 483.274C5.75596 552.144 10.6753 619.834 43.7332 678.866C134.495 839.925 412.978 890.397 664.552 792.01C815.181 732.979 929.113 630.017 969.549 516.873C994.146 448.002 989.227 380.362 956.169 321.33C896.793 215.86 757.182 157.713 597.304 157.713Z" fill="url(#paint15_linear_24_460)"/>
<path d="M432.95 867.276C247.098 867.276 84.0715 787.091 27.5977 651.711C-2.45943 580.234 0.442943 501.82 35.8128 425.472C88.5971 310.901 210.104 213.695 360.537 165.486C621.261 81.8572 895.759 163.961 972.698 348.337C1002.51 419.815 999.606 498.032 964.237 574.626C911.354 689.197 789.945 786.156 639.561 834.612C572.786 856.085 503.092 867.103 432.95 867.276ZM567.444 135.675C497.497 135.835 427.998 146.837 361.423 168.29C211.58 216.499 91.0076 312.869 38.4693 426.702C3.44373 502.459 0.541356 579.889 30.0573 650.58C86.0884 784.828 247.983 864.374 432.606 864.374C502.536 864.213 572.019 853.211 638.578 831.759C788.272 783.795 909.14 687.18 961.58 573.347C996.557 497.54 999.459 420.159 969.992 349.468C913.961 215.171 752.066 135.675 567.444 135.675Z" fill="url(#paint16_linear_24_460)"/>
<path d="M458.284 893.89C248.573 893.89 64.7382 786.796 15.8893 619.392C-8.70739 534.583 3.24654 445.74 51.1115 362.554C116.883 248.278 240.456 161.6 390.2 124.705C657.123 59.0809 923.553 173.701 983.913 380.608C1008.76 465.466 996.605 554.309 948.691 637.495C882.969 751.771 759.396 838.449 609.651 875.344C560.127 887.604 509.303 893.831 458.284 893.89ZM541.912 109.061C491.042 109.112 440.365 115.323 390.987 127.558C241.932 164.256 119.047 250.443 53.6696 364.079C6.19813 446.478 -5.90337 534.533 18.7425 618.605C67.3454 784.681 249.951 890.987 458.235 890.987C509.089 890.937 559.75 884.726 609.11 872.491C758.117 835.793 881.001 749.508 946.379 636.019C993.85 553.522 1005.9 465.515 981.306 381.444C932.703 215.368 750.196 109.061 541.814 109.061H541.912Z" fill="url(#paint17_linear_24_460)"/>
<path d="M478.453 924.882C246.016 924.882 44.3233 785.124 7.32994 583.383C-10.8224 484.996 13.0363 382.133 74.4786 294.274C151.122 184.77 278.286 107.881 423.111 83.3336C694.756 37.3871 950.216 186.639 992.473 416.667C1010.67 515.053 986.816 617.916 925.324 705.775C848.681 815.279 721.566 892.168 576.496 916.716C544.1 922.171 511.305 924.902 478.453 924.882ZM521.497 77.9715C488.708 77.9701 455.977 80.7347 423.652 86.236C279.368 110.833 153.089 187.082 76.7415 295.947C15.8895 383.166 -7.77241 485.045 10.2323 582.841C47.1273 783.205 247.344 922.275 478.404 922.275C511.194 922.272 543.924 919.507 576.25 914.01C720.484 889.413 846.812 813.164 923.16 704.25C984.159 617.08 1007.82 515.201 989.817 417.405C952.922 216.844 752.705 77.9715 521.497 77.9715Z" fill="url(#paint18_linear_24_460)"/>
<path d="M492.424 960.448C238.046 960.448 22.7767 781.581 1.9679 543.584C-20.1691 290.879 185.262 65.7214 459.907 41.8135C592.729 30.2039 722.156 66.902 823.937 145.119C925.718 223.336 987.505 334.021 998.229 456.512C1008.95 579.003 967.041 698.592 880.608 793.338C794.176 888.084 673.21 946.723 540.24 958.382C524.105 959.759 508.166 960.448 492.424 960.448ZM508.117 42.5022C492.244 42.5022 476.256 43.2073 460.153 44.6175C186.983 68.4762 -17.1191 292.207 4.96869 543.338C25.6791 779.81 239.67 957.496 492.523 957.496C508.215 957.496 524.006 956.857 539.945 955.43C672.226 943.87 792.454 885.576 878.444 791.371C964.433 697.166 1005.9 578.315 995.277 456.857C984.652 335.399 923.012 225.206 822.019 147.628C731.893 78.8305 621.498 41.8594 508.117 42.5022Z" fill="url(#paint19_linear_24_460)"/>
<path d="M500 1000C401.11 1000 304.44 970.675 222.215 915.735C139.991 860.794 75.9045 782.705 38.0607 691.342C0.216842 599.979 -9.68485 499.445 9.60772 402.455C28.9003 305.465 76.5206 216.373 146.447 146.447C216.373 76.5206 305.464 28.9002 402.455 9.60758C499.445 -9.68502 599.979 0.216641 691.342 38.0604C782.705 75.9043 860.794 139.991 915.735 222.215C970.675 304.44 1000 401.11 1000 500C999.857 632.564 947.132 759.658 853.395 853.395C759.658 947.132 632.565 999.857 500 1000ZM500 3.00101C401.732 3.00101 305.671 32.1408 223.964 86.7356C142.257 141.33 78.5748 218.928 40.9693 309.716C3.36378 400.503 -6.4755 500.404 12.6957 596.783C31.8668 693.163 79.1874 781.694 148.673 851.18C218.159 920.666 306.69 967.986 403.07 987.157C499.449 1006.33 599.349 996.489 690.137 958.883C780.925 921.278 858.523 857.595 913.117 775.889C967.712 694.182 996.852 598.121 996.852 499.853C996.669 368.135 944.264 241.865 851.126 148.727C757.988 55.5884 631.717 3.18321 500 3.00101Z" fill="url(#paint20_linear_24_460)"/>
</g>
<defs>
<linearGradient id="paint0_linear_24_460" x1="231.306" y1="500" x2="768.693" y2="499.999" gradientUnits="userSpaceOnUse">
<stop stop-color="#83A4D4"/>
<stop offset="0.95" stop-color="#B4F7FD"/>
<stop offset="1" stop-color="#B6FBFF"/>
</linearGradient>
<linearGradient id="paint1_linear_24_460" x1="212.957" y1="500" x2="787.042" y2="499.999" gradientUnits="userSpaceOnUse">
<stop stop-color="#83A4D4"/>
<stop offset="0.95" stop-color="#B4F7FD"/>
<stop offset="1" stop-color="#B6FBFF"/>
</linearGradient>
<linearGradient id="paint2_linear_24_460" x1="194.461" y1="500" x2="805.588" y2="500" gradientUnits="userSpaceOnUse">
<stop stop-color="#83A4D4"/>
<stop offset="0.95" stop-color="#B4F7FD"/>
<stop offset="1" stop-color="#B6FBFF"/>
</linearGradient>
<linearGradient id="paint3_linear_24_460" x1="175.964" y1="500" x2="824.035" y2="500" gradientUnits="userSpaceOnUse">
<stop stop-color="#83A4D4"/>
<stop offset="0.95" stop-color="#B4F7FD"/>
<stop offset="1" stop-color="#B6FBFF"/>
</linearGradient>
<linearGradient id="paint4_linear_24_460" x1="157.664" y1="499.999" x2="842.385" y2="499.999" gradientUnits="userSpaceOnUse">
<stop stop-color="#83A4D4"/>
<stop offset="0.95" stop-color="#B4F7FD"/>
<stop offset="1" stop-color="#B6FBFF"/>
</linearGradient>
<linearGradient id="paint5_linear_24_460" x1="140.004" y1="500" x2="860.045" y2="499.999" gradientUnits="userSpaceOnUse">
<stop stop-color="#83A4D4"/>
<stop offset="0.95" stop-color="#B4F7FD"/>
<stop offset="1" stop-color="#B6FBFF"/>
</linearGradient>
<linearGradient id="paint6_linear_24_460" x1="122.491" y1="500" x2="877.557" y2="499.999" gradientUnits="userSpaceOnUse">
<stop stop-color="#83A4D4"/>
<stop offset="0.95" stop-color="#B4F7FD"/>
<stop offset="1" stop-color="#B6FBFF"/>
</linearGradient>
<linearGradient id="paint7_linear_24_460" x1="105.667" y1="500" x2="894.381" y2="499.999" gradientUnits="userSpaceOnUse">
<stop stop-color="#83A4D4"/>
<stop offset="0.95" stop-color="#B4F7FD"/>
<stop offset="1" stop-color="#B6FBFF"/>
</linearGradient>
<linearGradient id="paint8_linear_24_460" x1="89.63" y1="500" x2="910.37" y2="499.999" gradientUnits="userSpaceOnUse">
<stop stop-color="#83A4D4"/>
<stop offset="0.95" stop-color="#B4F7FD"/>
<stop offset="1" stop-color="#B6FBFF"/>
</linearGradient>
<linearGradient id="paint9_linear_24_460" x1="74.6259" y1="500.001" x2="925.423" y2="500" gradientUnits="userSpaceOnUse">
<stop stop-color="#83A4D4"/>
<stop offset="0.95" stop-color="#B4F7FD"/>
<stop offset="1" stop-color="#B6FBFF"/>
</linearGradient>
<linearGradient id="paint10_linear_24_460" x1="60.7534" y1="500" x2="939.295" y2="499.999" gradientUnits="userSpaceOnUse">
<stop stop-color="#83A4D4"/>
<stop offset="0.95" stop-color="#B4F7FD"/>
<stop offset="1" stop-color="#B6FBFF"/>
</linearGradient>
<linearGradient id="paint11_linear_24_460" x1="48.111" y1="500" x2="951.938" y2="499.999" gradientUnits="userSpaceOnUse">
<stop stop-color="#83A4D4"/>
<stop offset="0.95" stop-color="#B4F7FD"/>
<stop offset="1" stop-color="#B6FBFF"/>
</linearGradient>
<linearGradient id="paint12_linear_24_460" x1="36.797" y1="499.999" x2="963.253" y2="499.998" gradientUnits="userSpaceOnUse">
<stop stop-color="#83A4D4"/>
<stop offset="0.95" stop-color="#B4F7FD"/>
<stop offset="1" stop-color="#B6FBFF"/>
</linearGradient>
<linearGradient id="paint13_linear_24_460" x1="27.007" y1="499.999" x2="973.042" y2="499.998" gradientUnits="userSpaceOnUse">
<stop stop-color="#83A4D4"/>
<stop offset="0.95" stop-color="#B4F7FD"/>
<stop offset="1" stop-color="#B6FBFF"/>
</linearGradient>
<linearGradient id="paint14_linear_24_460" x1="18.7426" y1="500" x2="981.306" y2="500" gradientUnits="userSpaceOnUse">
<stop stop-color="#83A4D4"/>
<stop offset="0.95" stop-color="#B4F7FD"/>
<stop offset="1" stop-color="#B6FBFF"/>
</linearGradient>
<linearGradient id="paint15_linear_24_460" x1="12.0527" y1="500" x2="987.997" y2="499.999" gradientUnits="userSpaceOnUse">
<stop stop-color="#83A4D4"/>
<stop offset="0.95" stop-color="#B4F7FD"/>
<stop offset="1" stop-color="#B6FBFF"/>
</linearGradient>
<linearGradient id="paint16_linear_24_460" x1="6.93645" y1="500" x2="993.113" y2="499.999" gradientUnits="userSpaceOnUse">
<stop stop-color="#83A4D4"/>
<stop offset="0.95" stop-color="#B4F7FD"/>
<stop offset="1" stop-color="#B6FBFF"/>
</linearGradient>
<linearGradient id="paint17_linear_24_460" x1="3.34494" y1="500" x2="996.654" y2="499.999" gradientUnits="userSpaceOnUse">
<stop stop-color="#83A4D4"/>
<stop offset="0.95" stop-color="#B4F7FD"/>
<stop offset="1" stop-color="#B6FBFF"/>
</linearGradient>
<linearGradient id="paint18_linear_24_460" x1="1.42673" y1="500" x2="998.622" y2="500" gradientUnits="userSpaceOnUse">
<stop stop-color="#83A4D4"/>
<stop offset="0.95" stop-color="#B4F7FD"/>
<stop offset="1" stop-color="#B6FBFF"/>
</linearGradient>
<linearGradient id="paint19_linear_24_460" x1="0.344512" y1="499.999" x2="999.754" y2="499.999" gradientUnits="userSpaceOnUse">
<stop stop-color="#83A4D4"/>
<stop offset="0.95" stop-color="#B4F7FD"/>
<stop offset="1" stop-color="#B6FBFF"/>
</linearGradient>
<linearGradient id="paint20_linear_24_460" x1="0.0495861" y1="500" x2="1000" y2="500" gradientUnits="userSpaceOnUse">
<stop stop-color="#83A4D4"/>
<stop offset="0.95" stop-color="#B4F7FD"/>
<stop offset="1" stop-color="#B6FBFF"/>
</linearGradient>
</defs>
</svg>
