<svg width="534" height="1001" viewBox="0 0 534 1001" fill="none" xmlns="http://www.w3.org/2000/svg">
<g opacity="0.3">
<path d="M-174.312 220.029C-193.448 220.029 -208.747 225.391 -219.127 236.115C-245.052 262.581 -239.346 319.153 -203.877 391.812C-134.663 533.587 27.8226 698.089 158.332 758.498C217.856 786.046 263.31 788.358 286.235 764.893C312.012 738.575 306.453 681.855 270.985 609.197C201.721 467.422 39.2847 302.969 -91.1757 242.559C-123.496 227.556 -151.585 220.029 -174.312 220.029ZM158.873 757.17L159.513 755.842C29.5443 695.481 -132.252 531.766 -201.27 390.484C-236.148 319.006 -241.904 263.467 -217.061 237.985C-195.023 215.552 -150.749 218.012 -92.4055 245.068C37.5137 305.232 199.359 469.094 268.328 610.328C303.255 681.806 309.011 737.345 284.119 762.827C262.13 785.308 217.856 782.799 159.513 755.792L158.873 757.17Z" fill="url(#paint0_linear_24_437)"/>
<path d="M-188.037 216.241C-210.37 216.241 -227.736 222.636 -238.952 235.476C-265.221 265.434 -255.579 327.319 -212.486 405.192C-131.169 552.132 45.1882 714.864 180.224 767.894C239.649 791.212 284.316 790.375 306.06 765.582C332.329 735.574 322.687 673.738 279.594 595.816C198.228 448.876 22.0675 286.194 -113.165 233.065C-141.746 221.849 -167.13 216.241 -188.037 216.241ZM255.145 781.963C234.68 781.963 209.739 776.355 181.355 765.238C46.6639 712.355 -128.562 550.263 -209.879 403.815C-252.332 327.073 -262.122 266.418 -236.689 237.443C-215.831 213.634 -172.344 213.093 -114.148 235.918C20.5917 288.703 195.965 450.794 276.987 597.095C319.489 673.837 329.279 734.492 303.846 763.467C293.171 775.814 276.396 781.914 255.145 781.914L255.145 781.963Z" fill="url(#paint1_linear_24_437)"/>
<path d="M-200.777 213.388C-227.047 213.388 -247.019 221.111 -259.022 236.459C-285.636 270.55 -271.419 337.601 -220.012 420.54C-126.201 571.957 63.4883 731.442 202.803 776.06C261.835 794.901 305.322 790.818 325.786 764.647C352.351 730.605 338.134 663.506 286.776 580.566C192.965 429.198 3.27602 269.714 -136.039 225.047C-156.899 217.885 -178.73 213.953 -200.777 213.388ZM267.739 784.816C245.953 784.24 224.385 780.324 203.787 773.207C65.0134 728.933 -123.938 569.842 -217.454 419.015C-268.123 337.158 -282.389 271.436 -256.808 238.28C-237.131 213.093 -194.579 209.403 -136.974 227.851C1.75103 272.125 190.751 431.215 284.218 582.042C334.936 663.85 349.202 729.621 323.573 762.728C312.209 777.437 293.073 784.816 267.739 784.816Z" fill="url(#paint2_linear_24_437)"/>
<path d="M-212.388 211.075C-243.281 211.075 -265.861 220.52 -278.749 239.165C-305.412 277.781 -286.177 350.144 -225.916 437.758C-119.265 592.765 83.6078 747.675 226.268 782.651C285.3 797.114 326.426 789.932 345.857 761.842C372.52 723.226 353.285 650.863 293.023 563.249C186.373 408.242 -16.5002 253.332 -159.21 218.356C-176.581 213.813 -194.434 211.368 -212.388 211.075ZM279.544 787.029C261.872 786.712 244.3 784.284 227.203 779.798C84.8869 744.674 -117.15 590.601 -223.505 436.085C-283.029 349.554 -302.214 278.372 -276.339 240.837C-257.645 213.83 -217.307 207.041 -159.898 221.16C-17.7792 256.136 184.454 410.357 290.613 564.873C350.186 651.207 369.371 722.635 343.446 760.17C331.099 777.978 309.405 787.029 279.495 787.029H279.544Z" fill="url(#paint3_linear_24_437)"/>
<path d="M-221.586 209.896C-258.58 209.896 -284.849 221.358 -298.475 243.839C-324.892 287.523 -300.099 365.199 -230.441 456.993C-110.705 614.756 104.909 763.073 250.127 787.621C307.683 797.459 347.579 786.834 365.584 757.17C392.001 713.487 367.207 635.811 297.55 544.016C178.01 386.253 -37.8004 237.985 -183.019 213.388C-195.755 211.15 -208.656 209.982 -221.586 209.896ZM288.744 788.211C275.96 788.126 263.206 786.958 250.619 784.718C105.991 760.122 -108.491 612.542 -228.129 455.124C-296.016 365.887 -321.35 287.178 -295.966 245.364C-278.65 216.832 -239.788 206.796 -183.511 216.291C-38.9319 240.887 175.846 388.467 295.188 545.885C363.075 635.319 388.655 713.782 363.075 755.744C350.186 777.192 324.606 788.211 288.744 788.211Z" fill="url(#paint4_linear_24_437)"/>
<path d="M-228.178 209.305C-272.845 209.305 -303.689 223.423 -317.906 250.725C-343.29 299.279 -311.609 384.334 -233.245 478.293C-100.423 637.778 127.489 777.978 274.331 790.769C330.362 795.688 368.634 781.668 385.016 750.332C410.35 701.729 378.719 616.674 300.354 522.764C167.532 363.23 -60.3796 223.079 -207.221 210.239C-214.502 209.6 -221.487 209.305 -228.178 209.305ZM274.429 787.866C128.276 775.076 -98.5537 635.367 -231.179 476.375C-308.756 383.4 -340.24 299.279 -315.446 252.054C-299.655 221.849 -262.367 208.37 -207.615 213.191C-61.4619 225.932 165.368 365.69 297.944 524.633C375.521 617.608 407.054 701.483 382.261 748.954C366.47 779.159 329.181 792.638 274.429 787.866Z" fill="url(#paint5_linear_24_437)"/>
<path d="M-231.524 209.157C-285.636 209.157 -322.236 226.719 -336.846 259.925C-360.902 314.628 -322.531 404.946 -234.131 501.562C-87.7319 661.637 151.298 791.802 298.73 791.802C352.842 791.802 389.442 774.24 404.102 741.034C428.157 686.331 389.787 596.013 301.386 499.397C154.889 339.372 -84.0915 209.157 -231.524 209.157ZM298.632 788.949C151.937 788.949 -86.1085 659.177 -232.065 499.594C-319.629 403.864 -357.852 314.677 -334.239 261.105C-320.12 229.081 -284.652 211.912 -231.622 211.912C-84.9278 211.912 153.118 341.684 299.074 501.217C386.737 597.095 424.96 686.332 401.347 739.755C387.229 771.829 351.711 788.949 298.681 788.949H298.632Z" fill="url(#paint6_linear_24_437)"/>
<path d="M-231.376 209.157C-239.887 209.157 -248.053 209.501 -255.973 210.289C-308.314 215.208 -342.651 236.558 -355.343 271.879C-377.382 333.223 -331.681 428.559 -233.098 526.896C-73.2694 686.381 176.288 804.74 323.129 790.769C375.471 785.849 409.857 764.45 422.549 729.179C444.489 667.786 398.789 572.498 300.255 474.112C149.035 323.236 -82.4684 209.157 -231.376 209.157ZM298.336 788.948C150.215 788.948 -80.4516 675.214 -231.081 524.83C-328.828 427.28 -374.233 332.976 -352.637 272.862C-340.388 238.722 -306.839 218.061 -255.727 213.191C-109.623 199.269 138.852 317.235 298.189 476.178C395.935 573.728 441.341 668.032 419.745 728.146C407.447 762.581 373.946 782.947 322.834 787.817C314.963 788.604 306.797 788.948 298.336 788.948Z" fill="url(#paint7_linear_24_437)"/>
<path d="M-227.096 208.911C-244.923 208.817 -262.718 210.465 -280.225 213.831C-330.5 223.669 -362.623 249.151 -373.052 286.833C-392.041 355.409 -338.617 455.369 -229.9 554.248C-56.74 711.666 202.213 816.349 347.333 787.276C397.609 777.437 429.732 751.955 440.161 714.273C459.149 645.698 405.725 545.737 297.009 446.859C143.575 306.855 -77.7945 208.961 -227.096 208.911ZM294.008 788.949C145.493 788.949 -74.9415 691.152 -227.932 551.788C-335.715 453.697 -388.942 355.015 -370.248 287.325C-360.114 251.021 -328.68 226.522 -279.487 216.684C-262.129 213.32 -244.482 211.672 -226.801 211.765C-78.2865 211.765 142.148 309.511 295.188 448.876C402.971 546.967 456.149 645.649 437.455 713.339C427.37 749.889 396.034 774.387 346.89 784.275C329.459 787.569 311.746 789.134 294.008 788.949Z" fill="url(#paint8_linear_24_437)"/>
<path d="M-217.995 208.075C-247.125 207.608 -276.155 211.589 -304.083 219.882C-352.293 235.279 -381.907 264.746 -389.729 305.183C-404.487 381.383 -342.7 485.426 -224.292 583.469C-38.0465 737.738 229.023 826.385 370.946 781.127C419.106 765.779 448.72 736.263 456.591 695.826C471.349 619.626 409.513 515.582 291.155 417.54C138.065 290.621 -69.9728 208.075 -217.995 208.075ZM284.907 790.031C137.622 790.031 -69.5794 707.78 -222.373 581.206C-339.945 483.951 -401.388 380.645 -386.826 305.724C-379.201 266.369 -350.276 237.689 -303.198 222.685C-161.964 177.723 103.876 266.123 289.433 419.803C406.955 517.156 468.447 620.117 453.837 695.285C446.212 734.639 417.286 763.319 370.208 778.323C342.535 786.542 313.771 790.49 284.907 790.031Z" fill="url(#paint9_linear_24_437)"/>
<path d="M-203.483 206.058C-250.955 206.058 -293.261 213.339 -327.254 228.786C-373.298 249.693 -400.158 283.833 -404.93 327.516C-414.129 411.637 -343.438 518.976 -216.077 614.608C-17.0905 764.008 256.719 834.698 394.46 772.223C440.505 751.316 467.364 717.176 472.136 673.541C481.335 589.372 410.743 482.032 283.283 386.401C133.343 273.896 -58.9046 206.058 -203.483 206.058ZM270.444 792.097C126.603 792.097 -64.9555 724.407 -214.355 612.296C-340.929 517.255 -411.128 410.899 -402.027 327.811C-397.354 285.21 -371.085 251.906 -326.024 231.442C-189.316 169.36 83.2147 239.903 281.414 388.86C408.037 483.902 478.187 590.257 469.135 673.345C464.216 715.946 438.193 749.25 393.132 769.714C359.434 784.866 317.473 792.097 270.444 792.097Z" fill="url(#paint10_linear_24_437)"/>
<path d="M-183.314 202.172C-249.282 202.172 -307.133 214.519 -349.636 240.592C-393.516 267.5 -417.227 306.855 -418.359 354.326C-420.376 446.318 -340.732 556.019 -205.254 647.616C5.83399 790.523 285.055 841.143 416.696 760.416C460.625 733.508 484.386 694.202 485.566 646.682C487.632 554.69 407.989 444.99 272.511 353.441C129.26 256.629 -44.884 202.172 -183.314 202.172ZM250.324 795.983C112.583 795.983 -60.9212 741.871 -203.581 645.157C-338.272 554.1 -417.228 445.383 -415.407 354.376C-414.374 307.937 -391.106 269.468 -348.062 243.1C-217.306 162.916 60.2419 213.585 270.69 355.851C405.381 446.957 484.533 555.625 482.516 646.633C481.483 693.071 457.92 731.54 415.171 757.908C373.061 783.734 315.751 795.983 250.324 795.983Z" fill="url(#paint11_linear_24_437)"/>
<path d="M-157.734 195.826C-245.002 195.826 -320.809 215.208 -370.839 255.497C-412.554 289.047 -432.773 334.206 -429.28 386.302C-422.639 485.672 -333.599 596.308 -191.579 682.248C31.4142 817.038 313.783 845.373 438.095 745.511C479.81 711.961 500.029 666.802 496.536 614.706C489.846 515.336 401.003 404.7 258.785 318.76C125.619 238.329 -28.6013 195.826 -157.734 195.826ZM224.842 802.378C96.3 802.378 -57.3796 759.924 -190.054 679.739C-331.435 594.291 -419.737 484.541 -426.181 386.105C-429.624 335.092 -409.8 290.719 -368.871 257.809C-245.593 158.636 35.3007 187.069 257.31 321.268C398.642 406.717 486.993 516.467 493.437 614.903C496.88 665.916 477.056 710.288 436.127 743.248C386.54 783.144 311.373 802.378 224.842 802.378Z" fill="url(#paint12_linear_24_437)"/>
<path d="M-127.922 186.234C-238.706 186.234 -334.534 215.258 -390.713 273.65C-430.067 314.727 -446.104 366.724 -436.954 423.985C-420.081 529.849 -322.137 639.943 -174.902 718.505C58.9624 843.062 342.807 847.293 457.821 727.36C477.004 707.836 491.217 683.99 499.265 657.828C507.312 631.667 508.957 603.955 504.063 577.025C487.189 471.161 389.197 360.968 241.961 282.259C121.979 218.308 -11.187 186.234 -127.922 186.234ZM195.129 811.923C78.8856 811.923 -53.8376 779.8 -173.525 715.898C-319.924 637.779 -417.228 528.225 -434.052 423.493C-438.867 397.014 -437.251 369.765 -429.341 344.04C-421.431 318.315 -407.458 294.867 -388.597 275.667C-274.469 156.669 7.80161 160.85 240.633 285.113C387.032 363.231 484.435 472.539 501.357 577.517C506.176 603.996 504.563 631.246 496.652 656.971C488.742 682.697 474.766 706.145 455.902 725.343C400.216 783.194 305.027 811.923 195.129 811.923Z" fill="url(#paint13_linear_24_437)"/>
<path d="M-95.7504 172.901C-231.474 172.901 -349.391 214.716 -408.914 295.196C-445.711 344.93 -456.632 404.651 -440.447 467.864C-412.161 578.745 -305.51 686.528 -155.127 756.185C88.8223 869.33 371.929 846.602 476.071 705.811C512.819 656.126 523.69 596.357 507.604 533.143C479.269 422.262 372.618 314.479 222.284 244.871C122.652 198.376 14.1925 173.832 -95.7504 172.901ZM163.252 825.253C53.6049 824.318 -54.5639 799.859 -153.946 753.529C-303.444 684.216 -409.505 577.171 -437.643 467.126C-453.533 404.798 -442.563 345.963 -406.553 296.917C-303.247 157.209 -21.7145 135.072 221.005 247.724C370.552 316.988 476.809 424.033 504.751 534.078C520.64 596.406 509.916 655.241 473.661 704.286C414.678 783.783 297.697 825.253 163.252 825.253Z" fill="url(#paint14_linear_24_437)"/>
<path d="M-63.5774 155.34C-224.587 155.34 -365.279 213.978 -425.148 320.236C-458.845 380.005 -463.518 448.482 -438.725 518.386C-398.19 632.268 -283.619 735.771 -132.202 795.245C120.7 894.37 400.806 843.061 492.257 680.724C525.954 620.905 530.627 552.428 505.834 482.721C465.299 368.789 350.728 265.287 199.311 205.812C115.567 172.84 26.4229 155.725 -63.5774 155.34ZM130.834 842.815C41.1396 842.402 -47.6932 825.286 -131.12 792.343C-281.75 733.311 -395.73 630.35 -436.118 517.254C-460.714 448.384 -455.795 380.694 -422.737 321.662C-331.976 160.604 -53.4928 110.131 198.081 208.518C348.711 267.55 462.642 370.511 503.079 483.656C527.676 552.526 522.756 620.167 489.698 679.199C430.322 784.669 290.712 842.815 130.834 842.815Z" fill="url(#paint15_linear_24_437)"/>
<path d="M-33.5204 133.252C-219.372 133.252 -382.399 213.437 -438.873 348.817C-468.93 420.295 -466.027 498.709 -430.657 575.056C-377.873 689.627 -256.366 786.833 -105.933 835.043C154.791 918.671 429.289 836.568 506.227 652.191C536.039 580.714 533.136 502.497 497.766 425.903C444.884 311.332 323.475 214.372 173.091 165.917C106.316 144.444 36.6221 133.425 -33.5204 133.252ZM100.974 864.854C31.0271 864.693 -38.4718 853.691 -105.048 832.239C-254.89 784.029 -375.463 687.66 -428.001 573.827C-463.026 498.069 -465.929 420.639 -436.413 349.948C-380.382 215.7 -218.487 136.155 -33.8647 136.155C36.0657 136.315 105.548 147.318 172.107 168.77C321.802 216.733 442.67 313.349 495.11 427.182C530.086 502.988 532.989 580.369 503.522 651.06C447.491 785.358 285.596 864.854 100.974 864.854Z" fill="url(#paint16_linear_24_437)"/>
<path d="M-8.18617 106.639C-217.897 106.639 -401.732 213.732 -450.581 381.137C-475.177 465.946 -463.224 554.789 -415.359 637.974C-349.587 752.25 -226.014 838.929 -76.2699 875.824C190.653 941.447 457.083 826.827 517.443 619.921C542.286 535.062 530.135 446.219 482.221 363.034C416.499 248.758 292.925 162.079 143.181 125.184C93.6573 112.925 42.8327 106.698 -8.18617 106.639ZM75.442 891.467C24.5716 891.416 -26.1055 885.205 -75.4828 872.97C-224.538 836.272 -347.423 750.086 -412.801 636.449C-460.272 554.051 -472.373 465.995 -447.728 381.924C-399.125 215.847 -216.519 109.541 -8.23536 109.541C42.6189 109.591 93.2798 115.802 142.64 128.038C291.646 164.736 414.531 251.021 479.909 364.509C527.38 447.006 539.433 535.013 514.836 619.084C466.233 785.161 283.726 891.467 75.3436 891.467H75.442Z" fill="url(#paint17_linear_24_437)"/>
<path d="M11.9832 75.6465C-220.455 75.6465 -422.147 215.404 -459.14 417.146C-477.293 515.532 -453.434 618.395 -391.992 706.254C-315.349 815.758 -188.184 892.647 -43.3594 917.195C228.286 963.141 483.746 813.889 526.003 583.862C544.204 485.475 520.346 382.612 458.854 294.753C382.211 185.249 255.096 108.36 110.025 83.8126C77.63 78.3575 44.8346 75.6259 11.9832 75.6465ZM55.027 922.557C22.2375 922.558 -10.4936 919.794 -42.8183 914.292C-187.102 889.696 -313.381 813.446 -389.729 704.582C-450.581 617.362 -474.243 515.483 -456.238 417.687C-419.343 217.323 -219.126 78.2537 11.934 78.2537C44.7233 78.2563 77.4541 81.0209 109.779 86.5182C254.014 111.115 380.342 187.364 456.69 296.278C517.689 383.448 541.351 485.328 523.346 583.124C486.451 783.684 286.235 922.557 55.027 922.557Z" fill="url(#paint18_linear_24_437)"/>
<path d="M25.9541 40.0807C-228.424 40.0807 -443.694 218.947 -464.502 456.944C-486.639 709.65 -281.209 934.807 -6.5629 958.715C126.259 970.324 255.686 933.626 357.467 855.409C459.248 777.192 521.034 666.507 531.759 544.016C542.483 421.525 500.57 301.936 414.138 207.19C327.705 112.444 206.739 53.8056 73.7699 42.1468C57.6345 40.7694 41.6959 40.0807 25.9541 40.0807ZM41.6464 958.026C25.7734 958.026 9.78562 957.321 -6.31695 955.911C-279.487 932.052 -483.589 708.321 -461.502 457.19C-440.791 220.718 -226.801 43.0323 26.0525 43.0323C41.7451 43.0323 57.5361 43.6717 73.4747 45.0984C205.755 56.6587 325.983 114.953 411.973 209.158C497.963 303.363 539.433 422.214 528.807 543.672C518.181 665.13 456.542 775.323 355.548 852.9C265.422 921.698 155.028 958.669 41.6464 958.026Z" fill="url(#paint19_linear_24_437)"/>
<path d="M33.5302 0.528258C-65.3604 0.528258 -162.03 29.8528 -244.255 84.7935C-326.479 139.734 -390.566 217.824 -428.41 309.187C-466.253 400.55 -476.155 501.083 -456.862 598.073C-437.57 695.064 -389.95 784.155 -320.023 854.082C-250.097 924.008 -161.006 971.628 -64.0153 990.921C32.9752 1010.21 133.508 1000.31 224.871 962.468C316.235 924.624 394.324 860.538 449.265 778.313C504.205 696.089 533.53 599.419 533.53 500.528C533.387 367.964 480.662 240.87 386.925 147.133C293.188 53.396 166.094 0.671507 33.5302 0.528258ZM33.5298 997.527C-64.7381 997.527 -160.799 968.387 -242.506 913.793C-324.213 859.198 -387.895 781.6 -425.501 690.813C-463.106 600.025 -472.946 500.125 -453.775 403.745C-434.603 307.365 -387.283 218.835 -317.797 149.349C-248.311 79.8627 -159.78 32.5422 -63.4007 13.3711C32.979 -5.80005 132.879 4.03931 223.667 41.6448C314.455 79.2504 392.052 142.933 446.647 224.64C501.242 306.347 530.382 402.408 530.382 500.676C530.199 632.393 477.794 758.663 384.656 851.802C291.517 944.94 165.247 997.345 33.5298 997.527Z" fill="url(#paint20_linear_24_437)"/>
</g>
<defs>
<linearGradient id="paint0_linear_24_437" x1="-235.164" y1="500.529" x2="302.222" y2="500.529" gradientUnits="userSpaceOnUse">
<stop stop-color="#83A4D4"/>
<stop offset="0.95" stop-color="#B4F7FD"/>
<stop offset="1" stop-color="#B6FBFF"/>
</linearGradient>
<linearGradient id="paint1_linear_24_437" x1="-253.513" y1="500.529" x2="320.572" y2="500.529" gradientUnits="userSpaceOnUse">
<stop stop-color="#83A4D4"/>
<stop offset="0.95" stop-color="#B4F7FD"/>
<stop offset="1" stop-color="#B6FBFF"/>
</linearGradient>
<linearGradient id="paint2_linear_24_437" x1="-272.009" y1="500.529" x2="339.118" y2="500.529" gradientUnits="userSpaceOnUse">
<stop stop-color="#83A4D4"/>
<stop offset="0.95" stop-color="#B4F7FD"/>
<stop offset="1" stop-color="#B6FBFF"/>
</linearGradient>
<linearGradient id="paint3_linear_24_437" x1="-290.506" y1="500.528" x2="357.565" y2="500.528" gradientUnits="userSpaceOnUse">
<stop stop-color="#83A4D4"/>
<stop offset="0.95" stop-color="#B4F7FD"/>
<stop offset="1" stop-color="#B6FBFF"/>
</linearGradient>
<linearGradient id="paint4_linear_24_437" x1="-308.806" y1="500.529" x2="375.914" y2="500.529" gradientUnits="userSpaceOnUse">
<stop stop-color="#83A4D4"/>
<stop offset="0.95" stop-color="#B4F7FD"/>
<stop offset="1" stop-color="#B6FBFF"/>
</linearGradient>
<linearGradient id="paint5_linear_24_437" x1="-326.466" y1="500.529" x2="393.575" y2="500.529" gradientUnits="userSpaceOnUse">
<stop stop-color="#83A4D4"/>
<stop offset="0.95" stop-color="#B4F7FD"/>
<stop offset="1" stop-color="#B6FBFF"/>
</linearGradient>
<linearGradient id="paint6_linear_24_437" x1="-343.979" y1="500.529" x2="411.087" y2="500.529" gradientUnits="userSpaceOnUse">
<stop stop-color="#83A4D4"/>
<stop offset="0.95" stop-color="#B4F7FD"/>
<stop offset="1" stop-color="#B6FBFF"/>
</linearGradient>
<linearGradient id="paint7_linear_24_437" x1="-360.804" y1="500.529" x2="427.911" y2="500.529" gradientUnits="userSpaceOnUse">
<stop stop-color="#83A4D4"/>
<stop offset="0.95" stop-color="#B4F7FD"/>
<stop offset="1" stop-color="#B6FBFF"/>
</linearGradient>
<linearGradient id="paint8_linear_24_437" x1="-376.84" y1="500.529" x2="443.899" y2="500.529" gradientUnits="userSpaceOnUse">
<stop stop-color="#83A4D4"/>
<stop offset="0.95" stop-color="#B4F7FD"/>
<stop offset="1" stop-color="#B6FBFF"/>
</linearGradient>
<linearGradient id="paint9_linear_24_437" x1="-391.844" y1="500.529" x2="458.953" y2="500.529" gradientUnits="userSpaceOnUse">
<stop stop-color="#83A4D4"/>
<stop offset="0.95" stop-color="#B4F7FD"/>
<stop offset="1" stop-color="#B6FBFF"/>
</linearGradient>
<linearGradient id="paint10_linear_24_437" x1="-405.717" y1="500.529" x2="472.825" y2="500.529" gradientUnits="userSpaceOnUse">
<stop stop-color="#83A4D4"/>
<stop offset="0.95" stop-color="#B4F7FD"/>
<stop offset="1" stop-color="#B6FBFF"/>
</linearGradient>
<linearGradient id="paint11_linear_24_437" x1="-418.359" y1="500.529" x2="485.468" y2="500.529" gradientUnits="userSpaceOnUse">
<stop stop-color="#83A4D4"/>
<stop offset="0.95" stop-color="#B4F7FD"/>
<stop offset="1" stop-color="#B6FBFF"/>
</linearGradient>
<linearGradient id="paint12_linear_24_437" x1="-429.674" y1="500.529" x2="496.782" y2="500.529" gradientUnits="userSpaceOnUse">
<stop stop-color="#83A4D4"/>
<stop offset="0.95" stop-color="#B4F7FD"/>
<stop offset="1" stop-color="#B6FBFF"/>
</linearGradient>
<linearGradient id="paint13_linear_24_437" x1="-439.463" y1="500.53" x2="506.572" y2="500.53" gradientUnits="userSpaceOnUse">
<stop stop-color="#83A4D4"/>
<stop offset="0.95" stop-color="#B4F7FD"/>
<stop offset="1" stop-color="#B6FBFF"/>
</linearGradient>
<linearGradient id="paint14_linear_24_437" x1="-447.728" y1="500.528" x2="514.836" y2="500.528" gradientUnits="userSpaceOnUse">
<stop stop-color="#83A4D4"/>
<stop offset="0.95" stop-color="#B4F7FD"/>
<stop offset="1" stop-color="#B6FBFF"/>
</linearGradient>
<linearGradient id="paint15_linear_24_437" x1="-454.418" y1="500.529" x2="521.527" y2="500.529" gradientUnits="userSpaceOnUse">
<stop stop-color="#83A4D4"/>
<stop offset="0.95" stop-color="#B4F7FD"/>
<stop offset="1" stop-color="#B6FBFF"/>
</linearGradient>
<linearGradient id="paint16_linear_24_437" x1="-459.534" y1="500.529" x2="526.643" y2="500.529" gradientUnits="userSpaceOnUse">
<stop stop-color="#83A4D4"/>
<stop offset="0.95" stop-color="#B4F7FD"/>
<stop offset="1" stop-color="#B6FBFF"/>
</linearGradient>
<linearGradient id="paint17_linear_24_437" x1="-463.125" y1="500.529" x2="530.184" y2="500.529" gradientUnits="userSpaceOnUse">
<stop stop-color="#83A4D4"/>
<stop offset="0.95" stop-color="#B4F7FD"/>
<stop offset="1" stop-color="#B6FBFF"/>
</linearGradient>
<linearGradient id="paint18_linear_24_437" x1="-465.043" y1="500.528" x2="532.152" y2="500.529" gradientUnits="userSpaceOnUse">
<stop stop-color="#83A4D4"/>
<stop offset="0.95" stop-color="#B4F7FD"/>
<stop offset="1" stop-color="#B6FBFF"/>
</linearGradient>
<linearGradient id="paint19_linear_24_437" x1="-466.126" y1="500.529" x2="533.284" y2="500.53" gradientUnits="userSpaceOnUse">
<stop stop-color="#83A4D4"/>
<stop offset="0.95" stop-color="#B4F7FD"/>
<stop offset="1" stop-color="#B6FBFF"/>
</linearGradient>
<linearGradient id="paint20_linear_24_437" x1="-466.421" y1="500.528" x2="533.53" y2="500.529" gradientUnits="userSpaceOnUse">
<stop stop-color="#83A4D4"/>
<stop offset="0.95" stop-color="#B4F7FD"/>
<stop offset="1" stop-color="#B6FBFF"/>
</linearGradient>
</defs>
</svg>
