<svg width="117" height="431" viewBox="0 0 117 431" fill="none" xmlns="http://www.w3.org/2000/svg">
<g opacity="0.3" clip-path="url(#clip0_37_5294)">
<path d="M-7.53397 281.908C-7.25345 299.386 -9.6424 316.805 -14.6182 333.563C-23.8571 362.49 -41.538 380.259 -65.8013 384.953C-111.524 393.808 -173.953 356.734 -232.781 285.686C-325.348 173.933 -378.538 13.683 -351.382 -71.4747C-342.173 -100.372 -324.462 -118.142 -300.199 -122.865C-254.476 -131.72 -192.047 -94.6163 -133.219 -23.5975C-57.0641 68.2607 -7.53397 193.09 -7.53397 281.908ZM-356.725 -19.8488C-356.725 68.5263 -307.372 192.854 -231.423 284.535C-173.067 355.081 -111.081 391.948 -66.126 383.211C-42.5121 378.636 -25.3034 361.28 -16.3006 333.032C10.6783 248.287 -42.3645 88.7752 -134.577 -22.5644C-192.992 -93.0814 -254.772 -129.978 -299.874 -121.212C-323.488 -116.636 -340.697 -99.2801 -349.7 -71.032C-354.631 -54.4276 -357 -37.1678 -356.725 -19.8488Z" fill="url(#paint0_linear_37_5294)"/>
<path d="M-6.32373 273.201C-6.32373 301.685 -10.6923 327.07 -19.9608 347.466C-32.5057 375.095 -52.9907 391.211 -79.2021 394.074C-129.677 399.594 -194.084 357.178 -251.466 280.757C-341.11 161.359 -383.526 -2.93457 -346.039 -85.5833C-333.494 -113.212 -313.009 -129.328 -286.827 -132.191C-236.323 -137.711 -171.916 -95.3535 -114.534 -18.8739C-47.0282 71.0951 -6.32373 186.449 -6.32373 273.201ZM-357.964 -11.1699C-357.964 75.1389 -317.348 190.08 -250.078 279.724C-193.051 355.672 -129.234 397.794 -79.3793 392.333C-53.8172 389.529 -33.8339 373.766 -21.5547 346.728C15.6962 264.7 -26.6317 101.173 -116.01 -17.7523C-173.038 -93.7301 -236.855 -135.822 -286.709 -130.391C-312.271 -127.439 -332.255 -111.824 -344.534 -84.7863C-353.625 -64.5669 -357.964 -39.3885 -357.964 -11.1699Z" fill="url(#paint1_linear_37_5294)"/>
<path d="M-3.99179 261.098C-3.99179 300.681 -11.4006 335.393 -27.0449 360.896C-43.1909 387.226 -66.8047 401.453 -95.289 402.132C-150.487 403.342 -216.31 355.553 -271.272 274.263C-357.02 147.603 -387.393 -19.9373 -338.955 -98.9258C-322.809 -125.285 -299.225 -139.542 -270.711 -140.25C-215.513 -141.49 -149.69 -93.7013 -94.7578 -12.4104C-36.6675 73.5443 -3.99179 178.036 -3.99179 261.098ZM-360.296 0.901978C-360.296 83.5507 -327.827 187.659 -269.796 273.259C-215.159 354.078 -149.926 401.453 -95.3186 400.361C-67.4542 399.741 -44.3716 385.779 -28.5502 359.952C19.5631 281.494 -10.8398 114.957 -96.2041 -11.3182C-150.87 -92.1368 -216.074 -139.63 -270.681 -138.42C-298.546 -137.8 -321.628 -123.661 -337.45 -98.0108C-352.946 -72.7439 -360.296 -38.3561 -360.296 0.901978Z" fill="url(#paint2_linear_37_5294)"/>
<path d="M-0.184021 245.749C-0.184021 298.113 -11.8139 343.599 -35.9886 373.618C-56.1195 398.649 -83.2165 410.781 -114.475 408.685C-174.101 404.7 -240.485 351.274 -292.052 266.057C-372.93 132.255 -389.932 -37.1752 -330.011 -111.766C-309.881 -136.796 -282.784 -148.928 -251.525 -146.832C-191.9 -142.818 -125.515 -89.5096 -73.948 -4.1748C-25.6871 75.7288 -0.184021 168.266 -0.184021 245.749ZM-364.133 16.1922C-364.133 93.3211 -338.66 185.533 -290.547 265.142C-239.275 349.975 -173.422 402.959 -114.357 406.825C-83.7478 408.892 -57.1231 396.996 -37.3759 372.438C22.1311 298.467 5.07007 129.923 -75.4534 -3.28928C-126.725 -88.0927 -192.578 -141.106 -251.643 -144.973C-282.252 -147.039 -308.877 -135.143 -328.654 -110.585C-352.592 -80.8315 -364.133 -35.7289 -364.133 16.1922Z" fill="url(#paint3_linear_37_5294)"/>
<path d="M5.57178 227.861C5.57178 294.334 -11.8435 351.834 -46.8806 385.543C-71.5276 409.157 -102.728 418.78 -137.086 413.289C-200.607 403.165 -266.667 344.396 -313.806 256.05C-388.544 115.725 -391.083 -54.5909 -319.12 -123.602C-307.405 -135.113 -293.096 -143.641 -277.399 -148.47C-261.701 -153.298 -245.073 -154.286 -228.914 -151.349C-165.393 -141.224 -99.274 -82.4257 -52.0462 5.91983C-13.6736 77.9128 5.57178 157.816 5.57178 227.861ZM-369.86 34.0204C-369.86 103.77 -350.585 183.408 -312.242 255.224C-265.368 343.067 -199.633 401.453 -136.791 411.548C-120.902 414.437 -104.552 413.467 -89.1166 408.721C-73.6809 403.975 -59.6111 395.591 -48.0909 384.274C23.3117 315.793 20.8027 146.423 -53.7582 6.71683C-100.632 -81.127 -166.219 -139.571 -229.21 -149.725C-245.098 -152.617 -261.448 -151.649 -276.885 -146.902C-292.321 -142.156 -306.39 -133.77 -317.909 -122.451C-352.622 -89.0376 -369.86 -31.9214 -369.86 34.0204Z" fill="url(#paint4_linear_37_5294)"/>
<path d="M13.571 208.557C13.571 289.995 -11.5187 360.748 -59.8092 396.465C-89.6513 418.544 -125.485 425.096 -163.415 415.385C-229.947 398.413 -294.62 334.419 -336.417 244.184C-404.307 97.8076 -390.67 -72.065 -306.191 -134.553C-276.378 -156.603 -240.515 -163.126 -202.585 -153.474C-136.053 -136.472 -71.38 -72.4782 -29.6129 17.7269C-1.71439 77.509 13.0126 142.588 13.571 208.557ZM-377.859 53.1478C-377.298 118.939 -362.622 183.844 -334.823 243.476C-293.233 333.179 -229.003 396.819 -162.972 413.703C-125.574 423.237 -90.2711 416.654 -60.8423 395.048C22.9871 333.061 36.2699 164.133 -31.3249 18.4944C-72.8854 -71.2385 -137.115 -134.996 -203.146 -151.762C-240.544 -161.296 -275.847 -154.861 -305.276 -133.107C-352.976 -97.7156 -377.859 -27.5233 -377.859 53.1478Z" fill="url(#paint5_linear_37_5294)"/>
<path d="M24.1086 189.252C24.1086 285.863 -11.0761 370.282 -74.8336 406.205C-110.697 426.424 -151.785 429.229 -193.73 414.352C-262.062 390.03 -324.167 321.284 -359.854 230.429C-419.331 78.6801 -388.544 -89.3919 -291.137 -144.265C-255.244 -164.484 -214.156 -167.288 -172.33 -152.411C-103.967 -128.089 -41.8628 -59.3432 -6.17624 31.5114C13.6083 81.7601 23.8778 135.249 24.1086 189.252ZM-388.397 72.5995C-388.149 126.419 -377.879 179.721 -358.112 229.78C-322.691 320.162 -260.911 388.554 -193.051 412.787C-151.726 427.546 -111.111 424.594 -75.6896 404.759C20.9503 350.299 51.2351 183.201 -7.79965 32.2493C-43.2205 -58.133 -105 -126.495 -172.89 -150.759C-214.215 -165.517 -254.801 -162.565 -290.222 -142.73C-353.507 -107.102 -388.397 -23.332 -388.397 72.5995Z" fill="url(#paint6_linear_37_5294)"/>
<path d="M37.3621 171.218C37.3621 282.735 -10.7513 380.555 -91.9831 414.441C-134.872 432.476 -181.923 430.735 -227.734 409.512C-296.48 377.84 -354.806 304.932 -383.733 214.668C-433.913 58.2255 -384.648 -106.482 -274.017 -152.647C-231.128 -170.534 -184.195 -168.793 -138.237 -147.57C-69.4908 -115.839 -11.3121 -42.9897 17.7625 47.245C30.6469 87.312 37.2582 129.13 37.3621 171.218ZM-401.621 90.5175C-401.524 132.487 -394.923 174.189 -382.051 214.136C-353.123 304.046 -295.299 376.393 -226.996 407.918C-181.539 428.934 -135.078 430.676 -92.662 412.965C-12.109 379.345 35.6205 282.203 35.6205 171.425C35.5241 129.464 28.9224 87.7727 16.0506 47.8353C-12.7289 -41.9861 -70.7011 -114.51 -139.004 -145.976C-184.491 -166.963 -230.921 -168.704 -273.338 -151.023C-353.92 -117.403 -401.621 -20.2613 -401.621 90.5175Z" fill="url(#paint7_linear_37_5294)"/>
<path d="M53.331 156.016C53.331 281.849 -10.9283 392.155 -111.376 421.466C-162.264 436.225 -215.572 429.052 -265.486 400.332C-334.055 360.867 -386.065 286.719 -408.203 196.868C-447.579 36.707 -378.804 -123.159 -254.653 -159.377C-203.736 -174.283 -150.428 -166.993 -100.514 -138.243C-31.9447 -98.8074 20.0649 -24.6597 42.2029 65.1913C49.5591 94.9072 53.2956 125.403 53.331 156.016ZM-417.589 105.837C-417.559 136.36 -413.832 166.768 -406.491 196.396C-384.471 285.834 -332.756 359.568 -264.571 398.797C-215.13 427.281 -162.294 434.542 -111.848 419.754C-12.1976 390.591 51.5895 281.022 51.5895 156.046C51.5593 125.532 47.8326 95.1337 40.491 65.516C18.471 -23.8922 -33.3025 -97.6266 -101.399 -136.855C-150.9 -165.34 -203.706 -172.571 -254.152 -157.813C-353.802 -128.649 -417.589 -19.1399 -417.589 105.896V105.837Z" fill="url(#paint8_linear_37_5294)"/>
<path d="M71.9269 143.914C71.9269 283.384 -11.932 404.405 -132.983 426.602C-192.018 437.494 -253.738 423.178 -306.456 386.311C-372.162 340.323 -418.298 264.02 -433.027 177.121C-460.596 14.1262 -371.041 -139.158 -233.017 -164.513C-173.982 -175.434 -112.262 -161.118 -59.5435 -124.222C6.16217 -78.2336 52.2978 -1.96075 67.027 85.086C70.3002 104.524 71.9392 124.202 71.9269 143.914ZM-436.244 118.086C-436.245 137.761 -434.586 157.401 -431.286 176.797C-416.527 263.371 -370.775 339.142 -305.453 384.953C-253.119 421.466 -191.988 435.664 -133.307 424.861C-13.0832 402.723 70.3625 282.587 70.3625 143.944C70.361 124.269 68.7021 104.63 65.4035 85.2336C50.6448 -1.31137 4.89291 -77.112 -60.4586 -122.923C-112.763 -159.525 -173.894 -173.722 -232.574 -162.919C-352.917 -140.781 -436.244 -20.6453 -436.244 118.086Z" fill="url(#paint9_linear_37_5294)"/>
<path d="M93.268 135.531C93.268 288.166 -14.0572 417.334 -156.862 429.82C-308.493 443.102 -443.594 319.838 -457.94 155.042C-464.906 75.3452 -442.886 -2.31506 -395.953 -63.3866C-349.021 -124.458 -282.606 -161.532 -209.108 -167.967C-135.61 -174.401 -63.8531 -149.253 -7.00259 -97.3906C49.8479 -45.5286 85.0327 27.0547 92.0283 106.84C92.8547 116.522 93.268 126.086 93.268 135.531ZM-457.527 126.115C-457.527 135.639 -457.103 145.233 -456.257 154.895C-441.941 318.805 -307.696 441.272 -157.01 428.019C-15.1198 415.592 91.497 287.191 91.497 135.472C91.497 126.056 91.1133 116.581 90.2573 107.017C83.3207 27.6451 48.3425 -44.4955 -8.18326 -96.0919C-64.7091 -147.688 -136.023 -172.571 -208.902 -166.196C-281.78 -159.82 -347.899 -122.835 -394.448 -62.2354C-435.728 -8.15717 -457.912 58.0828 -457.527 126.115Z" fill="url(#paint10_linear_37_5294)"/>
<path d="M117 130.985C117 190.322 99.4047 248.327 66.4386 297.664C33.4725 347.002 -13.3833 385.455 -68.2039 408.163C-123.024 430.87 -183.347 436.811 -241.544 425.235C-299.742 413.659 -353.199 385.085 -395.157 343.128C-437.115 301.17 -465.688 247.712 -477.265 189.515C-488.841 131.318 -482.899 70.995 -460.192 16.1745C-437.485 -38.6461 -399.031 -85.502 -349.694 -118.468C-300.357 -151.434 -242.352 -169.03 -183.015 -169.03C-103.472 -168.944 -27.2121 -137.307 29.033 -81.0624C85.2781 -24.8174 116.914 51.4426 117 130.985ZM-481.229 130.985C-481.229 189.949 -463.744 247.588 -430.985 296.615C-398.227 345.641 -351.666 383.853 -297.191 406.417C-242.715 428.982 -182.772 434.886 -124.942 423.382C-67.1109 411.879 -13.99 383.485 27.7036 341.792C69.3972 300.098 97.7909 246.977 109.294 189.147C120.797 131.316 114.893 71.3727 92.3291 16.8974C69.7646 -37.5779 31.5532 -84.1388 -17.4733 -116.897C-66.4998 -149.656 -124.139 -167.141 -183.103 -167.141C-262.137 -167.031 -337.903 -135.587 -393.789 -79.7008C-449.675 -23.8151 -481.119 51.9508 -481.229 130.985Z" fill="url(#paint11_linear_37_5294)"/>
</g>
<defs>
<linearGradient id="paint0_linear_37_5294" x1="-183.015" y1="386.222" x2="-183.015" y2="-124.281" gradientUnits="userSpaceOnUse">
<stop stop-color="#83A4D4"/>
<stop offset="0.95" stop-color="#B4F7FD"/>
<stop offset="1" stop-color="#B6FBFF"/>
</linearGradient>
<linearGradient id="paint1_linear_37_5294" x1="-183.015" y1="394.547" x2="-183.015" y2="-132.604" gradientUnits="userSpaceOnUse">
<stop stop-color="#83A4D4"/>
<stop offset="0.95" stop-color="#B4F7FD"/>
<stop offset="1" stop-color="#B6FBFF"/>
</linearGradient>
<linearGradient id="paint2_linear_37_5294" x1="-183.015" y1="402.132" x2="-183.015" y2="-140.191" gradientUnits="userSpaceOnUse">
<stop stop-color="#83A4D4"/>
<stop offset="0.95" stop-color="#B4F7FD"/>
<stop offset="1" stop-color="#B6FBFF"/>
</linearGradient>
<linearGradient id="paint3_linear_37_5294" x1="-183.015" y1="408.921" x2="-183.015" y2="-146.98" gradientUnits="userSpaceOnUse">
<stop stop-color="#83A4D4"/>
<stop offset="0.95" stop-color="#B4F7FD"/>
<stop offset="1" stop-color="#B6FBFF"/>
</linearGradient>
<linearGradient id="paint4_linear_37_5294" x1="-183.015" y1="414.795" x2="-183.015" y2="-152.854" gradientUnits="userSpaceOnUse">
<stop stop-color="#83A4D4"/>
<stop offset="0.95" stop-color="#B4F7FD"/>
<stop offset="1" stop-color="#B6FBFF"/>
</linearGradient>
<linearGradient id="paint5_linear_37_5294" x1="-183.015" y1="419.754" x2="-183.015" y2="-157.813" gradientUnits="userSpaceOnUse">
<stop stop-color="#83A4D4"/>
<stop offset="0.95" stop-color="#B4F7FD"/>
<stop offset="1" stop-color="#B6FBFF"/>
</linearGradient>
<linearGradient id="paint6_linear_37_5294" x1="-183.015" y1="423.768" x2="-183.015" y2="-161.828" gradientUnits="userSpaceOnUse">
<stop stop-color="#83A4D4"/>
<stop offset="0.95" stop-color="#B4F7FD"/>
<stop offset="1" stop-color="#B6FBFF"/>
</linearGradient>
<linearGradient id="paint7_linear_37_5294" x1="-183.015" y1="426.839" x2="-183.015" y2="-164.897" gradientUnits="userSpaceOnUse">
<stop stop-color="#83A4D4"/>
<stop offset="0.95" stop-color="#B4F7FD"/>
<stop offset="1" stop-color="#B6FBFF"/>
</linearGradient>
<linearGradient id="paint8_linear_37_5294" x1="-183.015" y1="428.993" x2="-183.015" y2="-167.022" gradientUnits="userSpaceOnUse">
<stop stop-color="#83A4D4"/>
<stop offset="0.95" stop-color="#B4F7FD"/>
<stop offset="1" stop-color="#B6FBFF"/>
</linearGradient>
<linearGradient id="paint9_linear_37_5294" x1="-183.015" y1="430.144" x2="-183.015" y2="-168.203" gradientUnits="userSpaceOnUse">
<stop stop-color="#83A4D4"/>
<stop offset="0.95" stop-color="#B4F7FD"/>
<stop offset="1" stop-color="#B6FBFF"/>
</linearGradient>
<linearGradient id="paint10_linear_37_5294" x1="-183.015" y1="430.794" x2="-183.015" y2="-168.882" gradientUnits="userSpaceOnUse">
<stop stop-color="#83A4D4"/>
<stop offset="0.95" stop-color="#B4F7FD"/>
<stop offset="1" stop-color="#B6FBFF"/>
</linearGradient>
<linearGradient id="paint11_linear_37_5294" x1="-183.015" y1="430.97" x2="-183.015" y2="-169.03" gradientUnits="userSpaceOnUse">
<stop stop-color="#83A4D4"/>
<stop offset="0.95" stop-color="#B4F7FD"/>
<stop offset="1" stop-color="#B6FBFF"/>
</linearGradient>
<clipPath id="clip0_37_5294">
<rect width="600" height="600" fill="white" transform="matrix(0 -1 1 0 -483 431)"/>
</clipPath>
</defs>
</svg>
