<svg width="704" height="553" viewBox="0 0 704 553" fill="none" xmlns="http://www.w3.org/2000/svg">
<g opacity="0.3" clip-path="url(#clip0_26_1403)">
<path d="M942.05 200.348C942.05 223.446 935.578 241.913 922.633 254.442C890.687 285.735 822.401 278.847 734.698 236.035C563.568 152.488 365.004 -43.6412 292.086 -201.174C258.834 -273.023 256.043 -327.889 284.367 -355.56C316.135 -386.674 384.599 -379.965 472.302 -337.152C643.433 -253.546 841.937 -57.4765 914.855 99.997C932.965 139.009 942.05 172.915 942.05 200.348ZM293.689 -201.827L295.293 -202.599C368.151 -45.7194 565.765 149.579 736.302 232.888C822.579 274.987 889.619 281.935 920.377 251.948C947.454 225.346 944.485 171.905 911.826 101.481C839.206 -55.3388 641.414 -250.696 470.936 -333.946C384.658 -376.105 317.619 -383.052 286.861 -353.007C259.725 -326.464 262.753 -273.023 295.352 -202.599L293.689 -201.827Z" fill="url(#paint0_linear_26_1403)"/>
<path d="M946.622 216.914C946.622 243.872 938.903 264.833 923.405 278.372C887.243 310.08 812.544 298.442 718.547 246.426C541.182 148.272 344.755 -64.6022 280.745 -227.598C252.599 -299.328 253.608 -353.244 283.535 -379.49C319.757 -411.198 394.396 -399.56 488.453 -347.544C665.818 -249.331 862.185 -36.694 926.315 126.539C939.853 161.039 946.622 191.678 946.622 216.914ZM263.762 -318.032C263.762 -293.331 270.531 -263.225 283.951 -228.964C347.784 -66.3836 543.438 145.125 720.21 243.279C812.841 294.523 886.056 306.339 921.03 275.64C949.769 250.464 950.423 197.972 922.871 127.727C859.157 -34.9127 663.503 -246.599 486.909 -344.397C394.277 -395.7 321.063 -407.517 286.089 -376.818C271.185 -363.933 263.822 -343.684 263.822 -318.032H263.762Z" fill="url(#paint1_linear_26_1403)"/>
<path d="M950.067 232.294C950.067 264.002 940.744 288.11 922.218 302.598C881.068 334.723 800.134 317.562 700.021 255.511C517.252 142.275 324.745 -86.6912 270.888 -254.853C248.146 -326.108 253.074 -378.599 284.664 -403.301C325.754 -435.366 406.747 -418.205 506.861 -356.213C689.57 -242.977 882.077 -14.0112 935.994 154.151C944.638 179.329 949.384 205.681 950.067 232.294ZM260.318 -333.234C261.014 -306.937 265.74 -280.903 274.332 -256.041C327.773 -88.532 519.805 139.543 701.862 252.423C800.669 313.584 879.999 330.804 920.021 299.926C950.423 276.175 954.876 224.812 932.609 155.279C879.168 -12.1704 687.136 -240.305 505.079 -353.125C406.332 -414.345 326.942 -431.565 286.98 -400.629C269.225 -386.912 260.318 -363.814 260.318 -333.234Z" fill="url(#paint2_linear_26_1403)"/>
<path d="M952.857 246.307C952.857 283.597 941.457 310.852 918.952 326.41C872.339 358.593 784.992 335.376 679.238 262.636C492.135 133.902 305.15 -110.977 262.931 -283.177C245.474 -354.432 254.143 -404.073 288.048 -427.527C334.661 -459.711 422.008 -436.494 527.762 -363.754C714.866 -235.02 901.851 9.85931 944.069 182.118C949.553 203.086 952.504 224.636 952.857 246.307ZM257.646 -347.484C258.03 -326.152 260.96 -304.942 266.375 -284.305C308.772 -112.521 494.747 131.349 681.257 259.727C785.705 331.576 871.627 354.733 916.933 323.5C949.532 300.936 957.726 252.245 940.685 182.95C898.466 11.4032 712.312 -232.705 525.803 -360.845C421.592 -432.753 335.374 -455.911 290.067 -424.618C268.572 -409.714 257.646 -383.528 257.646 -347.425V-347.484Z" fill="url(#paint3_linear_26_1403)"/>
<path d="M954.283 257.411C954.283 302.064 940.447 333.772 913.311 350.22C860.582 382.107 766.823 352.18 656.021 268.099C465.592 123.57 286.564 -136.689 256.934 -311.976C245.058 -381.45 257.884 -429.606 293.69 -451.339C346.418 -483.226 440.178 -453.299 550.979 -369.218C741.408 -224.926 920.377 35.57 950.067 210.857C952.768 226.23 954.179 241.802 954.283 257.411ZM256.221 -358.589C256.324 -343.158 257.734 -327.763 260.437 -312.57C290.127 -137.995 468.264 120.898 658.278 265.308C765.991 347.251 860.998 377.831 911.47 347.192C945.91 326.29 958.024 279.381 946.563 211.451C916.874 36.9358 738.736 -222.314 548.723 -366.367C440.772 -448.311 346.062 -479.188 295.412 -448.311C269.522 -432.753 256.221 -401.876 256.221 -358.589Z" fill="url(#paint4_linear_26_1403)"/>
<path d="M954.995 265.367C954.995 319.284 937.953 356.514 904.998 373.675C846.39 404.314 743.724 366.074 630.31 271.483C437.802 111.16 268.572 -163.944 253.133 -341.191C247.195 -408.824 264.118 -455.021 301.943 -474.794C360.609 -505.374 463.276 -467.193 576.631 -372.602C769.197 -212.279 938.369 62.825 953.867 240.072C954.638 248.86 954.995 257.292 954.995 265.367ZM256.637 -341.31C272.075 -164.894 440.712 108.903 632.625 268.989C744.852 362.63 846.39 400.633 903.394 370.706C939.853 351.645 956.123 306.636 950.304 240.547C934.925 64.1313 766.228 -209.666 574.374 -369.693C462.148 -463.334 360.906 -501.396 303.606 -471.469C267.147 -452.408 250.877 -407.399 256.637 -341.31Z" fill="url(#paint5_linear_26_1403)"/>
<path d="M955.173 269.405C955.173 334.722 933.975 378.901 893.894 396.536C827.864 425.573 718.844 379.257 602.223 272.552C409.004 95.8401 251.886 -192.683 251.886 -370.642C251.886 -435.96 273.085 -480.138 313.166 -497.833C379.195 -526.869 488.215 -480.553 604.836 -373.849C797.997 -197.018 955.173 91.4461 955.173 269.405ZM255.33 -370.524C255.33 -193.455 411.973 93.8806 604.599 270.059C720.15 375.753 827.805 421.891 892.469 393.389C931.125 376.347 951.848 333.535 951.848 269.524C951.848 92.4555 795.206 -194.88 602.639 -371.058C486.909 -476.872 379.195 -523.009 314.71 -494.507C275.994 -477.466 255.33 -434.594 255.33 -370.583V-370.524Z" fill="url(#paint6_linear_26_1403)"/>
<path d="M955.173 269.228C955.173 279.5 954.758 289.357 953.807 298.917C947.87 362.097 922.099 403.543 879.465 418.863C805.419 445.465 690.342 390.302 571.643 271.306C379.136 78.3831 236.27 -222.847 253.133 -400.094C259.071 -463.273 284.901 -504.78 327.476 -520.099C401.581 -546.582 516.599 -491.419 635.357 -372.483C817.473 -189.951 955.173 89.487 955.173 269.228ZM255.33 -370.167C255.33 -191.376 392.615 87.0525 574.137 268.871C691.886 386.858 805.716 441.665 878.277 415.597C919.486 400.812 944.425 360.315 950.304 298.62C967.108 122.264 824.717 -177.66 632.863 -369.989C515.114 -487.975 401.284 -542.782 328.723 -516.715C287.158 -501.87 262.575 -461.433 256.696 -399.738C255.746 -390.237 255.33 -380.38 255.33 -370.167Z" fill="url(#paint7_linear_26_1403)"/>
<path d="M955.47 264.062C955.584 285.58 953.595 307.059 949.532 328.191C937.656 388.876 906.898 427.651 861.414 440.239C778.639 463.16 657.98 398.674 538.628 267.446C348.615 58.4315 222.256 -254.14 257.349 -429.309C269.225 -489.994 299.984 -528.769 345.468 -541.357C428.243 -564.278 548.901 -499.792 668.253 -368.564C837.246 -183.36 955.411 83.8458 955.47 264.062ZM255.33 -364.942C255.33 -185.676 373.376 80.4018 541.597 265.071C659.999 395.171 779.114 459.419 860.82 436.855C904.641 424.623 934.212 386.679 946.088 327.3C950.149 306.348 952.137 285.047 952.026 263.705C952.026 84.4396 834.04 -181.638 665.819 -366.367C547.417 -496.467 428.302 -560.656 346.596 -538.091C302.478 -525.919 272.907 -488.094 260.972 -428.774C256.996 -407.734 255.107 -386.353 255.33 -364.942Z" fill="url(#paint8_linear_26_1403)"/>
<path d="M956.479 253.076C957.044 288.237 952.238 323.279 942.228 356.99C923.643 415.181 888.075 450.928 839.265 460.369C747.287 478.183 621.7 403.602 503.357 260.677C317.144 35.8674 210.143 -286.502 264.772 -457.811C283.298 -515.943 318.925 -551.689 367.735 -561.19C459.713 -579.004 585.3 -504.364 703.643 -361.498C856.841 -176.71 956.479 74.4044 956.479 253.076ZM254.024 -353.957C254.024 -176.176 353.306 73.9294 506.089 258.361C623.481 400.277 748.177 474.442 838.612 456.866C886.115 447.662 920.733 412.747 938.844 355.921C993.116 185.443 886.412 -135.441 700.911 -359.42C583.4 -501.276 459.12 -575.5 368.388 -557.865C320.885 -548.661 286.267 -513.746 268.156 -456.92C258.235 -423.518 253.47 -388.797 254.024 -353.957Z" fill="url(#paint9_linear_26_1403)"/>
<path d="M958.914 235.56C958.914 292.861 950.126 343.927 931.481 384.958C906.244 440.536 865.035 472.958 812.307 478.717C710.768 489.821 581.203 404.493 465.77 250.761C285.436 10.5721 200.108 -319.932 275.519 -486.194C300.755 -541.773 341.964 -574.194 394.634 -579.954C496.231 -591.057 625.797 -505.848 741.23 -351.997C877.03 -171.009 958.914 61.0443 958.914 235.56ZM251.53 -336.499C251.53 -162.874 333.236 68.348 468.561 248.682C583.281 401.465 711.659 486.199 811.95 475.214C863.373 469.573 903.572 437.864 928.274 383.473C1003.21 218.458 918.061 -110.502 738.261 -349.741C623.54 -502.583 495.163 -587.257 394.871 -576.331C343.449 -570.394 303.249 -538.982 278.548 -484.591C260.259 -443.916 251.53 -393.266 251.53 -336.499Z" fill="url(#paint10_linear_26_1403)"/>
<path d="M963.605 211.214C963.605 290.841 948.701 360.671 917.23 411.975C884.749 464.941 837.246 493.562 779.945 494.927C668.906 497.362 536.491 401.227 425.927 237.697C253.43 -17.0989 192.329 -354.135 289.77 -513.034C322.251 -566.059 369.695 -594.739 427.055 -596.164C538.094 -598.658 670.509 -502.523 781.014 -338.993C897.872 -166.081 963.605 44.121 963.605 211.214ZM246.839 -312.213C246.839 -145.952 312.156 63.4786 428.896 235.678C538.807 398.258 670.034 493.562 779.886 491.365C835.94 490.118 882.374 462.031 914.202 410.075C1010.99 252.245 949.829 -82.7723 778.104 -336.796C668.134 -499.376 536.966 -594.917 427.114 -592.483C371.06 -591.236 324.626 -562.793 292.799 -511.193C261.625 -460.364 246.839 -391.188 246.839 -312.213Z" fill="url(#paint11_linear_26_1403)"/>
<path d="M971.265 180.336C971.265 285.675 947.87 377.178 899.238 437.567C858.742 487.92 804.231 512.325 741.349 508.109C621.403 500.093 487.859 392.617 384.124 221.189C221.425 -47.9764 187.223 -388.813 307.762 -538.864C348.259 -589.217 402.769 -613.622 465.651 -609.406C585.597 -601.331 719.141 -494.092 822.877 -322.427C919.961 -161.688 971.265 24.4662 971.265 180.336ZM239.12 -281.455C239.12 -126.298 290.364 59.203 387.152 219.349C490.294 390.004 622.769 496.59 741.586 504.368C803.163 508.525 856.723 484.595 896.447 435.192C1016.16 286.388 981.835 -52.6674 819.848 -320.645C716.707 -491.242 584.232 -597.887 465.414 -605.665C403.838 -609.822 350.278 -585.892 310.494 -536.489C262.337 -476.635 239.12 -385.903 239.12 -281.455Z" fill="url(#paint12_linear_26_1403)"/>
<path d="M982.844 144.353C982.844 278.075 947.81 393.745 877.327 461.556C827.745 509.06 764.982 528.417 695.864 517.373C568.08 497.006 435.19 378.782 340.361 201.06C190.013 -81.2285 184.907 -423.846 329.673 -562.675C353.239 -585.83 382.023 -602.986 413.601 -612.699C445.18 -622.413 478.63 -624.399 511.136 -618.491C638.92 -598.124 771.929 -479.841 866.936 -302.119C944.128 -157.293 982.844 3.44617 982.844 144.353ZM227.6 -245.59C227.6 -105.277 266.375 54.9278 343.508 199.397C437.802 376.11 570.04 493.562 696.458 513.869C728.42 519.681 761.311 517.731 792.362 508.183C823.414 498.635 851.717 481.769 874.892 459.003C1018.53 321.243 1013.48 -19.4742 863.492 -300.516C769.197 -477.228 637.257 -594.799 510.542 -615.225C478.58 -621.042 445.688 -619.094 414.636 -609.546C383.583 -599.998 355.28 -583.129 332.108 -560.359C262.278 -493.142 227.6 -378.243 227.6 -245.59Z" fill="url(#paint13_linear_26_1403)"/>
<path d="M998.935 105.519C998.935 269.346 948.463 411.678 851.319 483.526C791.286 527.942 719.2 541.124 642.898 521.589C509.057 487.445 378.958 358.712 294.877 177.189C158.305 -117.272 185.738 -458.999 355.681 -584.704C415.654 -629.061 487.8 -642.183 564.102 -622.766C697.943 -588.564 828.042 -459.83 912.064 -278.367C968.186 -158.106 997.812 -27.1888 998.935 105.519ZM211.509 -207.112C212.637 -74.7622 242.16 55.8041 298.083 175.764C381.749 356.218 510.958 484.239 643.789 518.204C719.022 537.383 790.04 524.142 849.241 480.676C1017.88 355.98 1044.6 16.1531 908.62 -276.824C825.014 -457.336 695.805 -585.595 562.974 -619.323C487.74 -638.502 416.723 -625.557 357.522 -581.795C261.565 -510.599 211.509 -369.396 211.509 -207.112Z" fill="url(#paint14_linear_26_1403)"/>
<path d="M1020.13 66.6846C1020.13 261.033 949.354 430.857 821.095 503.121C748.949 543.796 666.293 549.437 581.916 519.51C444.453 470.582 319.519 332.288 247.73 149.519C128.081 -155.75 190.013 -493.855 385.965 -604.24C458.17 -644.915 540.825 -650.556 624.966 -620.629C762.488 -571.701 887.421 -433.407 959.211 -250.638C999.011 -149.554 1019.67 -41.9512 1020.13 66.6846ZM190.31 -167.982C190.809 -59.7153 211.469 47.5111 251.233 148.212C322.488 330.031 446.769 467.613 583.281 516.363C666.412 546.053 748.118 540.115 819.373 500.212C1013.78 390.657 1074.7 54.5119 955.945 -249.153C884.69 -430.972 760.409 -568.494 623.837 -617.304C540.707 -646.993 459.06 -641.055 387.805 -601.153C260.496 -529.482 190.31 -360.964 190.31 -167.982Z" fill="url(#paint15_linear_26_1403)"/>
<path d="M1046.8 30.4044C1046.8 254.739 950.007 451.521 786.596 519.689C700.318 555.969 605.667 552.466 513.511 509.772C375.217 446.058 257.884 299.392 199.692 117.811C98.7477 -196.899 197.851 -528.235 420.405 -621.104C506.682 -657.087 601.095 -653.584 693.549 -610.891C831.843 -547.058 948.879 -400.51 1007.37 -218.988C1033.29 -138.387 1046.59 -54.2618 1046.8 30.4044ZM163.708 -131.938C163.902 -47.5085 177.182 36.3808 203.077 116.742C261.268 297.611 377.592 443.149 514.996 506.566C606.439 548.844 699.902 552.347 785.23 516.72C947.276 449.087 1043.29 253.67 1043.29 30.8201C1043.1 -53.5901 1029.82 -137.46 1003.92 -217.8C946.029 -398.491 829.408 -544.386 692.005 -607.684C600.501 -649.903 507.098 -653.406 421.77 -617.838C259.665 -550.205 163.708 -354.788 163.708 -131.938Z" fill="url(#paint16_linear_26_1403)"/>
<path d="M1078.92 -0.175842C1078.92 252.957 949.651 474.857 747.583 533.821C645.214 563.51 537.975 549.081 437.565 491.305C299.627 411.915 195.001 262.755 150.467 82.0049C71.255 -240.186 209.608 -561.784 459.357 -634.642C561.786 -664.629 669.025 -649.962 769.435 -592.127C907.373 -512.796 1012 -363.636 1056.53 -182.885C1071.33 -123.107 1078.85 -61.7587 1078.92 -0.175842ZM131.584 -101.12C131.646 -39.7167 139.143 21.4535 153.911 81.0548C198.208 260.974 302.24 409.303 439.406 488.218C538.866 545.518 645.154 560.126 746.633 530.377C947.097 471.71 1075.42 251.295 1075.42 -0.116455C1075.36 -61.5006 1067.86 -122.651 1053.09 -182.232C1008.79 -362.092 904.641 -510.421 767.654 -589.336C668.075 -646.637 561.846 -661.185 460.367 -631.495C259.903 -572.828 131.584 -352.532 131.584 -101.002V-101.12Z" fill="url(#paint17_linear_26_1403)"/>
<path d="M1116.33 -24.5219C1116.33 256.045 947.632 499.499 704.118 544.152C585.36 566.063 461.198 537.264 355.147 463.1C222.969 370.587 130.159 217.092 100.529 42.2797C45.0688 -285.612 225.225 -593.968 502.882 -644.975C621.64 -666.945 745.802 -638.146 851.853 -563.922C984.031 -471.409 1076.84 -317.974 1106.47 -142.865C1113.06 -103.761 1116.35 -64.1754 1116.33 -24.5219ZM94.0566 -76.4786C94.0549 -36.8998 97.3919 2.6087 104.032 41.6265C133.722 215.786 225.76 368.212 357.166 460.368C462.445 533.82 585.419 562.382 703.465 540.649C945.316 496.115 1113.18 254.441 1113.18 -24.4625C1113.18 -64.0411 1109.84 -103.549 1103.21 -142.568C1073.52 -316.667 981.478 -469.153 850.012 -561.309C744.793 -634.939 621.818 -663.501 503.773 -641.768C261.684 -597.234 94.0566 -355.561 94.0566 -76.4786Z" fill="url(#paint18_linear_26_1403)"/>
<path d="M1159.26 -41.3855C1159.26 265.664 943.356 525.507 656.08 550.625C351.049 577.345 79.2711 329.378 50.4128 -2.13593C36.3993 -162.46 80.6962 -318.686 175.109 -441.542C269.522 -564.397 403.125 -638.977 550.979 -651.922C698.833 -664.867 843.184 -614.276 957.548 -509.946C1071.91 -405.617 1142.69 -259.604 1156.77 -99.1021C1158.43 -79.6257 1159.26 -60.3868 1159.26 -41.3855ZM51.2441 -60.3275C51.2441 -41.1678 52.0952 -21.8696 53.7974 -2.4328C82.5963 327.3 352.653 573.664 655.783 547.003C941.219 522.004 1155.7 263.705 1155.7 -41.5043C1155.7 -60.4462 1154.92 -79.5069 1153.2 -98.7458C1139.25 -258.416 1068.88 -403.539 955.173 -507.334C841.462 -611.128 698.002 -661.185 551.395 -648.359C404.788 -635.533 271.778 -561.131 178.137 -439.226C95.0946 -330.438 50.4682 -197.186 51.2441 -60.3275Z" fill="url(#paint19_linear_26_1403)"/>
<path d="M1207 -50.53C1207 68.8369 1171.6 185.523 1105.29 284.773C1038.97 384.023 944.712 461.379 834.432 507.059C724.151 552.739 602.801 564.69 485.728 541.403C368.655 518.116 261.116 460.635 176.711 376.23C92.3058 291.825 34.8252 184.286 11.5378 67.2128C-11.7495 -49.8605 0.202416 -171.21 45.8822 -281.491C91.5619 -391.771 168.918 -486.03 268.168 -552.347C367.418 -618.663 484.104 -654.06 603.471 -654.06C763.484 -653.887 916.893 -590.245 1030.04 -477.099C1143.19 -363.953 1206.83 -210.543 1207 -50.53ZM3.56332 -50.53C3.56332 68.0853 38.7368 184.037 104.636 282.662C170.535 381.287 264.2 458.156 373.786 503.548C483.372 548.94 603.958 560.817 720.294 537.676C836.63 514.535 943.492 457.416 1027.37 373.543C1111.24 289.669 1168.36 182.808 1191.5 66.4714C1214.64 -49.8647 1202.76 -170.45 1157.37 -280.036C1111.98 -389.623 1035.11 -483.288 936.485 -549.187C837.86 -615.086 721.908 -650.259 603.293 -650.259C444.302 -650.04 291.886 -586.783 179.463 -474.36C67.0395 -361.936 3.78324 -209.521 3.56332 -50.53Z" fill="url(#paint20_linear_26_1403)"/>
</g>
<defs>
<linearGradient id="paint0_linear_26_1403" x1="603.47" y1="273.8" x2="603.47" y2="-374.858" gradientUnits="userSpaceOnUse">
<stop stop-color="#83A4D4"/>
<stop offset="0.95" stop-color="#B4F7FD"/>
<stop offset="1" stop-color="#B6FBFF"/>
</linearGradient>
<linearGradient id="paint1_linear_26_1403" x1="603.47" y1="295.948" x2="603.47" y2="-397.007" gradientUnits="userSpaceOnUse">
<stop stop-color="#83A4D4"/>
<stop offset="0.95" stop-color="#B4F7FD"/>
<stop offset="1" stop-color="#B6FBFF"/>
</linearGradient>
<linearGradient id="paint2_linear_26_1403" x1="603.47" y1="318.275" x2="603.47" y2="-419.393" gradientUnits="userSpaceOnUse">
<stop stop-color="#83A4D4"/>
<stop offset="0.95" stop-color="#B4F7FD"/>
<stop offset="1" stop-color="#B6FBFF"/>
</linearGradient>
<linearGradient id="paint3_linear_26_1403" x1="603.47" y1="340.601" x2="603.47" y2="-441.66" gradientUnits="userSpaceOnUse">
<stop stop-color="#83A4D4"/>
<stop offset="0.95" stop-color="#B4F7FD"/>
<stop offset="1" stop-color="#B6FBFF"/>
</linearGradient>
<linearGradient id="paint4_linear_26_1403" x1="603.471" y1="362.69" x2="603.471" y2="-463.809" gradientUnits="userSpaceOnUse">
<stop stop-color="#83A4D4"/>
<stop offset="0.95" stop-color="#B4F7FD"/>
<stop offset="1" stop-color="#B6FBFF"/>
</linearGradient>
<linearGradient id="paint5_linear_26_1403" x1="603.47" y1="384.007" x2="603.47" y2="-485.126" gradientUnits="userSpaceOnUse">
<stop stop-color="#83A4D4"/>
<stop offset="0.95" stop-color="#B4F7FD"/>
<stop offset="1" stop-color="#B6FBFF"/>
</linearGradient>
<linearGradient id="paint6_linear_26_1403" x1="603.47" y1="405.146" x2="603.47" y2="-506.264" gradientUnits="userSpaceOnUse">
<stop stop-color="#83A4D4"/>
<stop offset="0.95" stop-color="#B4F7FD"/>
<stop offset="1" stop-color="#B6FBFF"/>
</linearGradient>
<linearGradient id="paint7_linear_26_1403" x1="603.47" y1="425.454" x2="603.47" y2="-526.572" gradientUnits="userSpaceOnUse">
<stop stop-color="#83A4D4"/>
<stop offset="0.95" stop-color="#B4F7FD"/>
<stop offset="1" stop-color="#B6FBFF"/>
</linearGradient>
<linearGradient id="paint8_linear_26_1403" x1="603.47" y1="444.812" x2="603.47" y2="-545.87" gradientUnits="userSpaceOnUse">
<stop stop-color="#83A4D4"/>
<stop offset="0.95" stop-color="#B4F7FD"/>
<stop offset="1" stop-color="#B6FBFF"/>
</linearGradient>
<linearGradient id="paint9_linear_26_1403" x1="603.47" y1="462.922" x2="603.47" y2="-564.04" gradientUnits="userSpaceOnUse">
<stop stop-color="#83A4D4"/>
<stop offset="0.95" stop-color="#B4F7FD"/>
<stop offset="1" stop-color="#B6FBFF"/>
</linearGradient>
<linearGradient id="paint10_linear_26_1403" x1="603.47" y1="479.667" x2="603.47" y2="-580.785" gradientUnits="userSpaceOnUse">
<stop stop-color="#83A4D4"/>
<stop offset="0.95" stop-color="#B4F7FD"/>
<stop offset="1" stop-color="#B6FBFF"/>
</linearGradient>
<linearGradient id="paint11_linear_26_1403" x1="603.47" y1="494.927" x2="603.47" y2="-596.045" gradientUnits="userSpaceOnUse">
<stop stop-color="#83A4D4"/>
<stop offset="0.95" stop-color="#B4F7FD"/>
<stop offset="1" stop-color="#B6FBFF"/>
</linearGradient>
<linearGradient id="paint12_linear_26_1403" x1="603.471" y1="508.584" x2="603.471" y2="-609.703" gradientUnits="userSpaceOnUse">
<stop stop-color="#83A4D4"/>
<stop offset="0.95" stop-color="#B4F7FD"/>
<stop offset="1" stop-color="#B6FBFF"/>
</linearGradient>
<linearGradient id="paint13_linear_26_1403" x1="603.47" y1="520.401" x2="603.47" y2="-621.52" gradientUnits="userSpaceOnUse">
<stop stop-color="#83A4D4"/>
<stop offset="0.95" stop-color="#B4F7FD"/>
<stop offset="1" stop-color="#B6FBFF"/>
</linearGradient>
<linearGradient id="paint14_linear_26_1403" x1="603.47" y1="530.377" x2="603.47" y2="-631.495" gradientUnits="userSpaceOnUse">
<stop stop-color="#83A4D4"/>
<stop offset="0.95" stop-color="#B4F7FD"/>
<stop offset="1" stop-color="#B6FBFF"/>
</linearGradient>
<linearGradient id="paint15_linear_26_1403" x1="603.47" y1="538.452" x2="603.47" y2="-639.571" gradientUnits="userSpaceOnUse">
<stop stop-color="#83A4D4"/>
<stop offset="0.95" stop-color="#B4F7FD"/>
<stop offset="1" stop-color="#B6FBFF"/>
</linearGradient>
<linearGradient id="paint16_linear_26_1403" x1="603.47" y1="544.628" x2="603.47" y2="-645.746" gradientUnits="userSpaceOnUse">
<stop stop-color="#83A4D4"/>
<stop offset="0.95" stop-color="#B4F7FD"/>
<stop offset="1" stop-color="#B6FBFF"/>
</linearGradient>
<linearGradient id="paint17_linear_26_1403" x1="603.47" y1="548.962" x2="603.47" y2="-650.021" gradientUnits="userSpaceOnUse">
<stop stop-color="#83A4D4"/>
<stop offset="0.95" stop-color="#B4F7FD"/>
<stop offset="1" stop-color="#B6FBFF"/>
</linearGradient>
<linearGradient id="paint18_linear_26_1403" x1="603.47" y1="551.278" x2="603.47" y2="-652.397" gradientUnits="userSpaceOnUse">
<stop stop-color="#83A4D4"/>
<stop offset="0.95" stop-color="#B4F7FD"/>
<stop offset="1" stop-color="#B6FBFF"/>
</linearGradient>
<linearGradient id="paint19_linear_26_1403" x1="603.47" y1="552.584" x2="603.47" y2="-653.763" gradientUnits="userSpaceOnUse">
<stop stop-color="#83A4D4"/>
<stop offset="0.95" stop-color="#B4F7FD"/>
<stop offset="1" stop-color="#B6FBFF"/>
</linearGradient>
<linearGradient id="paint20_linear_26_1403" x1="603.471" y1="552.94" x2="603.471" y2="-654.06" gradientUnits="userSpaceOnUse">
<stop stop-color="#83A4D4"/>
<stop offset="0.95" stop-color="#B4F7FD"/>
<stop offset="1" stop-color="#B6FBFF"/>
</linearGradient>
<clipPath id="clip0_26_1403">
<rect width="1207" height="1207" fill="white" transform="matrix(0 -1 1 0 0 553)"/>
</clipPath>
</defs>
</svg>
