<svg width="192" height="394" viewBox="0 0 192 394" fill="none" xmlns="http://www.w3.org/2000/svg">
<g opacity="0.3" clip-path="url(#clip0_37_5270)">
<path d="M468.293 424.697C468.293 436.179 465.076 445.359 458.641 451.587C442.761 467.143 408.816 463.719 365.219 442.437C280.15 400.906 181.443 303.41 145.196 225.1C128.666 189.384 127.279 162.11 141.359 148.355C157.151 132.888 191.184 136.223 234.781 157.505C319.85 199.066 418.527 296.532 454.774 374.812C463.777 394.205 468.293 411.06 468.293 424.697ZM145.993 224.775L146.79 224.392C183.008 302.376 281.242 399.459 366.016 440.872C408.904 461.8 442.229 465.253 457.52 450.347C470.979 437.123 469.504 410.558 453.269 375.55C417.169 297.595 318.847 200.482 234.102 159.099C191.214 138.142 157.888 134.688 142.598 149.624C129.109 162.818 130.614 189.384 146.819 224.392L145.993 224.775Z" fill="url(#paint0_linear_37_5270)"/>
<path d="M470.566 432.931C470.566 446.332 466.729 456.752 459.025 463.482C441.049 479.244 403.916 473.459 357.19 447.602C269.021 398.809 171.378 292.989 139.558 211.964C125.567 176.307 126.069 149.505 140.946 136.459C158.951 120.696 196.055 126.482 242.81 152.339C330.979 201.161 428.593 306.863 460.471 388.006C467.201 405.156 470.566 420.386 470.566 432.931ZM131.116 167.009C131.116 179.288 134.481 194.254 141.152 211.285C172.883 292.104 270.143 397.245 358.016 446.037C404.064 471.511 440.458 477.385 457.844 462.124C472.131 449.609 472.455 423.515 458.759 388.596C427.087 307.748 329.827 202.519 242.043 153.903C195.995 128.4 159.601 122.526 142.215 137.787C134.806 144.192 131.146 154.258 131.146 167.009H131.116Z" fill="url(#paint1_linear_37_5270)"/>
<path d="M472.278 440.577C472.278 456.339 467.644 468.323 458.435 475.525C437.979 491.494 397.747 482.964 347.98 452.118C257.126 395.828 161.431 282.009 134.658 198.416C123.353 162.995 125.803 136.902 141.506 124.623C161.932 108.683 202.194 117.214 251.96 148.03C342.785 204.32 438.481 318.139 465.283 401.732C469.58 414.248 471.939 427.348 472.278 440.577ZM129.404 159.453C129.75 172.525 132.099 185.466 136.37 197.826C162.936 281.094 258.395 394.471 348.896 450.583C398.012 480.986 437.448 489.546 457.342 474.197C472.455 462.39 474.669 436.858 463.6 402.293C437.034 319.054 341.575 205.648 251.075 149.565C201.987 119.132 162.523 110.572 142.658 125.951C133.832 132.769 129.404 144.252 129.404 159.453Z" fill="url(#paint2_linear_37_5270)"/>
<path d="M473.666 447.543C473.666 466.08 467.998 479.628 456.811 487.362C433.64 503.36 390.22 491.819 337.649 455.66C244.64 391.666 151.69 269.936 130.703 184.336C122.025 148.915 126.334 124.239 143.189 112.579C166.36 96.5809 209.78 108.122 262.351 144.281C355.36 208.275 448.31 330.004 469.297 415.634C472.023 426.058 473.49 436.77 473.666 447.543ZM128.076 152.369C128.267 162.973 129.723 173.517 132.415 183.775C153.49 269.169 245.939 390.397 338.653 454.214C390.574 489.93 433.286 501.441 455.807 485.915C472.013 474.699 476.086 450.494 467.614 416.048C446.628 330.772 354.091 209.426 261.376 145.727C209.573 109.982 166.714 98.4699 144.192 114.026C133.507 121.434 128.076 134.452 128.076 152.398V152.369Z" fill="url(#paint3_linear_37_5270)"/>
<path d="M474.374 453.062C474.374 475.259 467.496 491.022 454.007 499.198C427.796 515.049 381.188 500.172 326.108 458.375C231.446 386.53 142.451 257.155 127.722 170.02C121.818 135.485 128.194 111.546 145.993 100.743C172.204 84.8919 218.812 99.7687 273.892 141.565C368.554 213.293 457.52 342.785 472.278 429.921C473.621 437.563 474.322 445.303 474.374 453.062ZM127.368 146.849C127.419 154.52 128.12 162.172 129.463 169.725C144.222 256.506 232.774 385.202 327.23 456.988C380.774 497.722 428.002 512.924 453.092 497.693C470.212 487.302 476.234 463.984 470.537 430.216C455.778 343.464 367.226 214.591 272.77 142.982C219.108 102.248 172.027 86.8991 146.849 102.248C133.979 109.982 127.368 125.331 127.368 146.849Z" fill="url(#paint4_linear_37_5270)"/>
<path d="M474.728 457.018C474.728 483.82 466.257 502.327 449.874 510.858C420.741 526.089 369.705 507.079 313.327 460.058C217.632 380.361 133.507 243.607 125.833 155.498C122.881 121.878 131.293 98.913 150.096 89.0837C179.259 73.8822 230.295 92.862 286.643 139.883C382.368 219.58 466.463 356.334 474.167 444.444C474.551 448.812 474.728 453.004 474.728 457.018ZM127.574 155.439C135.249 243.135 219.078 379.24 314.478 458.819C370.266 505.367 420.741 524.259 449.077 509.382C467.201 499.907 475.289 477.533 472.396 444.68C464.751 356.984 380.892 220.879 285.522 141.329C229.734 94.7806 179.407 75.8599 150.922 90.7367C132.799 100.212 124.711 122.586 127.574 155.439Z" fill="url(#paint5_linear_37_5270)"/>
<path d="M474.817 459.025C474.817 491.494 464.279 513.455 444.355 522.222C411.531 536.656 357.338 513.632 299.365 460.59C203.316 372.746 125.213 229.321 125.213 140.857C125.213 108.388 135.75 86.4272 155.675 77.631C188.498 63.197 242.692 86.2206 300.664 139.263C396.684 227.166 474.817 370.562 474.817 459.025ZM126.925 140.916C126.925 228.937 204.792 371.772 300.546 459.35C357.987 511.891 411.502 534.826 443.646 520.657C462.862 512.186 473.164 490.904 473.164 459.084C473.164 371.063 395.297 228.229 299.572 140.651C242.043 88.0506 188.498 65.1157 156.442 79.284C137.197 87.7555 126.925 109.067 126.925 140.887V140.916Z" fill="url(#paint6_linear_37_5270)"/>
<path d="M474.817 458.937C474.817 464.043 474.61 468.943 474.138 473.696C471.186 505.102 458.376 525.705 437.182 533.321C400.374 546.545 343.169 519.123 284.164 459.97C188.469 364.068 117.45 214.326 125.833 126.217C128.784 94.8104 141.625 74.1777 162.788 66.5622C199.626 53.3975 256.801 80.8191 315.836 139.942C406.366 230.679 474.817 369.588 474.817 458.937ZM126.925 141.094C126.925 229.971 195.169 368.378 285.404 458.76C343.937 517.411 400.522 544.655 436.592 531.697C457.077 524.347 469.474 504.217 472.396 473.548C480.75 385.881 409.967 236.789 314.596 141.182C256.063 82.5312 199.479 55.2866 163.408 68.2448C142.746 75.6241 130.526 95.7254 127.604 126.394C127.131 131.117 126.925 136.017 126.925 141.094Z" fill="url(#paint7_linear_37_5270)"/>
<path d="M474.964 456.368C475.021 467.065 474.032 477.742 472.013 488.247C466.109 518.414 450.819 537.689 428.209 543.946C387.062 555.34 327.082 523.284 267.752 458.051C173.297 354.15 110.484 198.77 127.928 111.694C133.832 81.527 149.122 62.2521 171.732 55.9944C212.879 44.6007 272.859 76.6566 332.189 141.89C416.195 233.955 474.935 366.783 474.964 456.368ZM126.925 143.691C126.925 232.804 185.605 365.071 269.228 456.87C328.086 521.543 387.298 553.481 427.914 542.264C449.697 536.183 464.397 517.322 470.301 487.804C472.319 477.389 473.308 466.8 473.252 456.191C473.252 367.078 414.601 234.811 330.978 142.982C272.121 78.3095 212.909 46.4012 172.293 57.6179C150.362 63.6689 135.662 82.4715 129.729 111.959C127.753 122.418 126.814 133.047 126.925 143.691Z" fill="url(#paint8_linear_37_5270)"/>
<path d="M475.466 450.908C475.747 468.386 473.358 485.805 468.382 502.563C459.143 531.49 441.462 549.259 417.199 553.953C371.476 562.808 309.047 525.734 250.219 454.686C157.652 342.933 104.462 182.683 131.618 97.5253C140.827 68.6278 158.538 50.8583 182.801 46.1355C228.524 37.2803 290.953 74.3837 349.781 145.402C425.936 237.261 475.466 362.09 475.466 450.908ZM126.275 149.151C126.275 237.526 175.628 361.854 251.577 453.535C309.933 524.081 371.919 560.948 416.874 552.211C440.488 547.636 457.697 530.28 466.699 502.032C493.678 417.287 440.636 257.775 348.423 146.436C290.008 75.9186 228.228 39.0218 183.126 47.7885C159.512 52.3636 142.303 69.7199 133.3 97.968C128.369 114.572 126 131.832 126.275 149.151Z" fill="url(#paint9_linear_37_5270)"/>
<path d="M476.676 442.201C476.676 470.685 472.308 496.07 463.039 516.466C450.494 544.095 430.009 560.211 403.798 563.074C353.323 568.594 288.916 526.178 231.534 449.757C141.89 330.359 99.4736 166.065 136.961 83.4167C149.506 55.7885 169.991 39.672 196.173 36.8088C246.677 31.2891 311.084 73.6465 368.466 150.126C435.972 240.095 476.676 355.449 476.676 442.201ZM125.036 157.83C125.036 244.139 165.652 359.08 232.922 448.724C289.949 524.672 353.766 566.794 403.621 561.333C429.183 558.529 449.166 542.766 461.445 515.728C498.696 433.7 456.368 270.173 366.99 151.248C309.962 75.2699 246.145 33.1782 196.291 38.6094C170.729 41.5611 150.745 57.1758 138.466 84.2137C129.375 104.433 125.036 129.611 125.036 157.83Z" fill="url(#paint10_linear_37_5270)"/>
<path d="M479.008 430.098C479.008 469.681 471.599 504.393 455.955 529.896C439.809 556.226 416.195 570.453 387.711 571.132C332.513 572.342 266.69 524.553 211.728 443.263C125.98 316.603 95.6068 149.063 144.045 70.0742C160.191 43.7151 183.775 29.4583 212.289 28.7498C267.487 27.5101 333.31 75.2987 388.242 156.59C446.332 242.544 479.008 347.036 479.008 430.098ZM122.704 169.902C122.704 252.551 155.173 356.659 213.204 442.259C267.841 523.078 333.074 570.453 387.681 569.361C415.546 568.741 438.628 554.779 454.45 528.952C502.563 450.494 472.16 283.957 386.796 157.682C332.13 76.8632 266.926 29.3697 212.319 30.5799C184.454 31.1998 161.372 45.3386 145.55 70.9892C130.054 96.2561 122.704 130.644 122.704 169.902Z" fill="url(#paint11_linear_37_5270)"/>
<path d="M482.816 414.749C482.816 467.113 471.186 512.599 447.011 542.618C426.88 567.649 399.784 579.781 368.525 577.685C308.899 573.7 242.515 520.274 190.948 435.057C110.07 301.255 93.0683 131.825 152.989 57.2343C173.119 32.2036 200.216 20.0719 231.475 22.1677C291.1 26.182 357.485 79.4904 409.052 164.825C457.313 244.729 482.816 337.266 482.816 414.749ZM118.867 185.192C118.867 262.321 144.34 354.533 192.453 434.142C243.725 518.975 309.578 571.959 368.643 575.825C399.252 577.892 425.877 565.996 445.624 541.438C505.131 467.467 488.07 298.923 407.547 165.711C356.275 80.9073 290.422 27.894 231.357 24.0273C200.748 21.9611 174.123 33.8566 154.346 58.415C130.408 88.1685 118.867 133.271 118.867 185.192Z" fill="url(#paint12_linear_37_5270)"/>
<path d="M488.572 396.861C488.572 463.334 471.157 520.834 436.119 554.543C411.472 578.157 380.272 587.78 345.914 582.289C282.393 572.165 216.333 513.396 169.194 425.05C94.4556 284.725 91.9171 114.409 163.88 45.3975C175.595 33.887 189.904 25.3586 205.601 20.5302C221.299 15.7017 237.927 14.7144 254.086 17.6512C317.607 27.7756 383.726 86.5743 430.954 174.92C469.326 246.913 488.572 326.816 488.572 396.861ZM113.14 203.02C113.14 272.77 132.415 352.408 170.758 424.224C217.632 512.067 283.367 570.453 346.209 580.548C362.098 583.437 378.448 582.467 393.883 577.721C409.319 572.975 423.389 564.591 434.909 553.274C506.312 484.793 503.803 315.423 429.242 175.717C382.368 87.873 316.781 29.4286 253.79 19.2747C237.902 16.3831 221.552 17.3513 206.115 22.0977C190.679 26.8441 176.61 35.2297 165.091 46.5487C130.378 79.9624 113.14 137.079 113.14 203.02Z" fill="url(#paint13_linear_37_5270)"/>
<path d="M496.571 377.557C496.571 458.995 471.481 529.748 423.191 565.465C393.349 587.544 357.515 594.096 319.585 584.385C253.053 567.413 188.38 503.419 146.583 413.184C78.6934 266.808 92.3304 96.935 176.809 34.4467C206.622 12.3972 242.485 5.87384 280.415 15.5261C346.947 32.5281 411.62 96.5218 453.387 186.727C481.286 246.509 496.013 311.588 496.571 377.557ZM105.141 222.148C105.702 287.939 120.378 352.844 148.177 412.476C189.767 502.179 253.997 565.819 320.028 582.703C357.426 592.237 392.729 585.654 422.158 564.048C505.987 502.061 519.27 333.133 451.675 187.494C410.115 97.7615 345.885 34.004 279.854 17.238C242.456 7.70398 207.153 14.1387 177.724 35.893C130.024 71.2844 105.141 141.477 105.141 222.148Z" fill="url(#paint14_linear_37_5270)"/>
<path d="M507.109 358.252C507.109 454.863 471.924 539.282 408.166 575.205C372.303 595.424 331.215 598.229 289.27 583.352C220.938 559.03 158.833 490.284 123.147 399.429C63.6691 247.68 94.4557 79.6081 191.863 24.7353C227.756 4.51587 268.844 1.71173 310.671 16.5885C379.033 40.9108 441.137 109.657 476.824 200.511C496.608 250.76 506.878 304.249 507.109 358.252ZM94.6033 241.6C94.8514 295.419 105.121 348.721 124.888 398.78C160.309 489.162 222.089 557.554 289.949 581.787C331.274 596.546 371.89 593.594 407.31 573.759C503.95 519.299 534.235 352.201 475.2 201.249C439.78 110.867 378 42.5048 310.11 18.2415C268.785 3.48279 228.199 6.43451 192.778 26.2702C129.493 61.8977 94.6033 145.668 94.6033 241.6Z" fill="url(#paint15_linear_37_5270)"/>
<path d="M520.362 340.218C520.362 451.735 472.249 549.555 391.017 583.441C348.128 601.476 301.077 599.735 255.266 578.512C186.52 546.84 128.194 473.932 99.267 383.668C49.0874 227.225 98.352 62.5184 208.983 16.3532C251.872 -1.5343 298.805 0.207214 344.763 21.4302C413.509 53.1614 471.688 126.01 500.763 216.245C513.647 256.312 520.258 298.13 520.362 340.218ZM81.3795 259.518C81.4757 301.487 88.0774 343.189 100.949 383.136C129.877 473.046 187.701 545.393 256.004 576.918C301.461 597.934 347.922 599.676 390.338 581.965C470.891 548.345 518.621 451.203 518.621 340.425C518.524 298.464 511.922 256.773 499.051 216.835C470.271 127.014 412.299 54.4897 343.996 23.0241C298.509 2.03723 252.079 0.295776 209.662 17.9767C129.08 51.597 81.3795 148.739 81.3795 259.518Z" fill="url(#paint16_linear_37_5270)"/>
<path d="M536.331 325.016C536.331 450.849 472.072 561.155 371.624 590.466C320.736 605.225 267.428 598.052 217.514 569.332C148.945 529.867 96.9352 455.719 74.7971 365.868C35.4209 205.707 104.196 45.8408 228.347 9.62292C279.264 -5.28333 332.572 2.00745 382.486 30.7574C451.055 70.1926 503.065 144.34 525.203 234.191C532.559 263.907 536.296 294.403 536.331 325.016ZM65.4106 274.837C65.4413 305.36 69.1679 335.768 76.5091 365.396C98.5291 454.834 150.244 528.568 218.429 567.797C267.87 596.281 320.706 603.542 371.152 588.754C470.802 559.591 534.59 450.022 534.59 325.046C534.559 294.532 530.833 264.134 523.491 234.516C501.471 145.108 449.697 71.3734 381.601 32.1447C332.1 3.66046 279.294 -3.57135 228.848 11.1874C129.198 40.3505 65.4106 149.86 65.4106 274.896V274.837Z" fill="url(#paint17_linear_37_5270)"/>
<path d="M554.927 312.914C554.927 452.384 471.068 573.405 350.017 595.602C290.982 606.494 229.262 592.178 176.544 555.311C110.838 509.323 64.7021 433.02 49.9729 346.121C22.4037 183.126 111.959 29.8424 249.983 4.487C309.018 -6.43445 370.738 7.88153 423.456 44.7783C489.162 90.7664 535.298 167.039 550.027 254.086C553.3 273.524 554.939 293.202 554.927 312.914ZM46.7555 287.086C46.7547 306.761 48.4135 326.401 51.7145 345.797C66.4732 432.371 112.225 508.142 177.547 553.953C229.881 590.466 291.012 604.664 349.693 593.861C469.917 571.723 553.362 451.587 553.362 312.944C553.361 293.269 551.702 273.63 548.404 254.234C533.645 167.689 487.893 91.888 422.541 46.077C370.237 9.47546 309.106 -4.72241 250.426 6.08093C130.083 28.219 46.7555 148.355 46.7555 287.086Z" fill="url(#paint18_linear_37_5270)"/>
<path d="M576.268 304.531C576.268 457.166 468.943 586.334 326.138 598.82C174.507 612.102 39.4057 488.838 25.0602 324.042C18.0941 244.345 40.1141 166.685 87.0468 105.613C133.979 44.5419 200.394 7.46808 273.892 1.03333C347.39 -5.40149 419.147 19.7473 475.997 71.6094C532.848 123.471 568.033 196.055 575.028 275.84C575.855 285.522 576.268 295.086 576.268 304.531ZM25.4735 295.115C25.4735 304.639 25.8966 314.233 26.7427 323.895C41.0587 487.805 175.304 610.272 325.99 597.019C467.88 584.592 574.497 456.191 574.497 304.472C574.497 295.056 574.113 285.581 573.257 276.017C566.321 196.645 531.343 124.505 474.817 72.9081C418.291 21.3118 346.977 -3.57141 274.098 2.80438C201.22 9.18011 135.101 46.1654 88.5522 106.765C47.2716 160.843 25.0878 227.083 25.4735 295.115Z" fill="url(#paint19_linear_37_5270)"/>
<path d="M600 299.985C600 359.322 582.405 417.327 549.439 466.664C516.473 516.002 469.617 554.455 414.796 577.163C359.976 599.87 299.653 605.811 241.456 594.235C183.258 582.659 129.801 554.085 87.843 512.128C45.8852 470.17 17.3116 416.712 5.73542 358.515C-5.84072 300.318 0.100572 239.995 22.808 185.174C45.5154 130.354 83.969 83.498 133.306 50.532C182.643 17.5659 240.648 -0.0296631 299.985 -0.0296631C379.528 0.0562744 455.788 31.6925 512.033 87.9376C568.278 144.183 599.914 220.443 600 299.985ZM1.77128 299.985C1.77128 358.949 19.256 416.588 52.0145 465.615C84.773 514.641 131.334 552.853 185.809 575.417C240.285 597.982 300.228 603.886 358.058 592.382C415.889 580.879 469.01 552.485 510.704 510.792C552.397 469.098 580.791 415.977 592.294 358.147C603.797 300.316 597.893 240.373 575.329 185.897C552.765 131.422 514.553 84.8612 465.527 52.1027C416.5 19.3442 358.861 1.85944 299.897 1.85944C220.863 1.96881 145.097 33.4135 89.211 89.2992C33.3253 145.185 1.8806 220.951 1.77128 299.985Z" fill="url(#paint20_linear_37_5270)"/>
</g>
<defs>
<linearGradient id="paint0_linear_37_5270" x1="299.985" y1="461.21" x2="299.985" y2="138.762" gradientUnits="userSpaceOnUse">
<stop stop-color="#83A4D4"/>
<stop offset="0.95" stop-color="#B4F7FD"/>
<stop offset="1" stop-color="#B6FBFF"/>
</linearGradient>
<linearGradient id="paint1_linear_37_5270" x1="299.985" y1="472.219" x2="299.985" y2="127.751" gradientUnits="userSpaceOnUse">
<stop stop-color="#83A4D4"/>
<stop offset="0.95" stop-color="#B4F7FD"/>
<stop offset="1" stop-color="#B6FBFF"/>
</linearGradient>
<linearGradient id="paint2_linear_37_5270" x1="299.985" y1="483.318" x2="299.985" y2="116.623" gradientUnits="userSpaceOnUse">
<stop stop-color="#83A4D4"/>
<stop offset="0.95" stop-color="#B4F7FD"/>
<stop offset="1" stop-color="#B6FBFF"/>
</linearGradient>
<linearGradient id="paint3_linear_37_5270" x1="299.985" y1="494.416" x2="299.985" y2="105.554" gradientUnits="userSpaceOnUse">
<stop stop-color="#83A4D4"/>
<stop offset="0.95" stop-color="#B4F7FD"/>
<stop offset="1" stop-color="#B6FBFF"/>
</linearGradient>
<linearGradient id="paint4_linear_37_5270" x1="299.985" y1="505.397" x2="299.985" y2="94.5441" gradientUnits="userSpaceOnUse">
<stop stop-color="#83A4D4"/>
<stop offset="0.95" stop-color="#B4F7FD"/>
<stop offset="1" stop-color="#B6FBFF"/>
</linearGradient>
<linearGradient id="paint5_linear_37_5270" x1="299.985" y1="515.994" x2="299.985" y2="83.9476" gradientUnits="userSpaceOnUse">
<stop stop-color="#83A4D4"/>
<stop offset="0.95" stop-color="#B4F7FD"/>
<stop offset="1" stop-color="#B6FBFF"/>
</linearGradient>
<linearGradient id="paint6_linear_37_5270" x1="299.985" y1="526.502" x2="299.985" y2="73.4395" gradientUnits="userSpaceOnUse">
<stop stop-color="#83A4D4"/>
<stop offset="0.95" stop-color="#B4F7FD"/>
<stop offset="1" stop-color="#B6FBFF"/>
</linearGradient>
<linearGradient id="paint7_linear_37_5270" x1="299.985" y1="536.597" x2="299.985" y2="63.3448" gradientUnits="userSpaceOnUse">
<stop stop-color="#83A4D4"/>
<stop offset="0.95" stop-color="#B4F7FD"/>
<stop offset="1" stop-color="#B6FBFF"/>
</linearGradient>
<linearGradient id="paint8_linear_37_5270" x1="299.985" y1="546.219" x2="299.985" y2="53.7512" gradientUnits="userSpaceOnUse">
<stop stop-color="#83A4D4"/>
<stop offset="0.95" stop-color="#B4F7FD"/>
<stop offset="1" stop-color="#B6FBFF"/>
</linearGradient>
<linearGradient id="paint9_linear_37_5270" x1="299.985" y1="555.222" x2="299.985" y2="44.7187" gradientUnits="userSpaceOnUse">
<stop stop-color="#83A4D4"/>
<stop offset="0.95" stop-color="#B4F7FD"/>
<stop offset="1" stop-color="#B6FBFF"/>
</linearGradient>
<linearGradient id="paint10_linear_37_5270" x1="299.985" y1="563.547" x2="299.985" y2="36.3956" gradientUnits="userSpaceOnUse">
<stop stop-color="#83A4D4"/>
<stop offset="0.95" stop-color="#B4F7FD"/>
<stop offset="1" stop-color="#B6FBFF"/>
</linearGradient>
<linearGradient id="paint11_linear_37_5270" x1="299.985" y1="571.132" x2="299.985" y2="28.8089" gradientUnits="userSpaceOnUse">
<stop stop-color="#83A4D4"/>
<stop offset="0.95" stop-color="#B4F7FD"/>
<stop offset="1" stop-color="#B6FBFF"/>
</linearGradient>
<linearGradient id="paint12_linear_37_5270" x1="299.985" y1="577.921" x2="299.985" y2="22.0201" gradientUnits="userSpaceOnUse">
<stop stop-color="#83A4D4"/>
<stop offset="0.95" stop-color="#B4F7FD"/>
<stop offset="1" stop-color="#B6FBFF"/>
</linearGradient>
<linearGradient id="paint13_linear_37_5270" x1="299.985" y1="583.795" x2="299.985" y2="16.1457" gradientUnits="userSpaceOnUse">
<stop stop-color="#83A4D4"/>
<stop offset="0.95" stop-color="#B4F7FD"/>
<stop offset="1" stop-color="#B6FBFF"/>
</linearGradient>
<linearGradient id="paint14_linear_37_5270" x1="299.985" y1="588.754" x2="299.985" y2="11.187" gradientUnits="userSpaceOnUse">
<stop stop-color="#83A4D4"/>
<stop offset="0.95" stop-color="#B4F7FD"/>
<stop offset="1" stop-color="#B6FBFF"/>
</linearGradient>
<linearGradient id="paint15_linear_37_5270" x1="299.985" y1="592.768" x2="299.985" y2="7.17243" gradientUnits="userSpaceOnUse">
<stop stop-color="#83A4D4"/>
<stop offset="0.95" stop-color="#B4F7FD"/>
<stop offset="1" stop-color="#B6FBFF"/>
</linearGradient>
<linearGradient id="paint16_linear_37_5270" x1="299.985" y1="595.839" x2="299.985" y2="4.10349" gradientUnits="userSpaceOnUse">
<stop stop-color="#83A4D4"/>
<stop offset="0.95" stop-color="#B4F7FD"/>
<stop offset="1" stop-color="#B6FBFF"/>
</linearGradient>
<linearGradient id="paint17_linear_37_5270" x1="299.985" y1="597.993" x2="299.985" y2="1.97799" gradientUnits="userSpaceOnUse">
<stop stop-color="#83A4D4"/>
<stop offset="0.95" stop-color="#B4F7FD"/>
<stop offset="1" stop-color="#B6FBFF"/>
</linearGradient>
<linearGradient id="paint18_linear_37_5270" x1="299.985" y1="599.144" x2="299.985" y2="0.797294" gradientUnits="userSpaceOnUse">
<stop stop-color="#83A4D4"/>
<stop offset="0.95" stop-color="#B4F7FD"/>
<stop offset="1" stop-color="#B6FBFF"/>
</linearGradient>
<linearGradient id="paint19_linear_37_5270" x1="299.985" y1="599.794" x2="299.985" y2="0.118212" gradientUnits="userSpaceOnUse">
<stop stop-color="#83A4D4"/>
<stop offset="0.95" stop-color="#B4F7FD"/>
<stop offset="1" stop-color="#B6FBFF"/>
</linearGradient>
<linearGradient id="paint20_linear_37_5270" x1="299.985" y1="599.97" x2="299.985" y2="-0.0296323" gradientUnits="userSpaceOnUse">
<stop stop-color="#83A4D4"/>
<stop offset="0.95" stop-color="#B4F7FD"/>
<stop offset="1" stop-color="#B6FBFF"/>
</linearGradient>
<clipPath id="clip0_37_5270">
<rect width="600" height="600" fill="white" transform="matrix(0 -1 1 0 0 600)"/>
</clipPath>
</defs>
</svg>
