<svg width="326" height="620" viewBox="0 0 326 620" fill="none" xmlns="http://www.w3.org/2000/svg">
<g opacity="0.3" clip-path="url(#clip0_26_1427)">
<path d="M60.4501 776.348C60.4501 799.446 53.9778 817.913 41.0331 830.442C9.08716 861.735 -59.1989 854.847 -146.902 812.035C-318.033 728.488 -516.597 532.359 -589.514 374.826C-622.766 302.977 -625.557 248.111 -597.233 220.44C-565.466 189.326 -497.001 196.035 -409.298 238.848C-238.168 322.454 -39.6631 518.523 33.2545 675.997C51.3651 715.009 60.4501 748.915 60.4501 776.348ZM-587.911 374.173L-586.308 373.401C-513.449 530.281 -315.836 725.579 -145.299 808.888C-59.0208 850.987 8.01831 857.935 38.7767 827.948C65.8536 801.346 62.8846 747.905 30.2261 677.481C-42.3946 520.661 -240.187 325.304 -410.664 242.054C-496.942 199.895 -563.981 192.948 -594.739 222.993C-621.876 249.536 -618.847 302.977 -586.248 373.401L-587.911 374.173Z" fill="url(#paint0_linear_26_1427)"/>
<path d="M65.0223 792.914C65.0223 819.872 57.303 840.833 41.805 854.372C5.64313 886.08 -69.0558 874.442 -163.053 822.426C-340.419 724.272 -536.845 511.398 -600.856 348.402C-629.001 276.672 -627.992 222.756 -598.065 196.51C-561.843 164.802 -487.204 176.44 -393.147 228.456C-215.782 326.669 -19.4149 539.306 44.7146 702.539C58.2531 737.039 65.0223 767.678 65.0223 792.914ZM-617.838 257.968C-617.838 282.669 -611.069 312.775 -597.649 347.036C-533.816 509.616 -338.162 721.125 -161.39 819.279C-68.7589 870.523 4.45557 882.339 39.4299 851.64C68.1694 826.464 68.8225 773.972 41.2706 703.727C-22.4432 541.087 -218.098 329.401 -394.691 231.603C-487.323 180.3 -560.537 168.483 -595.511 199.182C-610.416 212.067 -617.779 232.316 -617.779 257.968H-617.838Z" fill="url(#paint1_linear_26_1427)"/>
<path d="M68.4662 808.294C68.4662 840.002 59.1437 864.11 40.6174 878.598C-0.532349 910.723 -81.4661 893.562 -181.579 831.511C-364.348 718.275 -556.856 489.309 -610.712 321.147C-633.455 249.892 -628.526 197.401 -596.937 172.699C-555.846 140.634 -474.853 157.795 -374.74 219.787C-192.03 333.023 0.477112 561.989 54.3934 730.151C63.038 755.329 67.7838 781.681 68.4662 808.294ZM-621.282 242.766C-620.586 269.063 -615.86 295.097 -607.268 319.959C-553.827 487.468 -361.795 715.543 -179.739 828.423C-80.9317 889.584 -1.60114 906.804 38.4204 875.926C68.8225 852.175 73.2759 800.812 51.0087 731.279C-2.4325 563.83 -194.465 335.695 -376.521 222.875C-475.269 161.655 -554.659 144.435 -594.621 175.371C-612.375 189.088 -621.282 212.186 -621.282 242.766Z" fill="url(#paint2_linear_26_1427)"/>
<path d="M71.2571 822.307C71.2571 859.597 59.8563 886.852 37.3516 902.41C-9.26099 934.593 -96.6077 911.376 -202.362 838.636C-389.466 709.902 -576.451 465.023 -618.669 292.823C-636.127 221.568 -627.457 171.927 -593.552 148.473C-546.939 116.289 -459.592 139.506 -353.838 212.246C-166.734 340.98 20.2505 585.859 62.4691 758.118C67.9529 779.086 70.9034 800.636 71.2571 822.307ZM-623.954 228.516C-623.57 249.848 -620.64 271.058 -615.225 291.695C-572.829 463.479 -386.853 707.349 -200.343 835.727C-95.8951 907.576 -9.97351 930.733 35.3328 899.5C67.9319 876.936 76.1262 828.245 59.0844 758.95C16.8658 587.403 -169.288 343.295 -355.798 215.155C-460.008 143.247 -546.227 120.089 -591.533 151.382C-613.028 166.286 -623.954 192.472 -623.954 228.575V228.516Z" fill="url(#paint3_linear_26_1427)"/>
<path d="M72.6823 833.411C72.6823 878.064 58.8469 909.772 31.7106 926.22C-21.0181 958.107 -114.778 928.18 -225.579 844.099C-416.008 699.57 -595.036 439.311 -624.667 264.024C-636.542 194.55 -623.716 146.394 -587.911 124.661C-535.182 92.7744 -441.422 122.701 -330.621 206.782C-140.192 351.074 38.7768 611.57 68.4664 786.857C71.168 802.23 72.5782 817.802 72.6823 833.411ZM-625.379 217.411C-625.276 232.842 -623.866 248.237 -621.163 263.43C-591.474 438.005 -413.336 696.898 -223.323 841.308C-115.609 923.251 -20.6024 953.831 29.8699 923.192C64.3098 902.29 76.4232 855.381 64.963 787.451C35.2734 612.936 -142.864 353.686 -332.877 209.633C-440.829 127.689 -535.538 96.8122 -586.189 127.689C-612.078 143.247 -625.379 174.124 -625.379 217.411Z" fill="url(#paint4_linear_26_1427)"/>
<path d="M73.3947 841.367C73.3947 895.284 56.3529 932.514 23.3975 949.675C-35.2098 980.314 -137.876 942.074 -251.291 847.483C-443.798 687.16 -613.028 412.056 -628.467 234.809C-634.405 167.176 -617.482 120.979 -579.657 101.206C-520.991 70.6258 -418.324 108.807 -304.969 203.398C-112.403 363.721 56.7685 638.825 72.2665 816.072C73.0384 824.86 73.3947 833.292 73.3947 841.367ZM-624.963 234.69C-609.525 411.106 -440.888 684.903 -248.975 844.989C-136.748 938.63 -35.2098 976.633 21.7942 946.706C58.253 927.645 74.5228 882.636 68.7037 816.547C53.3245 640.131 -115.372 366.334 -307.226 206.307C-419.452 112.666 -520.694 74.6042 -577.995 104.531C-614.453 123.592 -630.723 168.601 -624.963 234.69Z" fill="url(#paint5_linear_26_1427)"/>
<path d="M73.5728 845.405C73.5728 910.722 52.3744 954.901 12.2935 972.536C-53.7361 1001.57 -162.756 955.257 -279.377 848.552C-472.597 671.84 -629.714 383.317 -629.714 205.358C-629.714 140.04 -608.515 95.8623 -568.435 78.1674C-502.405 49.1309 -393.385 95.4467 -276.764 202.151C-83.6038 378.982 73.5728 667.446 73.5728 845.405ZM-626.27 205.476C-626.27 382.545 -469.628 669.881 -277.002 846.059C-161.45 951.753 -53.7955 997.891 10.8684 969.389C49.5242 952.347 70.2476 909.535 70.2476 845.524C70.2476 668.456 -86.3947 381.12 -278.961 204.942C-394.691 99.1282 -502.405 52.9907 -566.891 81.4926C-605.606 98.5345 -626.27 141.406 -626.27 205.417V205.476Z" fill="url(#paint6_linear_26_1427)"/>
<path d="M73.5729 845.228C73.5729 855.5 73.1573 865.357 72.2073 874.917C66.2693 938.097 40.4988 979.543 -2.1355 994.863C-76.1813 1021.47 -191.258 966.302 -309.957 847.306C-502.464 654.383 -645.33 353.153 -628.467 175.906C-622.529 112.727 -596.699 71.2205 -554.124 55.9006C-480.019 29.4175 -365.001 84.5808 -246.243 203.517C-64.1273 386.049 73.5729 665.487 73.5729 845.228ZM-626.27 205.833C-626.27 384.624 -488.985 663.052 -307.463 844.871C-189.714 962.858 -75.8843 1017.66 -3.32306 991.597C37.8861 976.812 62.8253 936.315 68.7038 874.62C85.5081 698.264 -56.8831 398.34 -248.737 206.011C-366.486 88.0248 -480.316 33.2179 -552.877 59.2853C-594.443 74.1301 -619.025 114.567 -624.904 176.262C-625.854 185.763 -626.27 195.62 -626.27 205.833Z" fill="url(#paint7_linear_26_1427)"/>
<path d="M73.8697 840.062C73.9836 861.58 71.9949 883.059 67.9318 904.191C56.056 964.876 25.2976 1003.65 -20.1868 1016.24C-102.961 1039.16 -223.62 974.674 -342.972 843.446C-532.985 634.432 -659.344 321.86 -624.251 146.691C-612.375 86.0057 -581.617 47.2311 -536.132 34.6428C-453.358 11.7224 -332.699 76.2081 -213.347 207.436C-44.3542 392.64 73.8103 659.846 73.8697 840.062ZM-626.27 211.058C-626.27 390.324 -508.224 656.402 -340.003 841.071C-221.601 971.171 -102.486 1035.42 -20.7807 1012.85C23.0411 1000.62 52.6119 962.679 64.4878 903.3C68.5482 882.348 70.5371 861.047 70.4257 839.705C70.4257 660.44 -47.5607 394.362 -215.782 209.633C-334.184 79.5333 -453.298 15.3445 -535.004 37.9086C-579.123 50.0813 -608.694 87.9058 -620.629 147.226C-624.604 168.266 -626.494 189.647 -626.27 211.058Z" fill="url(#paint8_linear_26_1427)"/>
<path d="M74.8792 829.076C75.4435 864.237 70.6378 899.279 60.6282 932.99C42.0425 991.181 6.47443 1026.93 -42.3353 1036.37C-134.314 1054.18 -259.9 979.602 -378.243 836.677C-564.456 611.867 -671.457 289.498 -616.828 118.189C-598.302 60.0569 -562.675 24.3106 -513.865 14.8099C-421.887 -3.00378 -296.3 71.6359 -177.957 214.502C-24.759 399.29 74.8792 650.404 74.8792 829.076ZM-627.576 222.043C-627.576 399.824 -528.294 649.929 -375.512 834.361C-258.119 976.277 -133.423 1050.44 -42.9884 1032.87C4.51489 1023.66 39.133 988.747 57.2436 931.921C111.516 761.443 4.81183 440.559 -180.689 216.58C-298.2 74.7236 -422.481 0.499512 -513.212 18.1352C-560.715 27.3389 -595.333 62.2539 -613.444 119.08C-623.365 152.482 -628.13 187.203 -627.576 222.043Z" fill="url(#paint9_linear_26_1427)"/>
<path d="M77.3137 811.56C77.3137 868.861 68.5255 919.927 49.8805 960.958C24.6443 1016.54 -16.5648 1048.96 -69.2934 1054.72C-170.832 1065.82 -300.397 980.493 -415.83 826.761C-596.165 586.572 -681.492 256.068 -606.081 89.8061C-580.845 34.2272 -539.636 1.80627 -486.966 -3.95361C-385.369 -15.0575 -255.803 70.1516 -140.37 224.003C-4.57013 404.991 77.3137 637.044 77.3137 811.56ZM-630.07 239.501C-630.07 413.126 -548.364 644.348 -413.039 824.682C-298.319 977.465 -169.941 1062.2 -69.6497 1051.21C-18.2274 1045.57 21.9723 1013.86 46.674 959.473C121.611 794.458 36.4608 465.498 -143.339 226.259C-258.06 73.4174 -386.437 -11.2572 -486.729 -0.331421C-538.151 5.60645 -578.351 37.0181 -603.053 91.4094C-621.341 132.084 -630.07 182.734 -630.07 239.501Z" fill="url(#paint10_linear_26_1427)"/>
<path d="M82.0046 787.214C82.0046 866.841 67.1005 936.671 35.6295 987.975C3.14911 1040.94 -44.3542 1069.56 -101.655 1070.93C-212.694 1073.36 -345.11 977.227 -455.674 813.697C-628.17 558.901 -689.271 221.865 -591.83 62.9664C-559.35 9.9408 -511.906 -18.7393 -454.545 -20.1644C-343.506 -22.6583 -211.091 73.4765 -100.586 237.007C16.2719 409.919 82.0046 620.121 82.0046 787.214ZM-634.761 263.787C-634.761 430.048 -569.444 639.479 -452.705 811.678C-342.794 974.258 -211.566 1069.56 -101.714 1067.36C-45.6606 1066.12 0.773987 1038.03 32.6012 986.075C129.389 828.245 68.2286 493.228 -103.496 239.204C-213.466 76.6237 -344.635 -18.9174 -454.486 -16.4828C-510.54 -15.2358 -556.974 13.2067 -588.802 64.8071C-619.976 115.636 -634.761 184.812 -634.761 263.787Z" fill="url(#paint11_linear_26_1427)"/>
<path d="M89.6647 756.336C89.6647 861.675 66.2693 953.178 17.6378 1013.57C-22.8588 1063.92 -77.3689 1088.33 -140.251 1084.11C-260.197 1076.09 -393.741 968.617 -497.476 797.189C-660.175 528.024 -694.378 187.187 -573.838 37.1362C-533.341 -13.2173 -478.831 -37.6222 -415.949 -33.4062C-296.003 -25.3307 -162.459 81.908 -58.7238 253.573C38.3611 414.312 89.6647 600.466 89.6647 756.336ZM-642.48 294.545C-642.48 449.702 -591.236 635.203 -494.448 795.349C-391.307 966.004 -258.832 1072.59 -140.014 1080.37C-78.4377 1084.52 -24.8777 1060.6 14.8469 1011.19C134.555 862.388 100.234 523.333 -61.7521 255.355C-164.894 84.7582 -297.369 -21.8867 -416.186 -29.6654C-477.763 -33.8219 -531.323 -9.89209 -571.107 39.5114C-619.263 99.3655 -642.48 190.097 -642.48 294.545Z" fill="url(#paint12_linear_26_1427)"/>
<path d="M101.244 720.353C101.244 854.075 66.2098 969.745 -4.27319 1037.56C-53.8548 1085.06 -116.619 1104.42 -185.736 1093.37C-313.52 1073.01 -446.41 954.782 -541.239 777.06C-691.587 494.771 -696.693 152.154 -551.927 13.3253C-528.361 -9.83008 -499.577 -26.9862 -467.999 -36.6995C-436.42 -46.4127 -402.97 -48.399 -370.464 -42.4911C-242.68 -22.124 -109.671 96.1592 -14.6646 273.881C62.5283 418.707 101.244 579.446 101.244 720.353ZM-654 330.41C-654 470.723 -615.225 630.928 -538.092 775.397C-443.798 952.11 -311.56 1069.56 -185.142 1089.87C-153.18 1095.68 -120.289 1093.73 -89.238 1084.18C-58.1865 1074.64 -29.8826 1057.77 -6.70776 1035C136.93 897.243 131.883 556.526 -18.1086 275.484C-112.403 98.772 -244.343 -18.7987 -371.058 -39.2252C-403.02 -45.042 -435.912 -43.0944 -466.964 -33.5463C-498.017 -23.998 -526.32 -7.12878 -549.493 15.6411C-619.322 82.8583 -654 197.757 -654 330.41Z" fill="url(#paint13_linear_26_1427)"/>
<path d="M117.335 681.519C117.335 845.346 66.8629 987.678 -30.2814 1059.53C-90.3137 1103.94 -162.4 1117.12 -238.702 1097.59C-372.543 1063.45 -502.642 934.712 -586.723 753.189C-723.295 458.728 -695.862 117.001 -525.919 -8.70435C-465.946 -53.0607 -393.801 -66.1835 -317.498 -46.7665C-183.658 -12.5641 -53.5579 116.17 30.4636 297.633C86.586 417.894 116.212 548.811 117.335 681.519ZM-670.092 368.888C-668.963 501.238 -639.44 631.804 -583.517 751.764C-499.852 932.218 -370.643 1060.24 -237.811 1094.2C-162.578 1113.38 -91.5606 1100.14 -32.3596 1056.68C136.277 931.98 162.998 592.153 27.0195 299.176C-56.5863 118.664 -185.795 -9.59509 -318.626 -43.3225C-393.86 -62.502 -464.877 -49.5573 -524.078 -5.79492C-620.035 65.4008 -670.092 206.604 -670.092 368.888Z" fill="url(#paint14_linear_26_1427)"/>
<path d="M138.534 642.685C138.534 837.033 67.7537 1006.86 -60.5053 1079.12C-132.651 1119.8 -215.307 1125.44 -299.684 1095.51C-437.147 1046.58 -562.081 908.288 -633.87 725.519C-753.519 420.25 -691.587 82.1454 -495.636 -28.2404C-423.431 -68.9152 -340.775 -74.5562 -256.635 -44.629C-119.112 4.29944 5.82117 142.593 77.6105 325.362C117.411 426.446 138.069 534.049 138.534 642.685ZM-691.29 408.018C-690.791 516.285 -670.131 623.511 -630.367 724.212C-559.112 906.031 -434.831 1043.61 -298.319 1092.36C-215.188 1122.05 -133.482 1116.11 -62.2272 1076.21C132.18 966.657 193.103 630.512 74.3448 326.847C3.08978 145.028 -121.191 7.50586 -257.763 -41.3038C-340.894 -70.9934 -422.54 -65.0554 -493.795 -25.1527C-621.104 46.5179 -691.29 215.036 -691.29 408.018Z" fill="url(#paint15_linear_26_1427)"/>
<path d="M165.195 606.404C165.195 830.739 68.4068 1027.52 -95.0046 1095.69C-181.283 1131.97 -275.933 1128.47 -368.089 1085.77C-506.383 1022.06 -623.717 875.392 -681.908 693.811C-782.853 379.101 -683.749 47.7653 -461.196 -45.1036C-374.918 -81.0874 -280.505 -77.5841 -188.052 -34.8905C-49.7577 28.9421 67.2786 175.49 125.767 357.012C151.686 437.613 164.986 521.738 165.195 606.404ZM-717.892 444.062C-717.698 528.491 -704.418 612.381 -678.524 692.742C-620.332 873.611 -504.008 1019.15 -366.605 1082.57C-275.161 1124.84 -181.698 1128.35 -96.3703 1092.72C65.6754 1025.09 161.691 829.67 161.691 606.82C161.497 522.41 148.217 438.54 122.323 358.2C64.4284 177.509 -52.1923 31.6141 -189.596 -31.6841C-281.099 -73.9026 -374.502 -77.4059 -459.83 -41.8378C-621.935 25.795 -717.892 221.212 -717.892 444.062Z" fill="url(#paint16_linear_26_1427)"/>
<path d="M197.319 575.824C197.319 828.957 68.0505 1050.86 -134.017 1109.82C-236.386 1139.51 -343.625 1125.08 -444.035 1067.31C-581.973 987.915 -686.599 838.755 -731.133 658.005C-810.345 335.814 -671.992 14.2162 -422.243 -58.6421C-319.814 -88.6285 -212.575 -73.9618 -112.165 -16.1266C25.7726 63.204 130.399 212.364 174.933 393.115C189.731 452.893 197.248 514.241 197.319 575.824ZM-750.016 474.88C-749.954 536.283 -742.457 597.453 -727.689 657.055C-683.393 836.974 -579.36 985.303 -442.194 1064.22C-342.734 1121.52 -236.446 1136.13 -134.967 1106.38C65.4972 1047.71 193.816 827.295 193.816 575.884C193.755 514.499 186.258 453.349 171.489 393.768C127.192 213.908 23.0411 65.5791 -113.947 -13.3357C-213.525 -70.6366 -319.755 -85.1846 -421.234 -55.495C-621.698 3.17163 -750.016 223.468 -750.016 474.998V474.88Z" fill="url(#paint17_linear_26_1427)"/>
<path d="M234.728 551.478C234.728 832.045 66.0316 1075.5 -177.482 1120.15C-296.241 1142.06 -420.402 1113.26 -526.453 1039.1C-658.631 946.587 -751.441 793.092 -781.071 618.28C-836.531 290.388 -656.375 -17.9679 -378.718 -68.9746C-259.96 -90.9448 -135.798 -62.1459 -29.7469 12.078C102.431 104.591 195.241 258.026 224.871 433.135C231.455 472.239 234.753 511.825 234.728 551.478ZM-787.544 499.521C-787.545 539.1 -784.208 578.609 -777.568 617.627C-747.878 791.786 -655.841 944.212 -524.435 1036.37C-419.155 1109.82 -296.181 1138.38 -178.135 1116.65C63.7158 1072.11 231.581 830.441 231.581 551.538C231.578 511.959 228.24 472.451 221.605 433.432C191.915 259.333 99.8777 106.847 -31.5878 14.6907C-136.808 -58.9395 -259.782 -87.5009 -377.828 -65.7681C-619.916 -21.2336 -787.544 220.439 -787.544 499.521Z" fill="url(#paint18_linear_26_1427)"/>
<path d="M277.659 534.615C277.659 841.664 61.7563 1101.51 -225.52 1126.62C-530.551 1153.35 -802.329 905.378 -831.187 573.864C-845.201 413.54 -800.904 257.314 -706.491 134.458C-612.078 11.6029 -478.475 -62.9773 -330.621 -75.922C-182.767 -88.8667 -38.4163 -38.2756 75.9479 66.0536C190.312 170.383 261.092 316.396 275.165 476.898C276.828 496.374 277.659 515.613 277.659 534.615ZM-830.356 515.673C-830.356 534.832 -829.505 554.13 -827.803 573.567C-799.004 903.3 -528.947 1149.66 -225.817 1123C59.6187 1098 274.096 839.705 274.096 534.496C274.096 515.554 273.324 496.493 271.602 477.254C257.648 317.584 187.284 172.461 73.5728 68.6663C-40.1382 -35.1284 -183.598 -85.1851 -330.205 -72.3593C-476.812 -59.5333 -609.822 14.8688 -703.463 136.774C-786.505 245.562 -831.132 378.814 -830.356 515.673Z" fill="url(#paint19_linear_26_1427)"/>
<path d="M325.4 525.47C325.4 644.837 290.004 761.523 223.687 860.773C157.37 960.023 63.1121 1037.38 -47.1686 1083.06C-157.449 1128.74 -278.799 1140.69 -395.872 1117.4C-512.945 1094.12 -620.484 1036.64 -704.889 952.23C-789.294 867.825 -846.775 760.286 -870.062 643.213C-893.35 526.14 -881.398 404.79 -835.718 294.509C-790.038 184.229 -712.682 89.9702 -613.432 23.6534C-514.182 -42.6632 -397.496 -78.0597 -278.129 -78.0597C-118.116 -77.8868 35.2933 -14.2452 148.44 98.9011C261.586 212.047 325.228 365.457 325.4 525.47ZM-878.037 525.47C-878.037 644.085 -842.863 760.037 -776.964 858.662C-711.065 957.287 -617.4 1034.16 -507.814 1079.55C-398.228 1124.94 -277.642 1136.82 -161.306 1113.68C-44.9699 1090.54 61.8917 1033.42 145.765 949.543C229.639 865.669 286.758 758.808 309.898 642.471C333.039 526.135 321.162 405.55 275.77 295.964C230.378 186.377 153.509 92.7124 54.8844 26.8132C-43.7406 -39.0858 -159.692 -74.2594 -278.307 -74.2594C-437.298 -74.0396 -589.714 -10.7833 -702.137 101.64C-814.561 214.064 -877.817 366.479 -878.037 525.47Z" fill="url(#paint20_linear_26_1427)"/>
</g>
<defs>
<linearGradient id="paint0_linear_26_1427" x1="-278.13" y1="849.8" x2="-278.13" y2="201.142" gradientUnits="userSpaceOnUse">
<stop stop-color="#83A4D4"/>
<stop offset="0.95" stop-color="#B4F7FD"/>
<stop offset="1" stop-color="#B6FBFF"/>
</linearGradient>
<linearGradient id="paint1_linear_26_1427" x1="-278.13" y1="871.948" x2="-278.13" y2="178.993" gradientUnits="userSpaceOnUse">
<stop stop-color="#83A4D4"/>
<stop offset="0.95" stop-color="#B4F7FD"/>
<stop offset="1" stop-color="#B6FBFF"/>
</linearGradient>
<linearGradient id="paint2_linear_26_1427" x1="-278.13" y1="894.275" x2="-278.13" y2="156.607" gradientUnits="userSpaceOnUse">
<stop stop-color="#83A4D4"/>
<stop offset="0.95" stop-color="#B4F7FD"/>
<stop offset="1" stop-color="#B6FBFF"/>
</linearGradient>
<linearGradient id="paint3_linear_26_1427" x1="-278.13" y1="916.601" x2="-278.13" y2="134.34" gradientUnits="userSpaceOnUse">
<stop stop-color="#83A4D4"/>
<stop offset="0.95" stop-color="#B4F7FD"/>
<stop offset="1" stop-color="#B6FBFF"/>
</linearGradient>
<linearGradient id="paint4_linear_26_1427" x1="-278.13" y1="938.69" x2="-278.13" y2="112.191" gradientUnits="userSpaceOnUse">
<stop stop-color="#83A4D4"/>
<stop offset="0.95" stop-color="#B4F7FD"/>
<stop offset="1" stop-color="#B6FBFF"/>
</linearGradient>
<linearGradient id="paint5_linear_26_1427" x1="-278.13" y1="960.007" x2="-278.13" y2="90.8741" gradientUnits="userSpaceOnUse">
<stop stop-color="#83A4D4"/>
<stop offset="0.95" stop-color="#B4F7FD"/>
<stop offset="1" stop-color="#B6FBFF"/>
</linearGradient>
<linearGradient id="paint6_linear_26_1427" x1="-278.13" y1="981.146" x2="-278.13" y2="69.7356" gradientUnits="userSpaceOnUse">
<stop stop-color="#83A4D4"/>
<stop offset="0.95" stop-color="#B4F7FD"/>
<stop offset="1" stop-color="#B6FBFF"/>
</linearGradient>
<linearGradient id="paint7_linear_26_1427" x1="-278.13" y1="1001.45" x2="-278.13" y2="49.4283" gradientUnits="userSpaceOnUse">
<stop stop-color="#83A4D4"/>
<stop offset="0.95" stop-color="#B4F7FD"/>
<stop offset="1" stop-color="#B6FBFF"/>
</linearGradient>
<linearGradient id="paint8_linear_26_1427" x1="-278.13" y1="1020.81" x2="-278.13" y2="30.13" gradientUnits="userSpaceOnUse">
<stop stop-color="#83A4D4"/>
<stop offset="0.95" stop-color="#B4F7FD"/>
<stop offset="1" stop-color="#B6FBFF"/>
</linearGradient>
<linearGradient id="paint9_linear_26_1427" x1="-278.13" y1="1038.92" x2="-278.13" y2="11.9597" gradientUnits="userSpaceOnUse">
<stop stop-color="#83A4D4"/>
<stop offset="0.95" stop-color="#B4F7FD"/>
<stop offset="1" stop-color="#B6FBFF"/>
</linearGradient>
<linearGradient id="paint10_linear_26_1427" x1="-278.13" y1="1055.67" x2="-278.13" y2="-4.78482" gradientUnits="userSpaceOnUse">
<stop stop-color="#83A4D4"/>
<stop offset="0.95" stop-color="#B4F7FD"/>
<stop offset="1" stop-color="#B6FBFF"/>
</linearGradient>
<linearGradient id="paint11_linear_26_1427" x1="-278.13" y1="1070.93" x2="-278.13" y2="-20.0455" gradientUnits="userSpaceOnUse">
<stop stop-color="#83A4D4"/>
<stop offset="0.95" stop-color="#B4F7FD"/>
<stop offset="1" stop-color="#B6FBFF"/>
</linearGradient>
<linearGradient id="paint12_linear_26_1427" x1="-278.13" y1="1084.58" x2="-278.13" y2="-33.7031" gradientUnits="userSpaceOnUse">
<stop stop-color="#83A4D4"/>
<stop offset="0.95" stop-color="#B4F7FD"/>
<stop offset="1" stop-color="#B6FBFF"/>
</linearGradient>
<linearGradient id="paint13_linear_26_1427" x1="-278.13" y1="1096.4" x2="-278.13" y2="-45.5195" gradientUnits="userSpaceOnUse">
<stop stop-color="#83A4D4"/>
<stop offset="0.95" stop-color="#B4F7FD"/>
<stop offset="1" stop-color="#B6FBFF"/>
</linearGradient>
<linearGradient id="paint14_linear_26_1427" x1="-278.13" y1="1106.38" x2="-278.13" y2="-55.4951" gradientUnits="userSpaceOnUse">
<stop stop-color="#83A4D4"/>
<stop offset="0.95" stop-color="#B4F7FD"/>
<stop offset="1" stop-color="#B6FBFF"/>
</linearGradient>
<linearGradient id="paint15_linear_26_1427" x1="-278.13" y1="1114.45" x2="-278.13" y2="-63.571" gradientUnits="userSpaceOnUse">
<stop stop-color="#83A4D4"/>
<stop offset="0.95" stop-color="#B4F7FD"/>
<stop offset="1" stop-color="#B6FBFF"/>
</linearGradient>
<linearGradient id="paint16_linear_26_1427" x1="-278.13" y1="1120.63" x2="-278.13" y2="-69.746" gradientUnits="userSpaceOnUse">
<stop stop-color="#83A4D4"/>
<stop offset="0.95" stop-color="#B4F7FD"/>
<stop offset="1" stop-color="#B6FBFF"/>
</linearGradient>
<linearGradient id="paint17_linear_26_1427" x1="-278.13" y1="1124.96" x2="-278.13" y2="-74.0212" gradientUnits="userSpaceOnUse">
<stop stop-color="#83A4D4"/>
<stop offset="0.95" stop-color="#B4F7FD"/>
<stop offset="1" stop-color="#B6FBFF"/>
</linearGradient>
<linearGradient id="paint18_linear_26_1427" x1="-278.13" y1="1127.28" x2="-278.13" y2="-76.397" gradientUnits="userSpaceOnUse">
<stop stop-color="#83A4D4"/>
<stop offset="0.95" stop-color="#B4F7FD"/>
<stop offset="1" stop-color="#B6FBFF"/>
</linearGradient>
<linearGradient id="paint19_linear_26_1427" x1="-278.13" y1="1128.58" x2="-278.13" y2="-77.7628" gradientUnits="userSpaceOnUse">
<stop stop-color="#83A4D4"/>
<stop offset="0.95" stop-color="#B4F7FD"/>
<stop offset="1" stop-color="#B6FBFF"/>
</linearGradient>
<linearGradient id="paint20_linear_26_1427" x1="-278.129" y1="1128.94" x2="-278.129" y2="-78.0596" gradientUnits="userSpaceOnUse">
<stop stop-color="#83A4D4"/>
<stop offset="0.95" stop-color="#B4F7FD"/>
<stop offset="1" stop-color="#B6FBFF"/>
</linearGradient>
<clipPath id="clip0_26_1427">
<rect width="1207" height="1207" fill="white" transform="matrix(0 -1 1 0 -881.6 1129)"/>
</clipPath>
</defs>
</svg>
