<svg width="175" height="44" viewBox="0 0 175 44" fill="none" xmlns="http://www.w3.org/2000/svg">
<path d="M15.1893 10.4037H0V37.1279H7.63284V28.9198H15.1893C22.6695 28.9198 27.0202 25.5601 27.0202 19.2227C27.0202 13.1524 23.013 10.4037 15.1893 10.4037ZM7.63284 24.7202V14.985H12.8995C16.7541 14.985 19.3874 16.5884 19.3874 19.7572C19.3874 22.9641 16.6778 24.7202 12.8995 24.7202H7.63284Z" fill="white"/>
<path d="M29.7508 11.8544C29.7508 14.1832 31.1628 15.4813 33.758 15.4813C36.3532 15.4813 37.7653 14.1832 37.7653 11.8544C37.7653 9.4874 36.3532 8.22754 33.758 8.22754C31.1628 8.22754 29.7508 9.4874 29.7508 11.8544ZM30.3232 37.1279H37.1928V17.4665H30.3232V37.1279Z" fill="white"/>
<path d="M42.5477 37.1279H49.4173V9.64011H42.5477V37.1279Z" fill="white"/>
<path d="M54.1997 11.8544C54.1997 14.1832 55.6118 15.4813 58.2069 15.4813C60.8021 15.4813 62.2142 14.1832 62.2142 11.8544C62.2142 9.4874 60.8021 8.22754 58.2069 8.22754C55.6118 8.22754 54.1997 9.4874 54.1997 11.8544ZM54.7722 37.1279H61.6417V17.4665H54.7722V37.1279Z" fill="white"/>
<path d="M76.0797 16.8938C69.8208 16.8938 65.8517 20.8261 65.8517 26.5909C65.8517 31.8976 69.2865 35.6008 75.2401 35.6008C80.6213 35.6008 82.4531 32.5848 83.1783 30.1033V34.3792C83.1783 37.5861 81.1555 39.3422 77.4918 39.3422C74.4768 39.3422 71.9198 38.1587 69.5536 35.7535L66.386 38.8841C68.4087 42.1674 72.2251 43.9999 77.3391 43.9999C85.1246 43.9999 89.6662 39.724 89.6662 32.3557V17.4665H83.9415L83.1401 21.7424C82.5676 19.4136 81.0792 16.8938 76.0797 16.8938ZM77.7971 31.3631C74.4387 31.3631 72.187 29.4924 72.187 26.1328C72.187 22.4678 74.8585 20.8261 78.1024 20.8261C81.499 20.8261 83.1783 22.6205 83.1783 26.2473C83.1783 28.6525 81.8425 31.3631 77.7971 31.3631Z" fill="white"/>
<path d="M100.636 17.4665H94.9117V37.1279H101.781V26.9345C101.781 24.5293 103.537 22.9641 106.514 22.9641C107.315 22.9641 108.345 23.0786 109.109 23.2313V16.8938C105.712 16.8938 103.384 18.3828 101.667 21.7806L100.636 17.4665Z" fill="white"/>
<path d="M112.042 11.8544C112.042 14.1832 113.454 15.4813 116.05 15.4813C118.645 15.4813 120.057 14.1832 120.057 11.8544C120.057 9.4874 118.645 8.22754 116.05 8.22754C113.454 8.22754 112.042 9.4874 112.042 11.8544ZM112.615 37.1279H119.484V17.4665H112.615V37.1279Z" fill="white"/>
<path d="M138.578 37.1279H145.448V25.5601C145.448 22.8114 146.249 21.0552 148.997 21.0552C151.669 21.0552 152.317 22.6968 152.317 25.6747V37.1279H159.187V24.453C159.187 19.4136 157.126 16.8938 152.508 16.8938C149.073 16.8938 146.631 18.3064 145.028 21.0934C144.227 18.3064 142.204 16.8938 138.769 16.8938C135.411 16.8938 132.968 18.2301 131.365 20.9407L130.564 17.4665H124.839V37.1279H131.709V25.5601C131.709 22.8114 132.51 21.0552 135.258 21.0552C137.93 21.0552 138.578 22.6968 138.578 25.6747V37.1279Z" fill="white"/>
<path fill-rule="evenodd" clip-rule="evenodd" d="M163.818 8.79155L160.452 13.4243L163.024 15.3531L166.444 10.6913L169.834 15.3562L172.409 13.4251L169.077 8.82795L174.513 7.06065L173.553 3.9693L168.058 5.77858V0H164.839V5.75138L159.353 3.97838L158.375 7.02156L163.818 8.79155ZM170.062 13.8439L170.062 13.8439L170.92 13.2L167.343 8.26342L167.343 8.26342L170.92 13.2L170.062 13.8439ZM173.174 6.36748L173.174 6.36748L172.852 5.33008L172.852 5.33008L173.174 6.36748ZM166.985 7.26179V1.07317H165.912L166.985 1.07317V7.26179L166.985 7.26179ZM165.912 7.22601L160.045 5.33008L160.045 5.33009L165.912 7.22602V7.22601ZM166.449 8.87157L166.449 8.87155L162.8 13.8439L162.8 13.8439L166.449 8.87157Z" fill="#21C677"/>
</svg>
