<svg width="590" height="787" viewBox="0 0 590 787" fill="none" xmlns="http://www.w3.org/2000/svg">
<path d="M-264.348 522.05C-287.446 522.05 -305.913 515.578 -318.442 502.633C-349.735 470.687 -342.847 402.401 -300.034 314.698C-216.488 143.568 -20.3586 -54.9964 137.174 -127.914C209.023 -161.166 263.889 -163.957 291.56 -135.633C322.675 -103.865 315.965 -35.4013 273.153 52.3017C189.547 223.432 -6.52325 421.937 -163.997 494.855C-203.009 512.965 -236.914 522.05 -264.348 522.05ZM137.827 -126.311L138.599 -124.708C-18.2803 -51.8493 -213.578 145.765 -296.887 316.301C-338.987 402.579 -345.934 469.618 -315.948 500.377C-289.346 527.454 -235.905 524.485 -165.481 491.826C-8.66092 419.206 186.697 221.414 269.946 50.936C312.105 -35.3419 319.053 -102.381 289.007 -133.139C262.464 -160.276 209.023 -157.247 138.599 -124.648L137.827 -126.311Z" fill="url(#paint0_linear_15_406)"/>
<path d="M-280.914 526.622C-307.872 526.622 -328.833 518.903 -342.372 503.405C-374.08 467.243 -362.442 392.544 -310.426 298.547C-212.272 121.182 0.602234 -75.2447 163.598 -139.255C235.328 -167.401 289.244 -166.392 315.49 -136.465C347.198 -100.243 335.56 -25.6037 283.544 68.4529C185.331 245.818 -27.306 442.185 -190.539 506.315C-225.039 519.853 -255.678 526.622 -280.914 526.622ZM254.032 -156.238C229.331 -156.238 199.225 -149.469 164.964 -136.049C2.38358 -72.2163 -209.125 123.438 -307.279 300.21C-358.523 392.841 -370.339 466.056 -339.64 501.03C-314.464 529.77 -261.972 530.423 -191.727 502.871C-29.0873 439.157 182.599 243.503 280.397 66.909C331.7 -25.7225 343.517 -98.937 312.818 -133.911C299.933 -148.815 279.684 -156.178 254.032 -156.178V-156.238Z" fill="url(#paint1_linear_15_406)"/>
<path d="M-296.294 530.066C-328.002 530.066 -352.11 520.744 -366.598 502.217C-398.723 461.068 -381.562 380.134 -319.511 280.021C-206.275 97.2517 22.6912 -95.2555 190.853 -149.112C262.108 -171.855 314.599 -166.926 339.301 -135.336C371.366 -94.246 354.205 -13.2529 292.213 86.8604C178.977 269.57 -49.9888 462.077 -218.151 515.993C-243.329 524.638 -269.681 529.384 -296.294 530.066ZM269.234 -159.682C242.937 -158.986 216.903 -154.26 192.041 -145.668C24.532 -92.2271 -203.543 99.805 -316.423 281.862C-377.584 380.668 -394.804 459.999 -363.926 500.021C-340.175 530.423 -288.812 534.876 -219.279 512.609C-51.8296 459.168 176.305 267.135 289.125 85.079C350.345 -13.6685 367.565 -93.0584 336.629 -133.021C322.912 -150.775 299.814 -159.682 269.234 -159.682Z" fill="url(#paint2_linear_15_406)"/>
<path d="M-310.307 532.857C-347.597 532.857 -374.852 521.456 -390.409 498.952C-422.593 452.339 -399.376 364.992 -326.636 259.238C-197.902 72.1344 46.9775 -114.851 219.177 -157.069C290.432 -174.527 340.073 -165.857 363.528 -131.952C395.711 -85.3391 372.494 2.0076 299.755 107.762C171.021 294.866 -73.8591 481.851 -246.118 524.069C-267.086 529.553 -288.636 532.503 -310.307 532.857ZM283.485 -162.354C262.152 -161.97 240.942 -159.04 220.305 -153.625C48.5214 -111.228 -195.349 74.7471 -323.727 261.257C-395.575 365.705 -418.733 451.627 -387.5 496.933C-364.936 529.532 -316.245 537.726 -246.949 520.684C-75.4029 478.466 168.705 292.312 296.845 105.802C368.753 1.59198 391.911 -84.6266 360.618 -129.933C345.714 -151.428 319.528 -162.354 283.425 -162.354H283.485Z" fill="url(#paint3_linear_15_406)"/>
<path d="M-321.411 534.282C-366.064 534.282 -397.772 520.447 -414.22 493.311C-446.107 440.582 -416.18 346.822 -332.099 236.021C-187.57 45.5919 72.6886 -133.436 247.976 -163.066C317.45 -174.942 365.606 -162.116 387.339 -126.311C419.225 -73.5821 389.298 20.1777 305.217 130.979C160.926 321.408 -99.5703 500.377 -274.858 530.066C-290.23 532.768 -305.803 534.178 -321.411 534.282ZM294.589 -163.779C279.157 -163.676 263.763 -162.266 248.57 -159.563C73.9949 -129.873 -184.898 48.264 -329.308 238.277C-411.251 345.991 -441.832 440.998 -411.192 491.47C-390.291 525.91 -343.381 538.023 -275.451 526.563C-100.936 496.874 158.313 318.736 302.367 128.723C384.31 20.7715 415.188 -73.9383 384.31 -124.589C368.753 -150.478 337.876 -163.779 294.589 -163.779Z" fill="url(#paint4_linear_15_406)"/>
<path d="M-329.368 534.995C-383.284 534.995 -420.515 517.953 -437.675 484.998C-468.315 426.39 -430.075 323.724 -335.484 210.31C-175.16 17.8025 99.9437 -151.428 277.19 -166.867C344.823 -172.805 391.02 -155.882 410.794 -118.057C441.374 -59.3905 403.193 43.2761 308.602 156.631C148.278 349.197 -126.825 518.369 -304.072 533.867C-312.86 534.639 -321.292 534.995 -329.368 534.995ZM277.309 -163.363C100.894 -147.925 -172.904 20.7121 -332.99 212.625C-426.631 324.852 -464.633 426.39 -434.706 483.394C-415.646 519.853 -370.636 536.123 -304.547 530.304C-128.132 514.925 145.666 346.229 305.692 154.375C399.333 42.1479 437.395 -59.0936 407.468 -116.394C388.408 -152.853 343.398 -169.123 277.309 -163.363Z" fill="url(#paint5_linear_15_406)"/>
<path d="M-333.405 535.173C-398.722 535.173 -442.901 513.975 -460.536 473.894C-489.573 407.864 -443.257 298.844 -336.552 182.223C-159.84 -10.9965 128.683 -168.114 306.642 -168.114C371.96 -168.114 416.138 -146.915 433.833 -106.834C462.869 -40.8048 416.553 68.2153 309.849 184.836C133.018 377.996 -155.446 535.173 -333.405 535.173ZM306.524 -164.67C129.455 -164.67 -157.881 -8.02748 -334.059 184.598C-439.753 300.15 -485.891 407.805 -457.389 472.469C-440.347 511.124 -397.535 531.848 -333.524 531.848C-156.456 531.848 130.88 375.206 307.058 182.639C412.872 66.909 459.009 -40.8048 430.507 -105.291C413.466 -144.006 370.594 -164.67 306.583 -164.67H306.524Z" fill="url(#paint6_linear_15_406)"/>
<path d="M-333.227 535.173C-343.5 535.173 -353.357 534.757 -362.917 533.807C-426.096 527.869 -467.543 502.099 -482.863 459.465C-509.465 385.419 -454.301 270.342 -335.305 151.643C-142.383 -40.8642 158.848 -183.73 336.095 -166.867C399.274 -160.929 440.78 -135.099 456.1 -92.524C482.583 -18.4188 427.42 96.5986 308.483 215.357C125.952 397.473 -153.487 535.173 -333.227 535.173ZM306.167 -164.67C127.377 -164.67 -151.052 -27.3851 -332.871 154.137C-450.857 271.886 -505.664 385.716 -479.597 458.277C-464.811 499.486 -424.315 524.425 -362.62 530.304C-186.264 547.108 113.66 404.717 305.989 212.863C423.976 95.1141 478.783 -18.7157 452.715 -91.277C437.87 -132.842 397.433 -157.425 335.738 -163.304C326.238 -164.254 316.381 -164.67 306.167 -164.67Z" fill="url(#paint7_linear_15_406)"/>
<path d="M-328.061 535.47C-349.58 535.584 -371.059 533.595 -392.191 529.532C-452.876 517.656 -491.651 486.898 -504.239 441.413C-527.16 358.639 -462.674 237.98 -331.446 118.628C-122.431 -71.385 190.141 -197.744 365.309 -162.651C425.995 -150.775 464.769 -120.017 477.357 -74.5321C500.278 8.2424 435.792 128.901 304.564 248.253C119.361 417.246 -147.846 535.41 -328.061 535.47ZM300.942 -164.67C121.676 -164.67 -144.402 -46.6239 -329.071 121.597C-459.17 239.999 -523.419 359.114 -500.855 440.819C-488.622 484.641 -450.679 514.212 -391.3 526.088C-370.348 530.148 -349.047 532.137 -327.705 532.026C-148.439 532.026 117.639 414.04 302.367 245.818C432.467 127.416 496.656 8.30177 474.092 -73.4039C461.919 -117.523 424.094 -147.093 364.775 -159.029C343.734 -163.004 322.353 -164.893 300.942 -164.67Z" fill="url(#paint8_linear_15_406)"/>
<path d="M-317.076 536.479C-352.237 537.044 -387.279 532.238 -420.99 522.228C-479.181 503.643 -514.927 468.075 -524.369 419.265C-542.182 327.287 -467.602 201.7 -324.677 83.357C-99.8671 -102.856 222.502 -209.857 393.811 -155.228C451.943 -136.702 487.69 -101.075 497.19 -52.2649C515.004 39.7134 440.364 165.3 297.498 283.643C112.71 436.841 -138.404 536.479 -317.076 536.479ZM289.957 -165.976C112.176 -165.976 -137.929 -66.6941 -322.361 86.0885C-464.277 203.481 -538.442 328.177 -520.865 418.612C-511.662 466.115 -476.747 500.733 -419.921 518.844C-249.443 573.116 71.4417 466.412 295.42 280.911C437.277 163.4 511.501 39.1196 493.865 -51.6118C484.661 -99.1151 449.746 -133.733 392.921 -151.844C359.518 -161.765 324.797 -166.53 289.957 -165.976Z" fill="url(#paint9_linear_15_406)"/>
<path d="M-299.559 538.914C-356.86 538.914 -407.926 530.126 -448.957 511.481C-504.536 486.245 -536.957 445.035 -542.717 392.307C-553.821 290.768 -468.493 161.203 -314.76 45.77C-74.5717 -134.564 255.933 -219.892 422.194 -144.481C477.773 -119.245 510.194 -78.0355 515.954 -25.3662C527.058 76.2315 441.849 205.797 287.997 321.23C107.01 457.03 -125.044 538.914 -299.559 538.914ZM272.499 -168.47C98.8748 -168.47 -132.348 -86.7642 -312.682 48.5609C-465.465 163.281 -550.199 291.659 -539.214 391.951C-533.573 443.373 -501.864 483.572 -447.473 508.274C-282.458 583.211 46.5024 498.061 285.741 318.261C438.583 203.54 523.258 75.1627 512.332 -25.1287C506.394 -76.551 474.982 -116.751 420.591 -141.452C379.916 -159.741 329.266 -168.47 272.499 -168.47Z" fill="url(#paint10_linear_15_406)"/>
<path d="M-275.214 543.605C-354.841 543.605 -424.671 528.701 -475.975 497.23C-528.941 464.749 -557.562 417.246 -558.927 359.945C-561.362 248.906 -465.227 116.491 -301.697 5.92664C-46.901 -166.57 290.135 -227.671 449.034 -130.23C502.059 -97.7494 530.739 -50.3055 532.165 7.05481C534.658 118.094 438.524 250.509 274.993 361.014C102.081 477.872 -108.121 543.605 -275.214 543.605ZM248.213 -173.161C81.9518 -173.161 -127.478 -107.844 -299.678 8.89558C-462.258 118.806 -557.562 250.034 -555.365 359.886C-554.118 415.94 -526.031 462.374 -474.075 494.201C-316.245 590.989 18.7724 529.829 272.796 358.104C435.376 248.134 530.917 116.966 528.483 7.1142C527.236 -48.9397 498.793 -95.3742 447.193 -127.201C396.364 -158.375 327.188 -173.161 248.213 -173.161Z" fill="url(#paint11_linear_15_406)"/>
<path d="M-244.337 551.265C-349.675 551.265 -441.179 527.869 -501.567 479.238C-551.921 438.741 -576.325 384.231 -572.11 321.349C-564.093 201.403 -456.617 67.8591 -285.19 -35.8763C-16.0239 -198.575 324.812 -232.778 474.864 -112.238C525.217 -71.7413 549.622 -17.2313 545.406 45.6513C537.33 165.597 430.092 299.141 258.427 402.876C97.6873 499.961 -88.4664 551.265 -244.337 551.265ZM217.455 -180.88C62.2973 -180.88 -123.203 -129.636 -283.349 -32.848C-454.004 70.2936 -560.59 202.769 -568.369 321.586C-572.525 383.162 -548.595 436.722 -499.192 476.447C-350.388 596.155 -11.3329 561.834 256.645 399.848C427.242 296.706 533.886 164.231 541.665 45.4137C545.822 -16.1624 521.892 -69.7224 472.488 -109.506C412.634 -157.663 321.903 -180.88 217.455 -180.88Z" fill="url(#paint12_linear_15_406)"/>
<path d="M-208.353 562.844C-342.075 562.844 -457.745 527.81 -525.556 457.327C-573.06 407.745 -592.417 344.982 -581.373 275.864C-561.006 148.08 -442.782 15.1898 -265.06 -79.6387C17.2284 -229.987 359.846 -235.093 498.675 -90.327C521.83 -66.7605 538.986 -37.9771 548.699 -6.39854C558.413 25.18 560.399 58.6296 554.491 91.1357C534.124 218.92 415.841 351.929 238.119 446.936C93.2931 524.128 -67.4463 562.844 -208.353 562.844ZM181.59 -192.4C41.2769 -192.4 -118.928 -153.625 -263.397 -76.4916C-440.11 17.8024 -557.562 150.04 -577.869 276.458C-583.681 308.42 -581.731 341.311 -572.183 372.362C-562.635 403.414 -545.769 431.717 -523.003 454.892C-385.243 598.531 -44.5259 593.483 236.516 443.492C413.228 349.197 530.799 217.257 551.225 90.5419C557.042 58.5798 555.094 25.6879 545.546 -5.36438C535.998 -36.4167 519.129 -64.7204 496.359 -87.8924C429.142 -157.722 314.243 -192.4 181.59 -192.4Z" fill="url(#paint13_linear_15_406)"/>
<path d="M-169.519 578.935C-333.346 578.935 -475.678 528.463 -547.527 431.319C-591.942 371.286 -605.124 299.2 -585.589 222.898C-551.446 89.0574 -422.712 -41.0423 -241.19 -125.123C53.2716 -261.695 394.999 -234.262 520.704 -64.3189C565.061 -4.34598 578.183 67.7997 558.766 144.102C524.564 277.942 395.83 408.042 214.367 492.064C94.1057 548.186 -36.8113 577.812 -169.519 578.935ZM143.112 -208.492C10.7621 -207.363 -119.804 -177.84 -239.764 -121.917C-420.218 -38.2515 -548.239 90.9575 -582.204 223.789C-601.383 299.022 -588.142 370.04 -544.676 429.241C-419.98 597.877 -80.1533 624.598 212.823 488.62C393.336 405.014 521.595 275.805 555.322 142.974C574.502 67.7403 561.557 -3.27716 517.795 -62.4782C446.599 -158.435 305.396 -208.492 143.112 -208.492Z" fill="url(#paint14_linear_15_406)"/>
<path d="M-130.685 600.134C-325.033 600.134 -494.857 529.354 -567.122 401.095C-607.796 328.949 -613.437 246.293 -583.51 161.916C-534.582 24.4529 -396.288 -100.481 -213.519 -172.27C91.7493 -291.919 429.854 -229.987 540.24 -34.0356C580.915 38.1695 586.556 120.825 556.629 204.965C507.7 342.488 369.406 467.421 186.637 539.211C85.5535 579.011 -22.0491 599.669 -130.685 600.134ZM103.981 -229.69C-4.28503 -229.191 -111.511 -208.531 -212.213 -168.767C-394.031 -97.5119 -531.613 26.7687 -580.363 163.281C-610.053 246.412 -604.115 328.118 -564.212 399.373C-454.658 593.78 -118.512 654.703 185.153 535.945C366.972 464.69 504.494 340.409 553.303 203.837C582.993 120.706 577.055 39.0602 537.152 -32.1948C465.482 -159.504 296.964 -229.69 103.981 -229.69Z" fill="url(#paint15_linear_15_406)"/>
<path d="M-94.4043 626.795C-318.739 626.795 -515.521 530.007 -583.689 366.596C-619.969 280.318 -616.466 185.667 -573.772 93.5109C-510.058 -44.7832 -363.392 -162.116 -181.81 -220.308C132.899 -321.252 464.235 -222.149 557.104 0.404388C593.088 86.6823 589.584 181.095 546.891 273.548C483.058 411.842 336.51 528.879 154.988 587.367C74.3867 613.286 -9.7381 626.586 -94.4043 626.795ZM67.9383 -256.292C-16.4913 -256.098 -100.381 -242.818 -180.742 -216.923C-361.61 -158.732 -507.149 -42.408 -570.566 94.9954C-612.844 186.439 -616.347 279.902 -580.72 365.23C-513.087 527.276 -317.67 623.292 -94.8199 623.292C-10.4098 623.098 73.46 609.817 153.801 583.923C334.491 526.029 480.386 409.408 543.684 272.005C585.903 180.501 589.406 87.0979 553.838 1.77008C486.205 -160.335 290.788 -256.292 67.9383 -256.292Z" fill="url(#paint16_linear_15_406)"/>
<path d="M-63.8242 658.919C-316.957 658.919 -538.857 529.651 -597.821 327.583C-627.51 225.214 -613.081 117.975 -555.305 17.565C-475.915 -120.373 -326.755 -224.999 -146.005 -269.533C176.186 -348.745 497.784 -210.392 570.642 39.3571C600.629 141.786 585.962 249.025 528.127 349.435C448.796 487.373 299.636 591.999 118.885 636.533C59.107 651.331 -2.24133 658.848 -63.8242 658.919ZM37.1204 -288.416C-24.2833 -288.354 -85.4535 -280.857 -145.055 -266.089C-324.974 -221.792 -473.303 -117.76 -552.218 19.4057C-609.518 118.866 -624.126 225.154 -594.377 326.633C-535.71 527.097 -315.295 655.416 -63.8835 655.416C-2.49939 655.355 58.6513 647.858 118.232 633.089C298.092 588.792 446.421 484.641 525.336 347.654C582.637 248.075 597.185 141.846 567.495 40.3665C508.828 -160.097 288.532 -288.416 37.0016 -288.416H37.1204Z" fill="url(#paint17_linear_15_406)"/>
<path d="M-39.4786 696.328C-320.045 696.328 -563.5 527.632 -608.153 284.118C-630.064 165.36 -601.265 41.1978 -527.1 -64.8533C-434.588 -197.031 -281.092 -289.841 -106.28 -319.471C221.612 -374.931 529.967 -194.775 580.974 82.882C602.944 201.64 574.145 325.802 499.922 431.853C407.409 564.031 253.973 656.841 78.864 686.471C39.7609 693.056 0.174927 696.353 -39.4786 696.328ZM12.4781 -325.943C-27.1007 -325.945 -66.6092 -322.608 -105.627 -315.968C-279.786 -286.278 -432.212 -194.24 -524.369 -62.8344C-597.821 42.4448 -626.382 165.419 -604.649 283.465C-560.115 525.316 -318.442 693.181 -39.538 693.181C0.0405884 693.178 39.5486 689.841 78.5671 683.205C252.667 653.515 405.152 561.478 497.309 430.012C570.939 324.793 599.5 201.818 577.768 83.7726C533.233 -158.316 291.56 -325.943 12.4781 -325.943Z" fill="url(#paint18_linear_15_406)"/>
<path d="M-22.6149 739.259C-329.664 739.259 -589.508 523.357 -614.625 236.08C-641.346 -68.9505 -393.378 -340.729 -61.8644 -369.587C98.4592 -383.601 254.686 -339.304 377.541 -244.891C500.397 -150.478 574.977 -16.8749 587.922 130.979C600.866 278.833 550.275 423.184 445.946 537.548C341.617 651.912 195.604 722.692 35.1017 736.765C15.6253 738.428 -3.61353 739.259 -22.6149 739.259ZM-3.67291 -368.756C-22.8326 -368.756 -42.1308 -367.905 -61.5676 -366.202C-391.3 -337.404 -637.664 -67.3472 -611.003 235.783C-586.004 521.219 -327.705 735.696 -22.4961 735.696C-3.55414 735.696 15.5065 734.925 34.7454 733.202C194.416 719.248 339.539 648.884 443.333 535.173C547.128 421.462 597.185 278.002 584.359 131.395C571.533 -15.2123 497.131 -148.222 375.225 -241.863C266.438 -324.905 133.185 -369.532 -3.67291 -368.756Z" fill="url(#paint19_linear_15_406)"/>
<path d="M-13.47 787.001C-132.837 787.001 -249.523 751.604 -348.773 685.287C-448.023 618.971 -525.379 524.712 -571.059 414.432C-616.739 304.151 -628.69 182.801 -605.403 65.728C-582.116 -51.3453 -524.635 -158.884 -440.23 -243.289C-355.825 -327.694 -248.286 -385.175 -131.213 -408.462C-14.1395 -431.75 107.21 -419.798 217.491 -374.118C327.771 -328.438 422.03 -251.082 488.347 -151.832C554.663 -52.5824 590.06 64.1039 590.06 183.471C589.887 343.484 526.245 496.893 413.099 610.04C299.953 723.186 146.543 786.828 -13.47 787.001ZM-13.47 -416.437C-132.085 -416.437 -248.037 -381.263 -346.662 -315.364C-445.287 -249.465 -522.156 -155.8 -567.548 -46.2138C-612.94 63.3724 -624.817 183.958 -601.676 300.294C-578.535 416.63 -521.416 523.492 -437.543 607.365C-353.669 691.239 -246.808 748.358 -130.471 771.498C-14.1353 794.639 106.45 782.762 216.036 737.37C325.623 691.978 419.288 615.11 485.187 516.485C551.086 417.86 586.259 301.908 586.259 183.293C586.04 24.3021 522.783 -128.114 410.36 -240.537C297.936 -352.961 145.521 -416.217 -13.47 -416.437Z" fill="url(#paint20_linear_15_406)"/>
<defs>
<linearGradient id="paint0_linear_15_406" x1="-337.8" y1="183.47" x2="310.858" y2="183.47" gradientUnits="userSpaceOnUse">
<stop stop-color="#83A4D4"/>
<stop offset="0.95" stop-color="#B4F7FD"/>
<stop offset="1" stop-color="#B6FBFF"/>
</linearGradient>
<linearGradient id="paint1_linear_15_406" x1="-359.948" y1="183.47" x2="333.007" y2="183.47" gradientUnits="userSpaceOnUse">
<stop stop-color="#83A4D4"/>
<stop offset="0.95" stop-color="#B4F7FD"/>
<stop offset="1" stop-color="#B6FBFF"/>
</linearGradient>
<linearGradient id="paint2_linear_15_406" x1="-382.275" y1="183.47" x2="355.393" y2="183.47" gradientUnits="userSpaceOnUse">
<stop stop-color="#83A4D4"/>
<stop offset="0.95" stop-color="#B4F7FD"/>
<stop offset="1" stop-color="#B6FBFF"/>
</linearGradient>
<linearGradient id="paint3_linear_15_406" x1="-404.601" y1="183.47" x2="377.66" y2="183.47" gradientUnits="userSpaceOnUse">
<stop stop-color="#83A4D4"/>
<stop offset="0.95" stop-color="#B4F7FD"/>
<stop offset="1" stop-color="#B6FBFF"/>
</linearGradient>
<linearGradient id="paint4_linear_15_406" x1="-426.69" y1="183.47" x2="399.808" y2="183.47" gradientUnits="userSpaceOnUse">
<stop stop-color="#83A4D4"/>
<stop offset="0.95" stop-color="#B4F7FD"/>
<stop offset="1" stop-color="#B6FBFF"/>
</linearGradient>
<linearGradient id="paint5_linear_15_406" x1="-448.007" y1="183.47" x2="421.126" y2="183.47" gradientUnits="userSpaceOnUse">
<stop stop-color="#83A4D4"/>
<stop offset="0.95" stop-color="#B4F7FD"/>
<stop offset="1" stop-color="#B6FBFF"/>
</linearGradient>
<linearGradient id="paint6_linear_15_406" x1="-469.146" y1="183.47" x2="442.264" y2="183.47" gradientUnits="userSpaceOnUse">
<stop stop-color="#83A4D4"/>
<stop offset="0.95" stop-color="#B4F7FD"/>
<stop offset="1" stop-color="#B6FBFF"/>
</linearGradient>
<linearGradient id="paint7_linear_15_406" x1="-489.454" y1="183.47" x2="462.572" y2="183.47" gradientUnits="userSpaceOnUse">
<stop stop-color="#83A4D4"/>
<stop offset="0.95" stop-color="#B4F7FD"/>
<stop offset="1" stop-color="#B6FBFF"/>
</linearGradient>
<linearGradient id="paint8_linear_15_406" x1="-508.811" y1="183.47" x2="481.87" y2="183.47" gradientUnits="userSpaceOnUse">
<stop stop-color="#83A4D4"/>
<stop offset="0.95" stop-color="#B4F7FD"/>
<stop offset="1" stop-color="#B6FBFF"/>
</linearGradient>
<linearGradient id="paint9_linear_15_406" x1="-526.922" y1="183.47" x2="500.041" y2="183.47" gradientUnits="userSpaceOnUse">
<stop stop-color="#83A4D4"/>
<stop offset="0.95" stop-color="#B4F7FD"/>
<stop offset="1" stop-color="#B6FBFF"/>
</linearGradient>
<linearGradient id="paint10_linear_15_406" x1="-543.667" y1="183.47" x2="516.785" y2="183.47" gradientUnits="userSpaceOnUse">
<stop stop-color="#83A4D4"/>
<stop offset="0.95" stop-color="#B4F7FD"/>
<stop offset="1" stop-color="#B6FBFF"/>
</linearGradient>
<linearGradient id="paint11_linear_15_406" x1="-558.927" y1="183.47" x2="532.046" y2="183.47" gradientUnits="userSpaceOnUse">
<stop stop-color="#83A4D4"/>
<stop offset="0.95" stop-color="#B4F7FD"/>
<stop offset="1" stop-color="#B6FBFF"/>
</linearGradient>
<linearGradient id="paint12_linear_15_406" x1="-572.585" y1="183.47" x2="545.703" y2="183.47" gradientUnits="userSpaceOnUse">
<stop stop-color="#83A4D4"/>
<stop offset="0.95" stop-color="#B4F7FD"/>
<stop offset="1" stop-color="#B6FBFF"/>
</linearGradient>
<linearGradient id="paint13_linear_15_406" x1="-584.401" y1="183.47" x2="557.519" y2="183.47" gradientUnits="userSpaceOnUse">
<stop stop-color="#83A4D4"/>
<stop offset="0.95" stop-color="#B4F7FD"/>
<stop offset="1" stop-color="#B6FBFF"/>
</linearGradient>
<linearGradient id="paint14_linear_15_406" x1="-594.377" y1="183.47" x2="567.495" y2="183.47" gradientUnits="userSpaceOnUse">
<stop stop-color="#83A4D4"/>
<stop offset="0.95" stop-color="#B4F7FD"/>
<stop offset="1" stop-color="#B6FBFF"/>
</linearGradient>
<linearGradient id="paint15_linear_15_406" x1="-602.452" y1="183.47" x2="575.571" y2="183.47" gradientUnits="userSpaceOnUse">
<stop stop-color="#83A4D4"/>
<stop offset="0.95" stop-color="#B4F7FD"/>
<stop offset="1" stop-color="#B6FBFF"/>
</linearGradient>
<linearGradient id="paint16_linear_15_406" x1="-608.628" y1="183.47" x2="581.746" y2="183.47" gradientUnits="userSpaceOnUse">
<stop stop-color="#83A4D4"/>
<stop offset="0.95" stop-color="#B4F7FD"/>
<stop offset="1" stop-color="#B6FBFF"/>
</linearGradient>
<linearGradient id="paint17_linear_15_406" x1="-612.962" y1="183.47" x2="586.021" y2="183.47" gradientUnits="userSpaceOnUse">
<stop stop-color="#83A4D4"/>
<stop offset="0.95" stop-color="#B4F7FD"/>
<stop offset="1" stop-color="#B6FBFF"/>
</linearGradient>
<linearGradient id="paint18_linear_15_406" x1="-615.278" y1="183.47" x2="588.397" y2="183.47" gradientUnits="userSpaceOnUse">
<stop stop-color="#83A4D4"/>
<stop offset="0.95" stop-color="#B4F7FD"/>
<stop offset="1" stop-color="#B6FBFF"/>
</linearGradient>
<linearGradient id="paint19_linear_15_406" x1="-616.585" y1="183.47" x2="589.762" y2="183.47" gradientUnits="userSpaceOnUse">
<stop stop-color="#83A4D4"/>
<stop offset="0.95" stop-color="#B4F7FD"/>
<stop offset="1" stop-color="#B6FBFF"/>
</linearGradient>
<linearGradient id="paint20_linear_15_406" x1="-616.94" y1="183.471" x2="590.06" y2="183.471" gradientUnits="userSpaceOnUse">
<stop stop-color="#83A4D4"/>
<stop offset="0.95" stop-color="#B4F7FD"/>
<stop offset="1" stop-color="#B6FBFF"/>
</linearGradient>
</defs>
</svg>
