<svg width="175" height="44" viewBox="0 0 175 44" fill="none" xmlns="http://www.w3.org/2000/svg">
<g clip-path="url(#clip0_201_658)">
<path d="M15.1893 10.4038H0V37.128H7.63284V28.9199H15.1893C22.6695 28.9199 27.0202 25.5602 27.0202 19.2228C27.0202 13.1525 23.013 10.4038 15.1893 10.4038ZM7.63284 24.7203V14.9851H12.8995C16.7541 14.9851 19.3874 16.5885 19.3874 19.7573C19.3874 22.9642 16.6778 24.7203 12.8995 24.7203H7.63284Z" fill="black"/>
<path d="M29.7508 11.8545C29.7508 14.1833 31.1628 15.4814 33.758 15.4814C36.3532 15.4814 37.7653 14.1833 37.7653 11.8545C37.7653 9.4875 36.3532 8.22765 33.758 8.22765C31.1628 8.22765 29.7508 9.4875 29.7508 11.8545ZM30.3232 37.128H37.1928V17.4666H30.3232V37.128Z" fill="black"/>
<path d="M42.5477 37.128H49.4173V9.64021H42.5477V37.128Z" fill="black"/>
<path d="M54.1997 11.8545C54.1997 14.1833 55.6118 15.4814 58.2069 15.4814C60.8021 15.4814 62.2142 14.1833 62.2142 11.8545C62.2142 9.4875 60.8021 8.22765 58.2069 8.22765C55.6118 8.22765 54.1997 9.4875 54.1997 11.8545ZM54.7722 37.128H61.6417V17.4666H54.7722V37.128Z" fill="black"/>
<path d="M76.0797 16.8939C69.8208 16.8939 65.8517 20.8262 65.8517 26.591C65.8517 31.8977 69.2865 35.6009 75.2401 35.6009C80.6213 35.6009 82.4531 32.5849 83.1783 30.1034V34.3793C83.1783 37.5862 81.1555 39.3423 77.4918 39.3423C74.4768 39.3423 71.9198 38.1588 69.5536 35.7537L66.386 38.8842C68.4087 42.1675 72.2251 44 77.3391 44C85.1246 44 89.6662 39.7241 89.6662 32.3559V17.4666H83.9415L83.1401 21.7425C82.5676 19.4137 81.0792 16.8939 76.0797 16.8939ZM77.7971 31.3632C74.4387 31.3632 72.187 29.4925 72.187 26.1329C72.187 22.4679 74.8585 20.8262 78.1024 20.8262C81.499 20.8262 83.1783 22.6206 83.1783 26.2474C83.1783 28.6526 81.8425 31.3632 77.7971 31.3632Z" fill="black"/>
<path d="M100.636 17.4666H94.9117V37.128H101.781V26.9346C101.781 24.5295 103.537 22.9642 106.514 22.9642C107.315 22.9642 108.345 23.0787 109.109 23.2314V16.8939C105.712 16.8939 103.384 18.3829 101.667 21.7807L100.636 17.4666Z" fill="black"/>
<path d="M112.042 11.8545C112.042 14.1833 113.454 15.4814 116.05 15.4814C118.645 15.4814 120.057 14.1833 120.057 11.8545C120.057 9.4875 118.645 8.22765 116.05 8.22765C113.454 8.22765 112.042 9.4875 112.042 11.8545ZM112.615 37.128H119.484V17.4666H112.615V37.128Z" fill="black"/>
<path d="M138.578 37.128H145.448V25.5602C145.448 22.8115 146.249 21.0553 148.997 21.0553C151.669 21.0553 152.317 22.6969 152.317 25.6748V37.128H159.187V24.4531C159.187 19.4137 157.126 16.8939 152.508 16.8939C149.073 16.8939 146.631 18.3065 145.028 21.0935C144.227 18.3065 142.204 16.8939 138.769 16.8939C135.411 16.8939 132.968 18.2302 131.365 20.9408L130.564 17.4666H124.839V37.128H131.709V25.5602C131.709 22.8115 132.51 21.0553 135.258 21.0553C137.93 21.0553 138.578 22.6969 138.578 25.6748V37.128Z" fill="black"/>
<path fill-rule="evenodd" clip-rule="evenodd" d="M163.818 8.79155L160.452 13.4243L163.024 15.3531L166.444 10.6913L169.834 15.3562L172.409 13.4251L169.077 8.82795L174.513 7.06065L173.553 3.9693L168.058 5.77858V0H164.839V5.75138L159.353 3.97838L158.375 7.02156L163.818 8.79155ZM170.062 13.8439L170.062 13.8439L170.92 13.2L167.343 8.26342L167.343 8.26342L170.92 13.2L170.062 13.8439ZM173.174 6.36748L173.174 6.36748L172.852 5.33008L172.852 5.33008L173.174 6.36748ZM166.985 7.26179V1.07317H165.912L166.985 1.07317V7.26179L166.985 7.26179ZM165.912 7.22601L160.045 5.33008L160.045 5.33009L165.912 7.22602V7.22601ZM166.449 8.87157L166.449 8.87155L162.8 13.8439L162.8 13.8439L166.449 8.87157Z" fill="#21C677"/>
</g>
<defs>
<clipPath id="clip0_201_658">
<rect width="174.513" height="44" fill="white"/>
</clipPath>
</defs>
</svg>
