<svg width="570" height="454" viewBox="0 0 570 454" fill="none" xmlns="http://www.w3.org/2000/svg">
<g opacity="0.3" clip-path="url(#clip0_31_7858)">
<path d="M942.05 854.348C942.05 877.446 935.578 895.913 922.633 908.442C890.687 939.735 822.401 932.847 734.698 890.034C563.568 806.488 365.004 610.359 292.086 452.826C258.834 380.977 256.043 326.111 284.367 298.44C316.135 267.325 384.599 274.035 472.302 316.847C643.433 400.453 841.937 596.523 914.855 753.997C932.965 793.009 942.05 826.914 942.05 854.348ZM293.689 452.173L295.293 451.401C368.151 608.28 565.765 803.578 736.302 886.887C822.579 928.987 889.619 935.934 920.377 905.948C947.454 879.346 944.485 825.905 911.826 755.481C839.206 598.661 641.414 403.303 470.936 320.054C384.658 277.895 317.619 270.947 286.861 300.993C259.725 327.536 262.753 380.977 295.352 451.401L293.689 452.173Z" fill="url(#paint0_linear_31_7858)"/>
<path d="M946.622 870.914C946.622 897.872 938.903 918.833 923.405 932.372C887.243 964.08 812.544 952.442 718.547 900.426C541.182 802.272 344.755 589.398 280.745 426.402C252.599 354.672 253.608 300.756 283.535 274.51C319.757 242.802 394.396 254.44 488.453 306.456C665.818 404.669 862.185 617.306 926.315 780.539C939.853 815.039 946.622 845.678 946.622 870.914ZM263.762 335.968C263.762 360.669 270.531 390.775 283.951 425.036C347.784 587.616 543.438 799.125 720.21 897.279C812.841 948.523 886.056 960.339 921.03 929.64C949.769 904.464 950.423 851.972 922.871 781.727C859.157 619.087 663.503 407.401 486.909 309.603C394.277 258.3 321.063 246.483 286.089 277.182C271.185 290.067 263.822 310.316 263.822 335.968H263.762Z" fill="url(#paint1_linear_31_7858)"/>
<path d="M950.067 886.293C950.067 918.002 940.744 942.11 922.218 956.598C881.068 988.722 800.134 971.562 700.021 909.511C517.252 796.275 324.745 567.309 270.888 399.147C248.146 327.892 253.074 275.401 284.664 250.699C325.754 218.634 406.747 235.795 506.861 297.787C689.57 411.023 882.077 639.989 935.994 808.15C944.638 833.329 949.384 859.681 950.067 886.293ZM260.318 320.766C261.014 347.063 265.74 373.096 274.332 397.959C327.773 565.468 519.805 793.543 701.862 906.423C800.669 967.583 879.999 984.803 920.021 953.926C950.423 930.175 954.876 878.812 932.609 809.279C879.168 641.829 687.136 413.695 505.079 300.874C406.332 239.655 326.942 222.435 286.98 253.371C269.225 267.088 260.318 290.186 260.318 320.766Z" fill="url(#paint2_linear_31_7858)"/>
<path d="M952.857 900.307C952.857 937.597 941.457 964.852 918.952 980.409C872.339 1012.59 784.992 989.376 679.238 916.636C492.135 787.902 305.15 543.023 262.931 370.823C245.474 299.568 254.143 249.927 288.048 226.472C334.661 194.289 422.008 217.506 527.762 290.246C714.866 418.98 901.851 663.859 944.069 836.118C949.553 857.086 952.504 878.636 952.857 900.307ZM257.646 306.516C258.03 327.848 260.96 349.058 266.375 369.695C308.772 541.479 494.747 785.349 681.257 913.727C785.705 985.575 871.627 1008.73 916.933 977.5C949.532 954.936 957.726 906.245 940.685 836.949C898.466 665.403 712.312 421.295 525.803 293.155C421.592 221.247 335.374 198.089 290.067 229.382C268.572 244.286 257.646 270.472 257.646 306.575V306.516Z" fill="url(#paint3_linear_31_7858)"/>
<path d="M954.283 911.411C954.283 956.064 940.447 987.772 913.311 1004.22C860.582 1036.11 766.823 1006.18 656.021 922.099C465.592 777.57 286.564 517.311 256.934 342.024C245.058 272.55 257.884 224.394 293.69 202.661C346.418 170.775 440.178 200.702 550.979 284.783C741.408 429.074 920.377 689.57 950.067 864.858C952.768 880.23 954.179 895.803 954.283 911.411ZM256.221 295.411C256.324 310.843 257.734 326.237 260.437 341.43C290.127 516.005 468.264 774.898 658.278 919.308C765.991 1001.25 860.998 1031.83 911.47 1001.19C945.91 980.291 958.024 933.381 946.563 865.451C916.874 690.936 738.736 431.687 548.723 287.633C440.772 205.69 346.062 174.812 295.412 205.69C269.522 221.247 256.221 252.124 256.221 295.411Z" fill="url(#paint4_linear_31_7858)"/>
<path d="M954.995 919.368C954.995 973.284 937.953 1010.51 904.998 1027.68C846.39 1058.31 743.724 1020.07 630.31 925.484C437.802 765.16 268.572 490.056 253.133 312.81C247.195 245.177 264.118 198.98 301.943 179.206C360.609 148.626 463.276 186.807 576.631 281.398C769.197 441.722 938.369 716.825 953.867 894.072C954.638 902.86 954.995 911.292 954.995 919.368ZM256.637 312.691C272.075 489.106 440.712 762.904 632.625 922.99C744.852 1016.63 846.39 1054.63 903.394 1024.71C939.853 1005.65 956.123 960.636 950.304 894.547C934.925 718.132 766.228 444.334 574.374 284.308C462.148 190.667 360.906 152.605 303.606 182.532C267.147 201.592 250.877 246.602 256.637 312.691Z" fill="url(#paint5_linear_31_7858)"/>
<path d="M955.173 923.405C955.173 988.722 933.974 1032.9 893.894 1050.54C827.864 1079.57 718.844 1033.26 602.223 926.552C409.003 749.84 251.886 461.317 251.886 283.358C251.886 218.04 273.085 173.862 313.166 156.167C379.195 127.131 488.215 173.447 604.836 280.151C797.996 456.982 955.173 745.446 955.173 923.405ZM255.33 283.476C255.33 460.545 411.972 747.881 604.598 924.059C720.15 1029.75 827.805 1075.89 892.469 1047.39C931.124 1030.35 951.848 987.535 951.848 923.524C951.848 746.456 795.205 459.12 602.639 282.942C486.909 177.128 379.195 130.991 314.709 159.493C275.994 176.534 255.33 219.406 255.33 283.417V283.476Z" fill="url(#paint6_linear_31_7858)"/>
<path d="M955.173 923.227C955.173 933.5 954.757 943.357 953.807 952.917C947.869 1016.1 922.099 1057.54 879.464 1072.86C805.419 1099.46 690.342 1044.3 571.643 925.305C379.136 732.383 236.27 431.152 253.133 253.905C259.071 190.726 284.901 149.22 327.476 133.9C401.581 107.417 516.598 162.58 635.357 281.517C817.473 464.048 955.173 743.487 955.173 923.227ZM255.33 283.833C255.33 462.623 392.615 741.052 574.137 922.871C691.886 1040.86 805.716 1095.66 878.277 1069.6C919.486 1054.81 944.425 1014.31 950.304 952.62C967.108 776.264 824.717 476.34 632.863 284.011C515.114 166.024 401.284 111.217 328.723 137.285C287.157 152.13 262.574 192.567 256.696 254.262C255.746 263.762 255.33 273.619 255.33 283.833Z" fill="url(#paint7_linear_31_7858)"/>
<path d="M955.47 918.061C955.584 939.58 953.595 961.059 949.532 982.191C937.656 1042.88 906.898 1081.65 861.413 1094.24C778.639 1117.16 657.98 1052.67 538.628 921.446C348.615 712.431 222.256 399.859 257.349 224.691C269.225 164.005 299.983 125.231 345.468 112.643C428.242 89.7222 548.901 154.208 668.253 285.436C837.246 470.639 955.41 737.846 955.47 918.061ZM255.33 289.058C255.33 468.324 373.376 734.402 541.597 919.071C659.999 1049.17 779.114 1113.42 860.819 1090.85C904.641 1078.62 934.212 1040.68 946.088 981.3C950.148 960.348 952.137 939.047 952.026 917.705C952.026 738.439 834.039 472.361 665.818 287.633C547.416 157.533 428.302 93.3442 346.596 115.908C302.477 128.081 272.906 165.906 260.971 225.225C256.996 246.266 255.107 267.647 255.33 289.058Z" fill="url(#paint8_linear_31_7858)"/>
<path d="M956.48 907.076C957.044 942.237 952.238 977.279 942.229 1010.99C923.643 1069.18 888.075 1104.93 839.265 1114.37C747.287 1132.18 621.7 1057.6 503.357 914.677C317.144 689.867 210.143 367.498 264.772 196.189C283.298 138.057 318.926 102.31 367.735 92.8097C459.714 74.996 585.301 149.636 703.643 292.502C856.841 477.29 956.48 728.404 956.48 907.076ZM254.024 300.043C254.024 477.824 353.306 727.929 506.089 912.361C623.481 1054.28 748.177 1128.44 838.612 1110.87C886.115 1101.66 920.733 1066.75 938.844 1009.92C993.117 839.443 886.412 518.558 700.912 294.58C583.4 152.723 459.12 78.4993 368.388 96.1349C320.885 105.339 286.267 140.254 268.156 197.079C258.236 230.482 253.47 265.203 254.024 300.043Z" fill="url(#paint9_linear_31_7858)"/>
<path d="M958.914 889.559C958.914 946.86 950.126 997.926 931.481 1038.96C906.244 1094.54 865.035 1126.96 812.307 1132.72C710.768 1143.82 581.203 1058.49 465.77 904.76C285.436 664.572 200.108 334.067 275.519 167.806C300.755 112.227 341.964 79.8059 394.634 74.046C496.231 62.9421 625.797 148.151 741.23 302.003C877.03 482.99 958.914 715.044 958.914 889.559ZM251.53 317.501C251.53 491.125 333.236 722.348 468.561 902.682C583.281 1055.46 711.659 1140.2 811.95 1129.21C863.373 1123.57 903.572 1091.86 928.274 1037.47C1003.21 872.458 918.061 543.498 738.261 304.259C623.54 151.417 495.163 66.7424 394.871 77.6682C343.449 83.6061 303.249 115.018 278.548 169.409C260.259 210.084 251.53 260.734 251.53 317.501Z" fill="url(#paint10_linear_31_7858)"/>
<path d="M963.605 865.214C963.605 944.841 948.701 1014.67 917.23 1065.97C884.749 1118.94 837.246 1147.56 779.945 1148.93C668.906 1151.36 536.491 1055.23 425.927 891.697C253.43 636.901 192.329 299.865 289.77 140.966C322.251 87.9407 369.695 59.2606 427.055 57.8354C538.094 55.3416 670.509 151.476 781.014 315.007C897.872 487.919 963.605 698.121 963.605 865.214ZM246.839 341.787C246.839 508.048 312.156 717.478 428.896 889.678C538.807 1052.26 670.034 1147.56 779.886 1145.36C835.94 1144.12 882.374 1116.03 914.202 1064.07C1010.99 906.245 949.829 571.228 778.104 317.204C668.134 154.624 536.966 59.0825 427.114 61.5171C371.06 62.764 324.626 91.2065 292.799 142.807C261.625 193.636 246.839 262.812 246.839 341.787Z" fill="url(#paint11_linear_31_7858)"/>
<path d="M971.265 834.337C971.265 939.675 947.87 1031.18 899.238 1091.57C858.742 1141.92 804.231 1166.33 741.349 1162.11C621.403 1154.09 487.859 1046.62 384.124 875.19C221.425 606.024 187.223 265.188 307.762 115.136C348.259 64.783 402.769 40.3781 465.651 44.594C585.597 52.6696 719.141 159.908 822.877 331.573C919.961 492.313 971.265 678.466 971.265 834.337ZM239.12 372.545C239.12 527.703 290.364 713.203 387.152 873.349C490.294 1044 622.769 1150.59 741.586 1158.37C803.163 1162.53 856.723 1138.6 896.447 1089.19C1016.16 940.388 981.835 601.333 819.848 333.355C716.707 162.758 584.232 56.1135 465.414 48.3348C403.838 44.1783 350.278 68.1082 310.494 117.512C262.337 177.366 239.12 268.097 239.12 372.545Z" fill="url(#paint12_linear_31_7858)"/>
<path d="M982.844 798.353C982.844 932.075 947.81 1047.75 877.327 1115.56C827.745 1163.06 764.982 1182.42 695.864 1171.37C568.08 1151.01 435.19 1032.78 340.361 855.06C190.013 572.772 184.907 230.154 329.673 91.3254C353.239 68.17 382.023 51.0139 413.601 41.3007C445.18 31.5874 478.63 29.6011 511.136 35.509C638.92 55.8761 771.929 174.159 866.936 351.881C944.128 496.707 982.844 657.446 982.844 798.353ZM227.6 408.41C227.6 548.723 266.375 708.928 343.508 853.397C437.802 1030.11 570.04 1147.56 696.458 1167.87C728.42 1173.68 761.311 1171.73 792.362 1162.18C823.414 1152.64 851.717 1135.77 874.892 1113C1018.53 975.243 1013.48 634.526 863.492 353.484C769.197 176.772 637.257 59.2014 510.542 38.7749C478.58 32.9581 445.688 34.9058 414.636 44.4539C383.583 54.0021 355.28 70.8713 332.108 93.6412C262.278 160.858 227.6 275.757 227.6 408.41Z" fill="url(#paint13_linear_31_7858)"/>
<path d="M998.935 759.519C998.935 923.346 948.463 1065.68 851.319 1137.53C791.286 1181.94 719.2 1195.12 642.898 1175.59C509.057 1141.45 378.958 1012.71 294.877 831.19C158.305 536.728 185.738 195.001 355.681 69.2958C415.654 24.9395 487.8 11.8167 564.102 31.2336C697.943 65.436 828.042 194.17 912.064 375.633C968.186 495.894 997.812 626.811 998.935 759.519ZM211.509 446.888C212.637 579.238 242.16 709.804 298.083 829.764C381.749 1010.22 510.958 1138.24 643.789 1172.2C719.022 1191.38 790.04 1178.14 849.241 1134.68C1017.88 1009.98 1044.6 670.153 908.62 377.177C825.014 196.664 695.805 68.405 562.974 34.6776C487.74 15.4982 416.723 28.4429 357.522 72.2052C261.565 143.401 211.509 284.604 211.509 446.888Z" fill="url(#paint14_linear_31_7858)"/>
<path d="M1020.13 720.685C1020.13 915.033 949.354 1084.86 821.095 1157.12C748.949 1197.8 666.293 1203.44 581.916 1173.51C444.453 1124.58 319.519 986.288 247.73 803.519C128.081 498.251 190.013 160.146 385.965 49.76C458.17 9.08521 540.825 3.44421 624.966 33.3713C762.488 82.2998 887.421 220.594 959.211 403.363C999.011 504.447 1019.67 612.049 1020.13 720.685ZM190.31 486.019C190.809 594.285 211.469 701.511 251.233 802.213C322.488 984.031 446.769 1121.61 583.281 1170.36C666.412 1200.05 748.118 1194.11 819.373 1154.21C1013.78 1044.66 1074.7 708.512 955.945 404.847C884.69 223.028 760.409 85.5062 623.837 36.6965C540.707 7.00696 459.06 12.9449 387.805 52.8477C260.496 124.518 190.31 293.036 190.31 486.019Z" fill="url(#paint15_linear_31_7858)"/>
<path d="M1046.8 684.404C1046.8 908.739 950.007 1105.52 786.596 1173.69C700.318 1209.97 605.667 1206.47 513.511 1163.77C375.217 1100.06 257.884 953.392 199.692 771.81C98.7477 457.101 197.851 125.765 420.405 32.8962C506.682 -3.08752 601.095 0.415771 693.549 43.1094C831.843 106.942 948.879 253.49 1007.37 435.012C1033.29 515.613 1046.59 599.738 1046.8 684.404ZM163.708 522.062C163.902 606.491 177.182 690.381 203.077 770.742C261.268 951.61 377.592 1097.15 514.996 1160.57C606.439 1202.84 699.902 1206.35 785.23 1170.72C947.276 1103.09 1043.29 907.67 1043.29 684.82C1043.1 600.41 1029.82 516.54 1003.92 436.199C946.029 255.509 829.408 109.614 692.005 46.3158C600.501 4.09729 507.098 0.593994 421.77 36.1621C259.665 103.795 163.708 299.212 163.708 522.062Z" fill="url(#paint16_linear_31_7858)"/>
<path d="M1078.92 653.824C1078.92 906.957 949.651 1128.86 747.584 1187.82C645.214 1217.51 537.975 1203.08 437.565 1145.31C299.627 1065.92 195.001 916.755 150.467 736.005C71.2553 413.814 209.609 92.2162 459.357 19.3579C561.786 -10.6285 669.025 4.03821 769.435 61.8734C907.373 141.204 1012 290.364 1056.53 471.115C1071.33 530.893 1078.85 592.241 1078.92 653.824ZM131.584 552.88C131.646 614.283 139.143 675.453 153.911 735.055C198.208 914.974 302.24 1063.3 439.406 1142.22C538.866 1199.52 645.155 1214.13 746.634 1184.38C947.098 1125.71 1075.42 905.295 1075.42 653.884C1075.36 592.499 1067.86 531.349 1053.09 471.768C1008.79 291.908 904.642 143.579 767.654 64.6643C668.075 7.3634 561.846 -7.18457 460.367 22.505C259.903 81.1716 131.584 301.468 131.584 552.998V552.88Z" fill="url(#paint17_linear_31_7858)"/>
<path d="M1116.33 629.479C1116.33 910.045 947.632 1153.5 704.118 1198.15C585.36 1220.06 461.198 1191.26 355.147 1117.1C222.969 1024.59 130.159 871.092 100.529 696.28C45.0688 368.388 225.225 60.0326 502.882 9.02588C621.64 -12.9443 745.802 15.8546 851.853 90.0785C984.031 182.591 1076.84 336.027 1106.47 511.136C1113.06 550.239 1116.35 589.825 1116.33 629.479ZM94.0566 577.522C94.0549 617.101 97.3919 656.609 104.032 695.627C133.722 869.786 225.76 1022.21 357.166 1114.37C462.445 1187.82 585.419 1216.38 703.465 1194.65C945.316 1150.12 1113.18 908.442 1113.18 629.538C1113.18 589.959 1109.84 550.451 1103.21 511.433C1073.52 337.333 981.478 184.848 850.012 92.6912C744.793 19.061 621.818 -9.50037 503.773 12.2324C261.684 56.7668 94.0566 298.44 94.0566 577.522Z" fill="url(#paint18_linear_31_7858)"/>
<path d="M1159.26 612.615C1159.26 919.664 943.356 1179.51 656.08 1204.63C351.049 1231.35 79.2711 983.378 50.4128 651.864C36.3993 491.541 80.6962 335.314 175.109 212.459C269.522 89.6033 403.125 15.0231 550.979 2.07837C698.833 -10.8663 843.184 39.7247 957.548 144.054C1071.91 248.383 1142.69 394.396 1156.77 554.898C1158.43 574.375 1159.26 593.614 1159.26 612.615ZM51.2441 593.673C51.2441 612.833 52.0952 632.131 53.7974 651.568C82.5963 981.3 352.653 1227.66 655.783 1201C941.219 1176 1155.7 917.705 1155.7 612.496C1155.7 593.554 1154.92 574.493 1153.2 555.255C1139.25 395.584 1068.88 250.461 955.173 146.667C841.462 42.8719 698.002 -7.18469 551.395 5.64111C404.788 18.467 271.778 92.8691 178.137 214.775C95.0946 323.562 50.4682 456.815 51.2441 593.673Z" fill="url(#paint19_linear_31_7858)"/>
<path d="M1207 603.47C1207 722.837 1171.6 839.523 1105.29 938.773C1038.97 1038.02 944.712 1115.38 834.432 1161.06C724.151 1206.74 602.801 1218.69 485.728 1195.4C368.655 1172.12 261.116 1114.64 176.711 1030.23C92.3058 945.825 34.8252 838.286 11.5378 721.213C-11.7495 604.14 0.202416 482.79 45.8822 372.509C91.5619 262.229 168.918 167.97 268.168 101.653C367.418 35.3368 484.104 -0.0596924 603.471 -0.0596924C763.484 0.113159 916.893 63.7548 1030.04 176.901C1143.19 290.047 1206.83 443.457 1207 603.47ZM3.56332 603.47C3.56332 722.085 38.7368 838.037 104.636 936.662C170.535 1035.29 264.2 1112.16 373.786 1157.55C483.372 1202.94 603.958 1214.82 720.294 1191.68C836.63 1168.54 943.492 1111.42 1027.37 1027.54C1111.24 943.669 1168.36 836.808 1191.5 720.471C1214.64 604.135 1202.76 483.55 1157.37 373.964C1111.98 264.377 1035.11 170.712 936.485 104.813C837.86 38.9142 721.908 3.7406 603.293 3.7406C444.302 3.96045 291.886 67.2167 179.463 179.64C67.0395 292.064 3.78324 444.479 3.56332 603.47Z" fill="url(#paint20_linear_31_7858)"/>
</g>
<defs>
<linearGradient id="paint0_linear_31_7858" x1="603.47" y1="927.8" x2="603.47" y2="279.142" gradientUnits="userSpaceOnUse">
<stop stop-color="#83A4D4"/>
<stop offset="0.95" stop-color="#B4F7FD"/>
<stop offset="1" stop-color="#B6FBFF"/>
</linearGradient>
<linearGradient id="paint1_linear_31_7858" x1="603.47" y1="949.948" x2="603.47" y2="256.993" gradientUnits="userSpaceOnUse">
<stop stop-color="#83A4D4"/>
<stop offset="0.95" stop-color="#B4F7FD"/>
<stop offset="1" stop-color="#B6FBFF"/>
</linearGradient>
<linearGradient id="paint2_linear_31_7858" x1="603.47" y1="972.274" x2="603.47" y2="234.607" gradientUnits="userSpaceOnUse">
<stop stop-color="#83A4D4"/>
<stop offset="0.95" stop-color="#B4F7FD"/>
<stop offset="1" stop-color="#B6FBFF"/>
</linearGradient>
<linearGradient id="paint3_linear_31_7858" x1="603.47" y1="994.601" x2="603.47" y2="212.34" gradientUnits="userSpaceOnUse">
<stop stop-color="#83A4D4"/>
<stop offset="0.95" stop-color="#B4F7FD"/>
<stop offset="1" stop-color="#B6FBFF"/>
</linearGradient>
<linearGradient id="paint4_linear_31_7858" x1="603.471" y1="1016.69" x2="603.471" y2="190.192" gradientUnits="userSpaceOnUse">
<stop stop-color="#83A4D4"/>
<stop offset="0.95" stop-color="#B4F7FD"/>
<stop offset="1" stop-color="#B6FBFF"/>
</linearGradient>
<linearGradient id="paint5_linear_31_7858" x1="603.47" y1="1038.01" x2="603.47" y2="168.874" gradientUnits="userSpaceOnUse">
<stop stop-color="#83A4D4"/>
<stop offset="0.95" stop-color="#B4F7FD"/>
<stop offset="1" stop-color="#B6FBFF"/>
</linearGradient>
<linearGradient id="paint6_linear_31_7858" x1="603.47" y1="1059.15" x2="603.47" y2="147.736" gradientUnits="userSpaceOnUse">
<stop stop-color="#83A4D4"/>
<stop offset="0.95" stop-color="#B4F7FD"/>
<stop offset="1" stop-color="#B6FBFF"/>
</linearGradient>
<linearGradient id="paint7_linear_31_7858" x1="603.47" y1="1079.45" x2="603.47" y2="127.428" gradientUnits="userSpaceOnUse">
<stop stop-color="#83A4D4"/>
<stop offset="0.95" stop-color="#B4F7FD"/>
<stop offset="1" stop-color="#B6FBFF"/>
</linearGradient>
<linearGradient id="paint8_linear_31_7858" x1="603.47" y1="1098.81" x2="603.47" y2="108.13" gradientUnits="userSpaceOnUse">
<stop stop-color="#83A4D4"/>
<stop offset="0.95" stop-color="#B4F7FD"/>
<stop offset="1" stop-color="#B6FBFF"/>
</linearGradient>
<linearGradient id="paint9_linear_31_7858" x1="603.471" y1="1116.92" x2="603.471" y2="89.9595" gradientUnits="userSpaceOnUse">
<stop stop-color="#83A4D4"/>
<stop offset="0.95" stop-color="#B4F7FD"/>
<stop offset="1" stop-color="#B6FBFF"/>
</linearGradient>
<linearGradient id="paint10_linear_31_7858" x1="603.47" y1="1133.67" x2="603.47" y2="73.2148" gradientUnits="userSpaceOnUse">
<stop stop-color="#83A4D4"/>
<stop offset="0.95" stop-color="#B4F7FD"/>
<stop offset="1" stop-color="#B6FBFF"/>
</linearGradient>
<linearGradient id="paint11_linear_31_7858" x1="603.47" y1="1148.93" x2="603.47" y2="57.9544" gradientUnits="userSpaceOnUse">
<stop stop-color="#83A4D4"/>
<stop offset="0.95" stop-color="#B4F7FD"/>
<stop offset="1" stop-color="#B6FBFF"/>
</linearGradient>
<linearGradient id="paint12_linear_31_7858" x1="603.471" y1="1162.58" x2="603.471" y2="44.2971" gradientUnits="userSpaceOnUse">
<stop stop-color="#83A4D4"/>
<stop offset="0.95" stop-color="#B4F7FD"/>
<stop offset="1" stop-color="#B6FBFF"/>
</linearGradient>
<linearGradient id="paint13_linear_31_7858" x1="603.47" y1="1174.4" x2="603.47" y2="32.4806" gradientUnits="userSpaceOnUse">
<stop stop-color="#83A4D4"/>
<stop offset="0.95" stop-color="#B4F7FD"/>
<stop offset="1" stop-color="#B6FBFF"/>
</linearGradient>
<linearGradient id="paint14_linear_31_7858" x1="603.47" y1="1184.38" x2="603.47" y2="22.505" gradientUnits="userSpaceOnUse">
<stop stop-color="#83A4D4"/>
<stop offset="0.95" stop-color="#B4F7FD"/>
<stop offset="1" stop-color="#B6FBFF"/>
</linearGradient>
<linearGradient id="paint15_linear_31_7858" x1="603.47" y1="1192.45" x2="603.47" y2="14.4294" gradientUnits="userSpaceOnUse">
<stop stop-color="#83A4D4"/>
<stop offset="0.95" stop-color="#B4F7FD"/>
<stop offset="1" stop-color="#B6FBFF"/>
</linearGradient>
<linearGradient id="paint16_linear_31_7858" x1="603.47" y1="1198.63" x2="603.47" y2="8.25386" gradientUnits="userSpaceOnUse">
<stop stop-color="#83A4D4"/>
<stop offset="0.95" stop-color="#B4F7FD"/>
<stop offset="1" stop-color="#B6FBFF"/>
</linearGradient>
<linearGradient id="paint17_linear_31_7858" x1="603.471" y1="1202.96" x2="603.471" y2="3.97876" gradientUnits="userSpaceOnUse">
<stop stop-color="#83A4D4"/>
<stop offset="0.95" stop-color="#B4F7FD"/>
<stop offset="1" stop-color="#B6FBFF"/>
</linearGradient>
<linearGradient id="paint18_linear_31_7858" x1="603.47" y1="1205.28" x2="603.47" y2="1.60347" gradientUnits="userSpaceOnUse">
<stop stop-color="#83A4D4"/>
<stop offset="0.95" stop-color="#B4F7FD"/>
<stop offset="1" stop-color="#B6FBFF"/>
</linearGradient>
<linearGradient id="paint19_linear_31_7858" x1="603.47" y1="1206.58" x2="603.47" y2="0.237525" gradientUnits="userSpaceOnUse">
<stop stop-color="#83A4D4"/>
<stop offset="0.95" stop-color="#B4F7FD"/>
<stop offset="1" stop-color="#B6FBFF"/>
</linearGradient>
<linearGradient id="paint20_linear_31_7858" x1="603.471" y1="1206.94" x2="603.471" y2="-0.0596305" gradientUnits="userSpaceOnUse">
<stop stop-color="#83A4D4"/>
<stop offset="0.95" stop-color="#B4F7FD"/>
<stop offset="1" stop-color="#B6FBFF"/>
</linearGradient>
<clipPath id="clip0_31_7858">
<rect width="1207" height="1207" fill="white" transform="matrix(0 -1 1 0 0 1207)"/>
</clipPath>
</defs>
</svg>
