<svg width="24" height="24" viewBox="0 0 24 24" fill="none" xmlns="http://www.w3.org/2000/svg">
<g clip-path="url(#clip0_4_331)">
<path d="M12.8399 1.86871L15.5656 7.37157C15.6276 7.51124 15.7251 7.63222 15.8484 7.72246C15.9718 7.81269 16.1166 7.86903 16.2685 7.88586L22.2856 8.77728C22.4598 8.79968 22.6241 8.87118 22.7592 8.98344C22.8943 9.09569 22.9947 9.24407 23.0486 9.41125C23.1025 9.57842 23.1078 9.75749 23.0637 9.92754C23.0197 10.0976 22.9282 10.2516 22.7999 10.3716L18.4627 14.6744C18.352 14.7778 18.269 14.9073 18.2211 15.051C18.1732 15.1947 18.162 15.3481 18.1885 15.4973L19.2342 21.5487C19.2644 21.7226 19.2453 21.9015 19.1789 22.065C19.1126 22.2286 19.0016 22.3702 18.8587 22.4738C18.7158 22.5774 18.5467 22.6388 18.3706 22.651C18.1946 22.6633 18.0186 22.6258 17.8627 22.543L12.4456 19.6801C12.3069 19.612 12.1544 19.5766 11.9999 19.5766C11.8454 19.5766 11.6929 19.612 11.5542 19.6801L6.13703 22.543C5.98118 22.6258 5.8052 22.6633 5.62913 22.651C5.45305 22.6388 5.28395 22.5774 5.14105 22.4738C4.99816 22.3702 4.88721 22.2286 4.82083 22.065C4.75446 21.9015 4.73532 21.7226 4.7656 21.5487L5.81131 15.4287C5.83781 15.2796 5.8266 15.1262 5.7787 14.9824C5.73079 14.8387 5.64772 14.7093 5.53703 14.6059L1.14845 10.3716C1.01862 10.2483 0.927311 10.09 0.885592 9.91594C0.843874 9.74184 0.853534 9.55937 0.913403 9.39065C0.973272 9.22193 1.08078 9.07419 1.22291 8.96532C1.36503 8.85646 1.53568 8.79114 1.71417 8.77728L7.73131 7.88586C7.88319 7.86903 8.02801 7.81269 8.15134 7.72246C8.27466 7.63222 8.37218 7.51124 8.43417 7.37157L11.1599 1.86871C11.2341 1.70844 11.3526 1.57275 11.5015 1.47766C11.6503 1.38256 11.8233 1.33203 11.9999 1.33203C12.1765 1.33203 12.3494 1.38256 12.4983 1.47766C12.6471 1.57275 12.7657 1.70844 12.8399 1.86871Z" fill="#21C677" stroke="#21C677" stroke-width="1.5" stroke-linecap="round" stroke-linejoin="round"/>
</g>
<defs>
<clipPath id="clip0_4_331">
<rect width="24" height="24" fill="white"/>
</clipPath>
</defs>
</svg>
