<svg width="80" height="80" viewBox="0 0 80 80" fill="none" xmlns="http://www.w3.org/2000/svg">
<g id="logos">
<path id="path1948" d="M39.7893 3.0006C36.8022 3.01448 33.9496 3.26923 31.4397 3.71337C24.0456 5.01966 22.7031 7.75383 22.7031 12.7961V19.4554H40.1762V21.6752H22.7031H16.1456C11.0675 21.6752 6.6209 24.7274 5.23006 30.5339C3.62575 37.1894 3.55459 41.3426 5.23006 48.2921C6.47211 53.465 9.43829 57.1508 14.5165 57.1508H20.5241V49.1677C20.5241 43.4005 25.5141 38.3133 31.4397 38.3133H48.8924C53.7506 38.3133 57.6289 34.3132 57.6289 29.4342V12.7961C57.6289 8.0608 53.6342 4.50367 48.8924 3.71337C45.8908 3.21371 42.7763 2.98672 39.7893 3.0006ZM30.34 8.35656C32.1448 8.35656 33.6187 9.85453 33.6187 11.6964C33.6187 13.5317 32.1448 15.0159 30.34 15.0159C28.5287 15.0159 27.0612 13.5317 27.0612 11.6964C27.0612 9.85453 28.5287 8.35656 30.34 8.35656Z" fill="url(#paint0_linear_506_220)"/>
<path id="path1950" d="M59.8079 21.6748V29.4338C59.8079 35.4493 54.708 40.5123 48.8924 40.5123H31.4397C26.6591 40.5123 22.7031 44.6038 22.7031 49.3914V66.0295C22.7031 70.7648 26.8208 73.55 31.4397 74.9086C36.9707 76.5349 42.2746 76.8288 48.8924 74.9086C53.2913 73.6349 57.6289 71.0718 57.6289 66.0295V59.3702H40.1762V57.1504H57.6289H66.3654C71.4436 57.1504 73.3359 53.6083 75.102 48.2917C76.9262 42.8183 76.8486 37.5548 75.102 30.5335C73.847 25.4782 71.4501 21.6748 66.3654 21.6748H59.8079ZM49.9921 63.8097C51.8034 63.8097 53.2708 65.2939 53.2708 67.1292C53.2708 68.9711 51.8034 70.469 49.9921 70.469C48.1872 70.469 46.7133 68.9711 46.7133 67.1292C46.7133 65.2939 48.1872 63.8097 49.9921 63.8097Z" fill="url(#paint1_linear_506_220)"/>
</g>
<defs>
<linearGradient id="paint0_linear_506_220" x1="4" y1="3" x2="44.291" y2="37.3335" gradientUnits="userSpaceOnUse">
<stop stop-color="#5A9FD4"/>
<stop offset="1" stop-color="#306998"/>
</linearGradient>
<linearGradient id="paint1_linear_506_220" x1="49.5722" y1="66.5693" x2="35.1173" y2="46.3137" gradientUnits="userSpaceOnUse">
<stop stop-color="#FFD43B"/>
<stop offset="1" stop-color="#FFE873"/>
</linearGradient>
</defs>
</svg>
