<svg width="57" height="80" viewBox="0 0 57 80" fill="none" xmlns="http://www.w3.org/2000/svg">
<g id="layer1">
<g id="g3013">
<path id="polygon2989" d="M56.6772 15.7217L51.5138 73.5653L28.3039 79.9998L5.15797 73.5743L0 15.7217H56.6772Z" fill="#264DE4"/>
<path id="polygon2991" d="M47.0933 69.8822L51.5058 20.4521H28.3386V75.0817L47.0933 69.8822Z" fill="#2965F1"/>
<path id="polygon2993" d="M11.8245 41.9092L12.4604 49.0045H28.3385V41.9092H11.8245Z" fill="#EBEBEB"/>
<path id="polygon2995" d="M28.3385 27.5479H28.314H10.5466L11.1916 34.6433H28.3385V27.5479Z" fill="#EBEBEB"/>
<path id="polygon2997" d="M28.3387 67.7183V60.3361L28.3076 60.3444L20.4054 58.2107L19.9003 52.5518H16.0604H12.7776L13.7717 63.6925L28.306 67.7274L28.3387 67.7183Z" fill="#EBEBEB"/>
<path id="path2999" d="M13.3386 0H21.9324V3.59375H16.9324V7.1875H21.9324V10.7812H13.3386V0Z" fill="black"/>
<path id="path3001" d="M23.6511 0H32.2449V3.125H27.2449V3.75H32.2449V10.9375H23.6511V7.65625H28.6511V7.03125H23.6511V0Z" fill="black"/>
<path id="path3003" d="M33.9636 0H42.5574V3.125H37.5574V3.75H42.5574V10.9375H33.9636V7.65625H38.9636V7.03125H33.9636V0Z" fill="black"/>
<path id="polygon3005" d="M37.0512 49.0044L36.2276 58.2066L28.314 60.3425V67.7244L42.8599 63.693L42.9666 62.4943L44.634 43.8144L44.8071 41.9091L46.088 27.5479H28.314V34.6433H38.3121L37.6665 41.9091H28.314V49.0044H37.0512Z" fill="white"/>
</g>
</g>
</svg>
