<svg width="70" height="70" viewBox="0 0 70 70" fill="none" xmlns="http://www.w3.org/2000/svg">
<g id="Group 1">
<path id="Vector" d="M29.225 69.6503C12.6 66.6753 0 52.3253 0 35.0002C0 15.7501 15.75 0 35 0C54.25 0 70 15.7501 70 35.0002C70 52.3253 57.4 66.6753 40.775 69.6503L38.85 68.0753H31.15L29.225 69.6503Z" fill="url(#paint0_linear_506_292)"/>
<path id="Vector_2" d="M48.6499 44.7996L50.2249 34.9995H40.9499V28.1745C40.9499 25.3745 41.9999 23.2745 46.1999 23.2745H50.7499V14.3494C48.2999 13.9994 45.4999 13.6494 43.0499 13.6494C34.9999 13.6494 29.3999 18.5494 29.3999 27.2995V34.9995H20.6499V44.7996H29.3999V69.4747C31.3249 69.8247 33.2499 69.9997 35.1749 69.9997C37.0999 69.9997 39.0249 69.8247 40.9499 69.4747V44.7996H48.6499Z" fill="white"/>
</g>
<defs>
<linearGradient id="paint0_linear_506_292" x1="35.0017" y1="67.5659" x2="35.0017" y2="-0.0128937" gradientUnits="userSpaceOnUse">
<stop stop-color="#0062E0"/>
<stop offset="1" stop-color="#19AFFF"/>
</linearGradient>
</defs>
</svg>
