<svg width="80" height="80" viewBox="0 0 80 80" fill="none" xmlns="http://www.w3.org/2000/svg">
<g id="logos">
<path id="Vector" fill-rule="evenodd" clip-rule="evenodd" d="M46.5477 2C46.0006 2 45.4926 2.11724 45.0237 2.27354C46.0201 2.93785 46.5672 3.81709 46.8408 4.81355C46.8603 4.95032 46.8994 5.04801 46.9189 5.18478C46.9385 5.30201 46.958 5.41924 46.958 5.53648C47.0362 7.25586 46.5086 7.47078 46.1374 8.48679C45.5707 9.79587 45.7271 11.2026 46.4109 12.3359C46.4695 12.4726 46.5477 12.629 46.6454 12.7657C45.9029 7.82248 50.0255 7.08002 50.7875 5.53648C50.8461 4.18831 49.7325 3.28954 48.8532 2.66431C48.0131 2.15631 47.2511 2 46.5477 2ZM52.7609 3.1137C52.6827 3.56308 52.7414 3.44585 52.7219 3.68031C52.7023 3.83662 52.7023 4.03201 52.6828 4.18831C52.6438 4.34462 52.6046 4.50093 52.5461 4.65724C52.507 4.81355 52.4484 4.96986 52.3898 5.12616C52.3116 5.28248 52.253 5.41924 52.1748 5.57555C52.1162 5.65373 52.0771 5.73185 52.0185 5.81001C51.9795 5.86863 51.9403 5.92724 51.9013 5.98586C51.8036 6.12263 51.7059 6.2594 51.6082 6.37663C51.491 6.49386 51.3933 6.63063 51.2565 6.72833V6.74789C51.1393 6.84558 51.0221 6.96281 50.8853 7.0605C50.475 7.37312 50.0061 7.60758 49.5762 7.90066C49.4394 7.99835 49.3027 8.07651 49.1854 8.19374C49.0487 8.29143 48.9314 8.38912 48.8142 8.50635C48.6774 8.62358 48.5797 8.74082 48.4625 8.87759C48.3648 8.99482 48.2476 9.13159 48.1694 9.26836C48.0717 9.40512 47.974 9.5419 47.8959 9.67866C47.8177 9.83497 47.7591 9.97174 47.681 10.128C47.6224 10.2844 47.5637 10.4211 47.5247 10.5774C47.466 10.7533 47.427 10.9096 47.3879 11.0659C47.3683 11.1441 47.3683 11.2417 47.3488 11.3199C47.3292 11.3981 47.3293 11.4762 47.3098 11.5544C47.3098 11.7107 47.2902 11.8865 47.2902 12.0428C47.2902 12.1601 47.2902 12.2773 47.3098 12.3945C47.3098 12.5508 47.3294 12.7071 47.3684 12.883C47.388 13.0393 47.427 13.1956 47.4661 13.3519C47.5247 13.5082 47.5638 13.6645 47.6224 13.8208C47.6615 13.9185 47.7201 14.0162 47.7592 14.0944L43.2653 12.3554C42.5033 12.1405 41.7609 11.9451 40.9989 11.7693C40.5886 11.6716 40.1782 11.5739 39.7679 11.4762C38.5956 11.2417 37.4038 11.0659 36.2119 10.9487C36.1729 10.9487 36.1533 10.9291 36.1142 10.9291C34.9419 10.8119 33.7892 10.7533 32.6168 10.7533C31.7571 10.7533 30.8974 10.7923 30.0573 10.851C28.8654 10.9291 27.6736 11.0854 26.4817 11.2808C26.1887 11.3198 25.8956 11.3785 25.6025 11.4371C24.9968 11.5543 24.4107 11.6911 23.844 11.8279C23.551 11.9061 23.2579 11.9842 22.9648 12.0623C22.6717 12.1796 22.3982 12.3163 22.1246 12.4336C21.9097 12.5313 21.6948 12.629 21.4799 12.7267C21.4408 12.7462 21.4017 12.7462 21.3822 12.7657C21.1868 12.8634 21.0109 12.9415 20.8351 13.0392C20.7765 13.0588 20.7374 13.0783 20.6983 13.0979C20.4834 13.1955 20.2685 13.3128 20.0926 13.4105C19.9559 13.4691 19.8191 13.5472 19.7019 13.6059C19.6433 13.6449 19.5651 13.684 19.526 13.7036C19.3502 13.8012 19.1743 13.8989 19.018 13.9966C18.8422 14.0943 18.6859 14.192 18.5491 14.2897C18.4123 14.3874 18.2756 14.4655 18.1583 14.5632C18.1387 14.5828 18.1193 14.5828 18.0997 14.6023C17.9825 14.6805 17.8457 14.7781 17.7285 14.8758C17.7285 14.8758 17.7089 14.8954 17.6894 14.9149C17.5917 14.9931 17.494 15.0712 17.3964 15.1493C17.3573 15.1689 17.3182 15.2079 17.2791 15.2275C17.1814 15.3057 17.0837 15.4034 16.986 15.4815C16.9665 15.5206 16.9274 15.5401 16.9079 15.5597C16.7906 15.6769 16.6734 15.7746 16.5562 15.8919C16.5366 15.8919 16.5366 15.9114 16.5171 15.9309C16.3999 16.0286 16.2827 16.1458 16.1654 16.2631C16.1459 16.2826 16.1459 16.3021 16.1264 16.3021C16.0287 16.3998 15.931 16.4975 15.8333 16.6147C15.7943 16.6538 15.7356 16.6929 15.6965 16.732C15.5988 16.8492 15.4816 16.9664 15.3644 17.0837C15.3448 17.1227 15.3058 17.1423 15.2862 17.1813C15.1299 17.3377 14.9931 17.494 14.8368 17.6503C14.8172 17.6698 14.7978 17.6893 14.7782 17.7089C14.4656 18.041 14.1334 18.3732 13.7817 18.6663C13.43 18.9789 13.0588 19.272 12.6876 19.526C12.2968 19.7995 11.9256 20.034 11.5153 20.2684C11.1245 20.4833 10.7142 20.6787 10.2843 20.8546C9.87402 21.0304 9.44418 21.1867 9.01433 21.3235C8.19371 21.4994 7.35355 21.8315 6.63063 21.8901C6.47432 21.8901 6.29847 21.9292 6.14216 21.9487C5.96632 21.9878 5.81001 22.0269 5.65371 22.066C5.4974 22.1246 5.34108 22.1832 5.18478 22.2418C5.02847 22.3004 4.87216 22.3786 4.71586 22.4567C4.57908 22.5544 4.42278 22.6326 4.286 22.7303C4.14924 22.828 4.01247 22.9452 3.89523 23.0624C3.75847 23.1601 3.6217 23.2969 3.50446 23.4141C3.38723 23.5509 3.27 23.6681 3.17231 23.8049C3.07462 23.9612 2.95739 24.098 2.87923 24.2543C2.78154 24.3911 2.68385 24.5474 2.60569 24.7037C2.52751 24.8795 2.44939 25.0358 2.39077 25.2117C2.33215 25.368 2.27354 25.5438 2.21492 25.7197C2.17587 25.876 2.13674 26.0323 2.11723 26.1886C2.11723 26.2082 2.09766 26.2276 2.09766 26.2472C2.05862 26.4231 2.05862 26.6575 2.03905 26.7748C2.01948 26.9115 2 27.0288 2 27.1655C2 27.2437 2 27.3414 2.01957 27.4195C2.03914 27.5563 2.05861 27.6735 2.09775 27.7908C2.1368 27.908 2.17594 28.0252 2.23452 28.1425V28.162C2.29313 28.2793 2.37129 28.3965 2.44944 28.5137C2.52763 28.6309 2.60576 28.7482 2.70345 28.8654C2.80114 28.9631 2.91837 29.0803 3.0356 29.178C3.15283 29.2953 3.27006 29.3929 3.40683 29.4906C3.87576 29.901 3.99299 30.0377 4.59868 30.3503C4.69637 30.409 4.79407 30.448 4.9113 30.5066C4.93088 30.5066 4.95035 30.5262 4.96992 30.5262C4.96992 30.5653 4.96992 30.5848 4.98949 30.6239C5.00906 30.7802 5.04811 30.9365 5.08718 31.0928C5.12623 31.2687 5.18488 31.425 5.2435 31.5618C5.30211 31.679 5.34119 31.7962 5.3998 31.9135C5.41937 31.9525 5.43885 31.9916 5.45842 32.0111C5.5366 32.1674 5.61473 32.3042 5.69287 32.441C5.79057 32.5778 5.88826 32.7145 5.98595 32.8513C6.08364 32.9685 6.20088 33.1053 6.31811 33.2225C6.43534 33.3398 6.55257 33.4375 6.68935 33.5547C6.68935 33.5547 6.70892 33.5743 6.72839 33.5743C6.84562 33.672 6.96286 33.7697 7.08009 33.8478C7.21685 33.9455 7.35363 34.0237 7.50993 34.1018C7.64671 34.18 7.80301 34.2581 7.95932 34.3167C8.07655 34.3754 8.21331 34.4144 8.35009 34.4535C8.36966 34.4731 8.38914 34.4731 8.42827 34.4926C8.50646 34.5122 8.60411 34.5316 8.68227 34.5512C8.62365 35.6063 8.60408 36.6027 8.76046 36.9544C8.93629 37.3452 9.79599 36.1533 10.6557 34.7856C10.5385 36.1338 10.4603 37.7164 10.6557 38.1853C10.8706 38.6738 12.0429 37.1498 13.0589 35.4695C26.9117 32.2652 39.5532 41.839 40.8818 55.3597C40.6278 53.2495 38.0292 52.0772 36.8373 52.3703C36.2512 53.8162 35.2547 55.6723 33.6525 56.8251C33.7893 55.5355 33.7307 54.2069 33.4572 52.9174C33.0273 54.7149 32.1871 56.3952 31.0344 57.8411C29.1782 57.9779 27.322 57.0791 26.3451 55.7309C26.2669 55.6723 26.2474 55.5551 26.1888 55.4769C26.1302 55.3401 26.0716 55.2034 26.0325 55.0666C25.9739 54.9299 25.9348 54.7931 25.9153 54.6563C25.8957 54.5195 25.8957 54.3828 25.8957 54.2265C25.8957 54.1288 25.8957 54.0311 25.8957 53.9334C25.9153 53.7966 25.9543 53.6598 25.9934 53.5231C26.0324 53.3863 26.0716 53.2495 26.1302 53.1128C26.2083 52.976 26.2669 52.8392 26.3646 52.7025C26.6968 51.7646 26.6968 51.0026 26.0911 50.5532C25.9739 50.475 25.8566 50.4164 25.7198 50.3578C25.6417 50.3383 25.544 50.2992 25.4659 50.2796C25.4072 50.2601 25.3682 50.2406 25.3095 50.221C25.1728 50.182 25.036 50.1428 24.8992 50.1233C24.7625 50.0843 24.6257 50.0647 24.4889 50.0647C24.3522 50.0451 24.1958 50.0257 24.0591 50.0257C23.9614 50.0257 23.8637 50.0452 23.766 50.0452C23.6097 50.0452 23.4729 50.0648 23.3362 50.1039C23.1994 50.1234 23.0626 50.1429 22.9258 50.182C22.7891 50.2211 22.6523 50.2602 22.5155 50.3188C22.3788 50.3774 22.2615 50.436 22.1248 50.4947C22.0075 50.5533 21.8903 50.6314 21.7535 50.69C17.2011 53.6599 19.9169 60.6156 23.0235 62.6281C21.8512 62.843 20.6594 63.097 20.3272 63.351C20.3077 63.3706 20.2882 63.3901 20.2882 63.3901C21.1283 63.898 22.0076 64.3279 22.9259 64.6991C24.1763 65.1094 25.505 65.4807 26.0911 65.637V65.6565C27.7128 65.9887 29.354 66.1059 31.0148 66.0082C39.6704 65.4025 46.7629 58.8181 48.0524 50.143C48.0915 50.3188 48.1306 50.4751 48.1697 50.651C48.2283 51.0026 48.3064 51.3739 48.3455 51.7451V51.7647C48.3845 51.9406 48.4041 52.1164 48.4237 52.2727V52.3509C48.4433 52.5267 48.4627 52.7026 48.4627 52.8589C48.4823 53.0738 48.5018 53.2887 48.5018 53.5037V53.8163C48.5018 53.914 48.5213 54.0312 48.5213 54.1289C48.5213 54.2461 48.5018 54.3634 48.5018 54.4806V54.7541C48.5018 54.8909 48.4822 55.0081 48.4822 55.1449C48.4822 55.2231 48.4822 55.3012 48.4626 55.3989C48.4626 55.5357 48.4431 55.6724 48.4431 55.8288C48.4235 55.8874 48.4235 55.946 48.4235 56.0046C48.4039 56.1609 48.3844 56.2977 48.3648 56.454C48.3648 56.5126 48.3648 56.5712 48.3453 56.6298C48.3257 56.8252 48.2867 57.0011 48.2671 57.1964V57.216V57.2356C48.2281 57.4114 48.1889 57.6068 48.1499 57.7827V57.8413C48.1108 58.0171 48.0717 58.193 48.0326 58.3688C48.0326 58.3884 48.0131 58.4274 48.0131 58.447C47.974 58.6229 47.9349 58.7987 47.8763 58.9746V59.0332C47.8177 59.2285 47.7591 59.4044 47.72 59.5802C47.7004 59.5998 47.7004 59.6193 47.7004 59.6193C47.6418 59.8147 47.5832 60.0101 47.5246 60.2054C47.4464 60.4008 47.3878 60.5767 47.3097 60.7721C47.2315 60.9675 47.1729 61.1628 47.0947 61.3387C47.0166 61.5341 46.9384 61.7099 46.8603 61.9053H46.8407C46.7625 62.0812 46.6844 62.2765 46.5867 62.4524C46.5671 62.511 46.5476 62.5501 46.5281 62.5891C46.5085 62.6087 46.5085 62.6282 46.489 62.6478C45.219 65.2073 43.3433 67.4542 40.9987 69.2127C40.8424 69.3104 40.6861 69.4276 40.5298 69.5449C40.4907 69.5839 40.4321 69.6035 40.393 69.6425C40.2562 69.7402 40.1195 69.8379 39.9632 69.9356L40.0218 70.0529H40.0413C40.3149 70.0138 40.5884 69.9747 40.8619 69.9356H40.8815C41.3895 69.8575 41.8975 69.7598 42.4055 69.6621C42.5423 69.6425 42.6986 69.6035 42.8354 69.5644C42.9331 69.5448 43.0112 69.5254 43.1089 69.5058C43.2457 69.4862 43.3824 69.4472 43.5192 69.4276C43.6364 69.3885 43.7537 69.369 43.8709 69.3299C45.8248 68.861 47.72 68.2162 49.5371 67.4542C46.4305 71.6941 42.2687 75.1133 37.4037 77.3602C39.6506 77.2039 41.8975 76.8327 44.0663 76.2075C51.9403 73.8824 58.5639 68.5874 62.5302 61.4559C61.7291 65.9693 59.9316 70.2678 57.2743 74.0191C59.1696 72.7687 60.9085 71.3228 62.4911 69.6816C66.8677 65.1096 69.7399 59.3067 70.7168 53.0739C71.3811 56.1609 71.5765 59.3457 71.2834 62.4914C85.3903 42.8161 72.4558 22.4179 67.0436 17.0448C67.024 17.0058 67.0045 16.9862 67.0045 16.9471C66.985 16.9667 66.985 16.9667 66.985 16.9862C66.985 16.9666 66.985 16.9666 66.9654 16.9471C66.9654 17.1816 66.9458 17.4161 66.9263 17.6505C66.8677 18.0999 66.8091 18.5298 66.731 18.9596C66.6333 19.3895 66.516 19.8193 66.3988 20.2491C66.262 20.6594 66.1057 21.0893 65.9299 21.4996C65.754 21.8904 65.5586 22.3007 65.3437 22.6915C65.1288 23.0627 64.8943 23.4535 64.6403 23.8052C64.3863 24.1764 64.1128 24.5281 63.8393 24.8602C63.5462 25.2119 63.2336 25.5245 62.9209 25.8372C62.7256 26.013 62.5497 26.1693 62.3543 26.3256C62.198 26.4624 62.0612 26.5796 61.9049 26.7164C61.5532 26.9899 61.2016 27.2439 60.8108 27.4784C60.4396 27.7129 60.0488 27.9473 59.658 28.1427C59.2477 28.3381 58.8374 28.5139 58.4271 28.6898C58.0168 28.8461 57.5869 28.9829 57.1571 29.1001C56.7272 29.2173 56.2779 29.315 55.848 29.3932C55.3986 29.4714 54.9492 29.5104 54.5194 29.5495C54.2068 29.569 53.8942 29.5885 53.5815 29.5885C53.1321 29.5885 52.6828 29.5495 52.2529 29.5103C51.8035 29.4713 51.3541 29.4126 50.9243 29.315C50.4749 29.2368 50.0451 29.1196 49.6152 28.9828H49.5957C50.0255 28.9438 50.4553 28.9046 50.8852 28.8265C51.3346 28.7483 51.7644 28.6507 52.1943 28.5334C52.6241 28.4162 53.054 28.2794 53.4643 28.1231C53.8941 27.9668 54.3044 27.7714 54.6952 27.576C55.1055 27.3806 55.4767 27.1657 55.8675 26.9313C56.2387 26.6773 56.61 26.4233 56.9617 26.1497C57.3134 25.8762 57.6455 25.5831 57.9581 25.2705C58.2903 24.9774 58.5834 24.6452 58.8764 24.3131C59.1695 23.9614 59.4431 23.6097 59.6971 23.258C59.7361 23.1994 59.7753 23.1212 59.8143 23.0626C60.0097 22.75 60.2051 22.4374 60.3809 22.1248C60.5958 21.734 60.7912 21.3432 60.9671 20.9329C61.1429 20.5226 61.2992 20.1123 61.436 19.6825C61.5728 19.2722 61.6705 18.8423 61.7682 18.4125C61.8463 17.9631 61.9245 17.5332 61.9635 17.1034C62.0026 16.654 62.0417 16.2046 62.0417 15.7748C62.0417 15.4621 62.0221 15.1495 62.0027 14.8369C61.9636 14.3875 61.905 13.9577 61.8464 13.5278C61.7682 13.0784 61.6705 12.6486 61.5533 12.2188C61.4165 11.8084 61.2797 11.3786 61.1234 10.9683C60.9671 10.558 60.7718 10.1477 60.5764 9.7569C60.3614 9.36613 60.1465 8.97536 59.9121 8.60413C59.6581 8.2329 59.404 7.88121 59.1305 7.52951C58.8374 7.19735 58.5444 6.8652 58.2317 6.53305C58.0754 6.37674 57.8996 6.20089 57.7237 6.04459C56.8445 5.36073 55.9262 4.71596 55.0079 4.12981C54.8711 4.05162 54.7539 3.99304 54.6171 3.93442C53.9723 3.52411 53.3666 3.30908 52.7609 3.1137Z" fill="#E0234E"/>
</g>
</svg>
