<svg width="80" height="80" viewBox="0 0 80 80" fill="none" xmlns="http://www.w3.org/2000/svg">
<g id="logos">
<path id="path2" d="M21.5023 21.6471L16.3621 16.5068V53.5747L16.4345 55.3123C16.4345 56.1086 16.5793 57.0498 16.8688 57.991L57.5566 72.3258L67.6924 67.8371L21.5023 21.6471Z" fill="#00C4B3"/>
<path id="path4" d="M67.6923 67.8364L57.5566 72.3251L16.9412 57.9902C17.7375 60.9586 19.4027 64.2889 21.2851 66.1712L34.5339 79.3477L64.0724 79.4201L67.6923 67.8364Z" fill="#22D3C5"/>
<path id="path6" d="M16.5067 16.5068L0.723933 40.3982C-0.579234 41.7738 0.0723495 44.6697 2.1719 46.8417L11.2941 56.0363L17.0135 58.0634C16.7963 57.1222 16.5791 56.181 16.5791 55.3847L16.5067 53.6471V16.5068Z" fill="#0075C9"/>
<path id="path8" d="M57.8462 16.9414C56.905 16.7242 55.9639 16.5794 55.1675 16.507L53.3575 16.4346H16.3621L67.6924 67.7649L72.1811 57.6291L57.8462 16.9414Z" fill="#0075C9"/>
<path id="path10" d="M66.0271 21.2853C64.1447 19.4029 60.8868 17.6654 57.8461 16.9414L72.1809 57.6292L67.6922 67.7649L78.6968 64.2174V34.0274L66.0271 21.2853Z" fill="#00A8E1"/>
<path id="path12" d="M55.819 11.2946L46.6244 2.17239C44.5248 0.0728378 41.6289 -0.578746 40.181 0.724422L16.2896 16.5072H53.285L55.095 16.5796C55.8914 16.5796 56.8325 16.7244 57.7737 17.014L55.819 11.2946Z" fill="#00C4B3"/>
</g>
</svg>
