<svg width="69" height="70" viewBox="0 0 69 70" fill="none" xmlns="http://www.w3.org/2000/svg">
<g id="Group">
<path id="Vector" d="M34.9995 28.6367V42.1914H53.8359C53.0088 46.5505 50.5267 50.2415 46.804 52.7233L58.1631 61.5371C64.7813 55.4281 68.5995 46.4553 68.5995 35.7962C68.5995 33.3144 68.3768 30.9278 67.9631 28.6371L34.9995 28.6367Z" fill="#4285F4"/>
<path id="Vector_2" d="M15.3844 41.6611L12.8225 43.6222L3.75415 50.6858C9.51326 62.1085 21.317 69.9995 34.9988 69.9995C44.4486 69.9995 52.3713 66.8813 58.1623 61.536L46.8032 52.7222C43.685 54.8222 39.7077 56.0951 34.9988 56.0951C25.8988 56.0951 18.1671 49.9542 15.3987 41.6813L15.3844 41.6611Z" fill="#34A853"/>
<path id="Vector_3" d="M3.75429 19.3145C1.36805 24.0234 0 29.3371 0 35.0007C0 40.6642 1.36805 45.978 3.75429 50.6869C3.75429 50.7185 15.4 41.6505 15.4 41.6505C14.7 39.5505 14.2863 37.3234 14.2863 35.0003C14.2863 32.6773 14.7 30.4501 15.4 28.3501L3.75429 19.3145Z" fill="#FBBC05"/>
<path id="Vector_4" d="M34.9995 13.9364C40.1541 13.9364 44.7359 15.7182 48.395 19.1546L58.4177 9.13198C52.3404 3.46841 44.4497 0 34.9995 0C21.3177 0 9.51326 7.85911 3.75415 19.3138L15.3995 28.3502C18.1675 20.0773 25.8995 13.9364 34.9995 13.9364Z" fill="#EA4335"/>
</g>
</svg>
