<svg width="80" height="80" viewBox="0 0 80 80" fill="none" xmlns="http://www.w3.org/2000/svg">
<path d="M39.5409 64.9965C39.2768 64.9965 39.0146 64.9272 38.7831 64.7939L36.3712 63.366C36.011 63.1645 36.1867 63.0933 36.3056 63.0522C36.7859 62.8841 36.8834 62.8461 37.3961 62.5549C37.4499 62.5242 37.5205 62.535 37.5756 62.5676L39.4286 63.6671C39.4955 63.7033 39.5904 63.7033 39.6524 63.6671L46.8771 59.4969C46.9441 59.4589 46.9875 59.3811 46.9875 59.3015V50.9646C46.9875 50.8815 46.9441 50.8073 46.8757 50.7657L39.6539 46.5991C39.587 46.5593 39.4984 46.5593 39.4314 46.5991L32.2111 50.7657C32.1411 50.8055 32.0966 50.8833 32.0966 50.9628V59.2997C32.0966 59.3793 32.14 59.4553 32.2087 59.4932L34.1872 60.6362C35.2614 61.1733 35.9178 60.5403 35.9178 59.9038V51.6754C35.9178 51.5578 36.0101 51.4674 36.1276 51.4674H37.0427C37.1566 51.4674 37.2507 51.5578 37.2507 51.6754V59.9074C37.2507 61.3397 36.4694 62.1625 35.1113 62.1625C34.6935 62.1625 34.3644 62.1625 33.4457 61.7104L31.5505 60.6181C31.0821 60.3468 30.7927 59.8405 30.7927 59.2997V50.9628C30.7927 50.4203 31.0821 49.9139 31.5505 49.6463L38.7824 45.4742C39.2399 45.2156 39.8476 45.2156 40.3015 45.4742L47.5244 49.6481C47.991 49.9176 48.2821 50.4221 48.2821 50.9646V59.3015C48.2821 59.8423 47.991 60.3468 47.5244 60.6181L40.3015 64.7902C40.07 64.924 39.8078 64.9927 39.5401 64.9927" fill="#689F63"/>
<path d="M41.7724 59.2508C38.6113 59.2508 37.9485 57.7998 37.9485 56.5827C37.9485 56.4669 38.0418 56.3747 38.1577 56.3747H39.0909C39.194 56.3747 39.2808 56.4498 39.297 56.5516C39.4381 57.5024 39.8577 57.982 41.7692 57.982C43.2919 57.982 43.9393 57.6381 43.9393 56.8306C43.9393 56.3658 43.7548 56.0204 41.3894 55.7889C39.411 55.5936 38.1885 55.1578 38.1885 53.5754C38.1885 52.1178 39.4182 51.2498 41.478 51.2498C43.791 51.2498 44.9376 52.0527 45.0822 53.778C45.0877 53.8376 45.066 53.8955 45.0262 53.9389C44.9864 53.9805 44.9303 54.0058 44.8724 54.0058H43.9339C43.8362 54.0058 43.7512 53.9371 43.7313 53.8431C43.5053 52.843 42.9591 52.5229 41.4744 52.5229C39.8124 52.5229 39.6189 53.1016 39.6189 53.5356C39.6189 54.0619 39.8468 54.2156 42.0893 54.5122C44.31 54.807 45.3643 55.2229 45.3643 56.7836C45.3643 58.3569 44.0514 59.2593 41.7619 59.2593M50.5618 50.4179H50.8041C51.003 50.4179 51.041 50.2786 51.041 50.1973C51.041 49.9839 50.8945 49.9839 50.8132 49.9839H50.5636L50.5618 50.4179ZM50.267 49.7343H50.8041C50.9886 49.7343 51.3503 49.7343 51.3503 50.1466C51.3503 50.4342 51.1658 50.4938 51.0555 50.53C51.2707 50.5445 51.2852 50.6855 51.3141 50.8845C51.3286 51.0092 51.3521 51.2245 51.3955 51.2968H51.0645C51.0555 51.2245 51.0049 50.8266 51.0049 50.8049C50.9832 50.7163 50.9524 50.6729 50.8421 50.6729H50.569V51.2986H50.267V49.7343ZM49.6214 50.5119C49.6214 51.1593 50.144 51.6838 50.786 51.6838C51.4335 51.6838 51.9561 51.1485 51.9561 50.5119C51.9561 49.8627 51.4262 49.3473 50.7842 49.3473C50.1513 49.3473 49.6196 49.8555 49.6196 50.5101M52.1803 50.5155C52.1803 51.2823 51.5528 51.908 50.7878 51.908C50.0283 51.908 49.3953 51.2896 49.3953 50.5155C49.3953 49.7271 50.0428 49.123 50.7878 49.123C51.5383 49.123 52.1785 49.7289 52.1785 50.5155" fill="#689F63"/>
<path fill-rule="evenodd" clip-rule="evenodd" d="M17.1686 32.3754C17.1686 32.0426 16.9932 31.737 16.706 31.5715L9.04616 27.1644C8.91686 27.0884 8.772 27.0486 8.62516 27.0432H8.54595C8.3991 27.0486 8.25425 27.0884 8.12277 27.1644L0.463321 31.5715C0.17795 31.7379 0 32.0435 0 32.3763L0.0168185 44.2469C0.0168185 44.4114 0.101815 44.5651 0.24649 44.6465C0.387548 44.7333 0.564775 44.7333 0.705833 44.6465L5.25948 42.0388C5.54702 41.8677 5.72243 41.5653 5.72243 41.2358V35.6902C5.72243 35.3593 5.89785 35.0537 6.18449 34.8891L8.12313 33.7726C8.26709 33.6894 8.42514 33.6481 8.58609 33.6481C8.74451 33.6481 8.90619 33.689 9.04616 33.7724L10.9839 34.8885C11.2707 35.0531 11.4469 35.3587 11.4469 35.6897V41.2349C11.4469 41.564 11.6246 41.8679 11.9107 42.0378L16.4615 44.6438C16.6043 44.7288 16.7821 44.7288 16.9244 44.6438C17.0648 44.5624 17.1537 44.4087 17.1537 44.2441L17.1686 32.3754ZM53.3134 38.5559C53.3134 38.6385 53.2695 38.715 53.1977 38.7559L50.5668 40.2725C50.4953 40.3135 50.4071 40.3135 50.3358 40.2725L47.7046 38.7559C47.6322 38.7148 47.5888 38.6383 47.5888 38.5559V35.5184C47.5888 35.4356 47.6322 35.3593 47.7028 35.3177L50.3322 33.7986C50.4046 33.757 50.4932 33.757 50.5655 33.7986L53.1968 35.3177C53.2691 35.3593 53.3125 35.4356 53.3125 35.5184L53.3134 38.5559ZM54.0241 16.0586C53.8806 15.9786 53.7059 15.9808 53.5641 16.0634C53.423 16.1466 53.3359 16.2985 53.3359 16.4631V28.2179C53.3359 28.3337 53.2744 28.4404 53.1742 28.4983C53.0747 28.5561 52.9508 28.5561 52.8505 28.4983L50.9317 27.3931C50.646 27.2278 50.2941 27.2278 50.0072 27.3931L42.3449 31.8153C42.0586 31.9799 41.8819 32.2855 41.8819 32.6146V41.4615C41.8819 41.7924 42.0586 42.0963 42.3449 42.2626L50.0072 46.6879C50.2933 46.8524 50.6456 46.8524 50.9326 46.6879L58.595 42.2608C58.8807 42.0945 59.0579 41.7906 59.0579 41.4597V19.4112C59.0579 19.0756 58.8753 18.7669 58.5823 18.6028L54.0241 16.0586ZM79.5399 35.4385C79.8246 35.2732 79.9998 34.9679 79.9998 34.6388V32.4947C79.9998 32.1649 79.8244 31.8605 79.5392 31.6945L71.9257 27.2747C71.6381 27.1083 71.2855 27.1083 70.9979 27.2747L63.3374 31.6963C63.0499 31.8627 62.8745 32.1665 62.8745 32.4974V41.3407C62.8745 41.6734 63.0535 41.9809 63.341 42.1454L70.9527 46.4839C71.233 46.6448 71.5766 46.6467 71.8606 46.4893L76.4649 43.9304C76.6095 43.849 76.7018 43.6953 76.7018 43.5289C76.7018 43.3625 76.6131 43.207 76.4685 43.1256L68.7609 38.7022C68.6162 38.6208 68.5276 38.4671 68.5276 38.3025V35.5284C68.5276 35.3627 68.6144 35.2101 68.7591 35.1276L71.1571 33.7442C71.2999 33.661 71.4754 33.661 71.6182 33.7442L74.018 35.1276C74.1609 35.209 74.2495 35.3627 74.2495 35.5273V37.7083C74.2495 37.8728 74.3381 38.0266 74.481 38.1097C74.6239 38.1911 74.8011 38.1911 74.944 38.1079L79.5399 35.4385Z" fill="#333333"/>
<path fill-rule="evenodd" clip-rule="evenodd" d="M71.3498 35.025C71.4041 34.993 71.4721 34.993 71.527 35.025L72.9973 35.8731C73.0523 35.905 73.0859 35.9636 73.0859 36.0269V37.725C73.0859 37.7883 73.0523 37.8469 72.9973 37.8787L71.527 38.7269C71.4721 38.7589 71.4041 38.7589 71.3498 38.7269L69.8805 37.8787C69.8244 37.8469 69.79 37.7883 69.79 37.725V36.0269C69.79 35.9636 69.8226 35.905 69.8787 35.8731L71.3498 35.025Z" fill="#689F63"/>
<mask id="mask0_506_322" style="mask-type:luminance" maskUnits="userSpaceOnUse" x="20" y="27" width="19" height="20">
<path d="M29.0659 27.3183L21.447 31.7159C21.1616 31.8804 20.9866 32.1842 20.9866 32.5127V41.314C20.9866 41.6426 21.1616 41.9462 21.447 42.1108L29.0665 46.5118C29.3513 46.6758 29.7025 46.6758 29.987 46.5118L37.6052 42.1108C37.8891 41.9462 38.0645 41.6424 38.0645 41.314V32.5127C38.0645 32.1842 37.8891 31.8804 37.6034 31.7159L29.9863 27.3183C29.8434 27.2364 29.6842 27.1953 29.5251 27.1953C29.366 27.1953 29.2068 27.2364 29.064 27.3183" fill="white"/>
</mask>
<g mask="url(#mask0_506_322)">
<path d="M45.7637 30.9696L24.2948 20.4463L13.2869 42.9024L34.7552 53.4262L45.7637 30.9696Z" fill="url(#paint0_linear_506_322)"/>
</g>
<mask id="mask1_506_322" style="mask-type:luminance" maskUnits="userSpaceOnUse" x="21" y="27" width="17" height="20">
<path d="M21.1753 41.8741C21.2482 41.9687 21.3393 42.0506 21.4466 42.1121L27.9822 45.8872L29.0709 46.5129C29.2337 46.6069 29.4192 46.6467 29.6015 46.6332C29.6623 46.6283 29.7231 46.6169 29.7824 46.6001L37.818 31.8866C37.7565 31.8197 37.6845 31.7636 37.6039 31.7166L32.6151 28.8358L29.978 27.3185C29.9032 27.2751 29.822 27.2444 29.7393 27.2227L21.1753 41.8741Z" fill="white"/>
</mask>
<g mask="url(#mask1_506_322)">
<path d="M11.8931 34.0822L27.0523 54.5994L47.1006 39.7872L31.9405 19.2705L11.8931 34.0822Z" fill="url(#paint1_linear_506_322)"/>
</g>
<mask id="mask2_506_322" style="mask-type:luminance" maskUnits="userSpaceOnUse" x="21" y="27" width="18" height="20">
<path d="M29.434 27.2017C29.3062 27.2143 29.1812 27.2541 29.066 27.3196L21.4688 31.7045L29.661 46.6259C29.7749 46.6097 29.887 46.5717 29.9883 46.5131L37.6072 42.1121C37.8423 41.9757 38.0033 41.745 38.0521 41.4835L29.7008 27.2167C29.6393 27.2046 29.5778 27.1982 29.5145 27.1982C29.4892 27.1982 29.4638 27.1995 29.4385 27.2019" fill="white"/>
</mask>
<g mask="url(#mask2_506_322)">
<path d="M21.4685 27.1982V46.6263H38.0488V27.1982H21.4685Z" fill="url(#paint2_linear_506_322)"/>
</g>
<defs>
<linearGradient id="paint0_linear_506_322" x1="35.0228" y1="25.6914" x2="24.0156" y2="48.146" gradientUnits="userSpaceOnUse">
<stop offset="0.3" stop-color="#3E863D"/>
<stop offset="0.5" stop-color="#55934F"/>
<stop offset="0.8" stop-color="#5AAD45"/>
</linearGradient>
<linearGradient id="paint1_linear_506_322" x1="19.5635" y1="44.4584" x2="39.6126" y2="29.6445" gradientUnits="userSpaceOnUse">
<stop offset="0.57" stop-color="#3E863D"/>
<stop offset="0.72" stop-color="#619857"/>
<stop offset="1" stop-color="#76AC64"/>
</linearGradient>
<linearGradient id="paint2_linear_506_322" x1="21.4741" y1="36.9128" x2="38.0519" y2="36.9128" gradientUnits="userSpaceOnUse">
<stop offset="0.16" stop-color="#6BBF47"/>
<stop offset="0.38" stop-color="#79B461"/>
<stop offset="0.47" stop-color="#75AC64"/>
<stop offset="0.7" stop-color="#659E5A"/>
<stop offset="0.9" stop-color="#3E863D"/>
</linearGradient>
</defs>
</svg>
