<svg width="80" height="45" viewBox="0 0 80 45" fill="none" xmlns="http://www.w3.org/2000/svg">
<g id="g3438">
<g id="g3440">
<g id="Clip path group">
<mask id="mask0_506_577" style="mask-type:luminance" maskUnits="userSpaceOnUse" x="1" y="2" width="78" height="41">
<g id="clipPath3444">
<path id="path3446" d="M1.6001 22.4984C1.6001 33.6544 18.7927 42.6982 40.0001 42.6982C61.2075 42.6982 78.4002 33.6544 78.4002 22.4984C78.4002 11.3425 61.2075 2.29851 40.0001 2.29851C18.7927 2.29851 1.6001 11.3425 1.6001 22.4984Z" fill="white"/>
</g>
</mask>
<g mask="url(#mask0_506_577)">
<g id="g3442">
<g id="g3448">
<g id="g3450">
<path id="path3462" d="M1.6001 22.4974C1.6001 33.6534 18.7927 42.6973 40.0001 42.6973C61.2075 42.6973 78.4002 33.6534 78.4002 22.4974C78.4002 11.3416 61.2075 2.29753 40.0001 2.29753C18.7927 2.29753 1.6001 11.3416 1.6001 22.4974Z" fill="url(#paint0_radial_506_577)"/>
</g>
</g>
</g>
</g>
</g>
</g>
<g id="g3464">
<g id="Clip path group_2">
<mask id="mask1_506_577" style="mask-type:luminance" maskUnits="userSpaceOnUse" x="0" y="0" width="80" height="45">
<g id="clipPath3468">
<path id="path3470" d="M0 -1.52588e-05H80V45H0V-1.52588e-05Z" fill="white"/>
</g>
</mask>
<g mask="url(#mask1_506_577)">
<g id="g3466">
<g id="g3472">
<path id="path3474" d="M40.0001 41.2002C60.3791 41.2002 76.9001 32.8278 76.9001 22.5C76.9001 12.1724 60.3791 3.7999 40.0001 3.7999C19.6211 3.7999 3.1001 12.1724 3.1001 22.5C3.1001 32.8278 19.6211 41.2002 40.0001 41.2002Z" fill="#777BB3"/>
</g>
</g>
</g>
</g>
</g>
<g id="g3476">
<g id="Clip path group_3">
<mask id="mask2_506_577" style="mask-type:luminance" maskUnits="userSpaceOnUse" x="0" y="0" width="80" height="45">
<g id="clipPath3480">
<path id="path3482" d="M0 -1.52588e-05H80V45H0V-1.52588e-05Z" fill="white"/>
</g>
</mask>
<g mask="url(#mask2_506_577)">
<g id="g3478">
<g id="g3484">
<path id="path3486" d="M22.4631 24.8198C24.1388 24.8198 25.3898 24.5107 26.1813 23.9016C26.9644 23.2987 27.5052 22.2541 27.7887 20.797C28.053 19.435 27.9523 18.4841 27.4895 17.9709C27.0163 17.4467 25.9933 17.1809 24.4488 17.1809H21.7709L20.2863 24.8198H22.4631ZM13.7044 34.2295C13.5801 34.2295 13.462 34.1739 13.383 34.0778C13.3038 33.9819 13.2718 33.8555 13.2955 33.7334L17.2299 13.4902C17.268 13.2945 17.4395 13.1531 17.639 13.1531H26.1187C28.7837 13.1531 30.7673 13.8767 32.0141 15.3041C33.2676 16.7389 33.6547 18.7446 33.1645 21.2653C32.9651 22.2923 32.622 23.246 32.1449 24.0999C31.6673 24.9548 31.0361 25.7457 30.2684 26.4513C29.3495 27.3113 28.3095 27.9349 27.1801 28.3019C26.0686 28.6639 24.6411 28.8475 22.9373 28.8475H19.5037L18.5231 33.8923C18.4851 34.0881 18.3137 34.2295 18.1143 34.2295H13.7044Z" fill="black"/>
</g>
<g id="g3488">
<path id="path3490" d="M22.1143 17.5959H24.4488C26.3128 17.5959 26.9603 18.0049 27.1803 18.2487C27.5453 18.6534 27.6142 19.5067 27.3796 20.7163C27.116 22.0705 26.6274 23.0306 25.9271 23.5698C25.2102 24.1217 24.0446 24.4015 22.4631 24.4015H20.7917L22.1143 17.5959ZM26.1186 12.7348H17.6388C17.2399 12.7348 16.897 13.0176 16.8209 13.4091L12.8864 33.6523C12.8389 33.8966 12.9031 34.1493 13.0613 34.3413C13.2196 34.5334 13.4554 34.6445 13.7043 34.6445H18.1141C18.5131 34.6445 18.856 34.3618 18.9321 33.9702L19.8471 29.2626H22.9373C24.6848 29.2626 26.1559 29.072 27.3093 28.6963C28.4956 28.3109 29.587 27.6574 30.5529 26.7541C31.3518 26.0191 32.0099 25.1941 32.5085 24.3017C33.0073 23.4091 33.3656 22.4137 33.5735 21.3431C34.0895 18.6898 33.6703 16.5651 32.3278 15.0284C30.9984 13.5065 28.9092 12.7348 26.1186 12.7348ZM19.7807 25.2348H22.4631C24.241 25.2348 25.5653 24.8999 26.4354 24.2301C27.3057 23.5601 27.8927 22.4419 28.1977 20.8749C28.4895 19.3705 28.3566 18.3088 27.7989 17.6904C27.2406 17.0719 26.1241 16.7626 24.4488 16.7626H21.4274L19.7807 25.2348ZM26.1186 13.5681C28.6696 13.5681 30.5306 14.2376 31.7003 15.5766C32.8699 16.9156 33.2221 18.7847 32.7554 21.1842C32.5634 22.1727 32.2385 23.0765 31.7811 23.8952C31.3232 24.7145 30.7253 25.4637 29.9864 26.143C29.1059 26.967 28.1277 27.5543 27.0513 27.904C25.9749 28.2547 24.6039 28.4293 22.9373 28.4293H19.16L18.1141 33.8112H13.7043L17.6388 13.5681H26.1186Z" fill="white"/>
</g>
<g id="g3492">
<path id="path3494" d="M43.2754 28.8457C43.1509 28.8457 43.033 28.7901 42.954 28.694C42.8747 28.5981 42.8426 28.4718 42.8663 28.3496L44.6067 19.3928C44.7723 18.541 44.7315 17.9296 44.4919 17.6713C44.3452 17.5133 43.9047 17.2485 42.602 17.2485H39.449L37.2608 28.5085C37.2227 28.7043 37.0512 28.8457 36.8517 28.8457H32.4767C32.3523 28.8457 32.2344 28.7901 32.1552 28.694C32.0761 28.5981 32.044 28.4717 32.0677 28.3496L36.0022 8.10639C36.0402 7.9107 36.2117 7.76931 36.4112 7.76931H40.7862C40.9106 7.76931 41.0286 7.82486 41.1077 7.92084C41.1869 8.01695 41.219 8.1432 41.1952 8.26542L40.2458 13.1513H43.6377C46.2217 13.1513 47.974 13.6068 48.9945 14.544C50.0348 15.5001 50.3594 17.0289 49.9594 19.0883L48.1288 28.5085C48.0908 28.7043 47.9194 28.8457 47.7198 28.8457H43.2754Z" fill="black"/>
</g>
<g id="g3496">
<path id="path3498" d="M40.7861 7.35394H36.4111C36.0121 7.35394 35.6692 7.63672 35.5931 8.02825L31.6586 28.2714C31.6111 28.5158 31.6753 28.7684 31.8336 28.9605C31.992 29.1526 32.2278 29.2637 32.4767 29.2637H36.8517C37.2506 29.2637 37.5936 28.9809 37.6697 28.5894L39.7924 17.6664H42.602C43.9024 17.6664 44.1753 17.9442 44.1863 17.9562C44.2652 18.041 44.3689 18.4341 44.1977 19.3146L42.4572 28.2714C42.4097 28.5158 42.4739 28.7684 42.6322 28.9605C42.7906 29.1526 43.0264 29.2637 43.2753 29.2637H47.7197C48.1186 29.2637 48.4617 28.9809 48.5378 28.5894L50.3682 19.1692C50.7978 16.958 50.4303 15.2992 49.2764 14.2387C48.1753 13.2274 46.3309 12.7359 43.6377 12.7359H40.751L41.6042 8.3463C41.6516 8.102 41.5875 7.84922 41.4292 7.65728C41.2709 7.46519 41.035 7.35394 40.7861 7.35394ZM40.7861 8.18727L39.7402 13.5692H43.6377C46.09 13.5692 47.7816 13.9973 48.7125 14.8523C49.6435 15.7078 49.9224 17.0941 49.5503 19.0103L47.7197 28.4303H43.2753L45.0157 19.4737C45.2138 18.4548 45.141 17.7598 44.7971 17.3892C44.4531 17.0187 43.7213 16.8331 42.602 16.8331H39.1053L36.8517 28.4303H32.4767L36.4111 8.18727H40.7861Z" fill="white"/>
</g>
<g id="g3500">
<path id="path3502" d="M56.8818 24.8198C58.5575 24.8198 59.8085 24.5107 60.6 23.9016C61.3831 23.2988 61.9239 22.2542 62.2075 20.797C62.4718 19.435 62.3711 18.4841 61.9082 17.9709C61.435 17.4467 60.412 17.1809 58.8675 17.1809H56.1896L54.705 24.8198H56.8818ZM48.1232 34.2295C47.9989 34.2295 47.8809 34.1739 47.8018 34.0778C47.7227 33.9819 47.6904 33.8555 47.7142 33.7334L51.6486 13.4902C51.6868 13.2945 51.8582 13.1531 52.0578 13.1531H60.5374C63.2025 13.1531 65.186 13.8767 66.4329 15.3041C67.6864 16.7388 68.0734 18.7445 67.5834 21.2653C67.3836 22.2923 67.0407 23.246 66.5636 24.0999C66.086 24.9548 65.4547 25.7457 64.6871 26.4513C63.7682 27.3113 62.7282 27.9349 61.5988 28.3019C60.4872 28.6639 59.0597 28.8475 57.356 28.8475H53.9222L52.9421 33.8923C52.9039 34.0881 52.7325 34.2295 52.5329 34.2295H48.1232Z" fill="black"/>
</g>
<g id="g3504">
<path id="path3506" d="M56.5331 17.5959H58.8676C60.7316 17.5959 61.3791 18.0049 61.5991 18.2487C61.9643 18.6534 62.0331 19.5067 61.7984 20.7162C61.5348 22.0705 61.0461 23.0306 60.3459 23.5698C59.629 24.1217 58.4634 24.4015 56.8819 24.4015H55.2106L56.5331 17.5959ZM60.5374 12.7348H52.0577C51.6588 12.7348 51.3159 13.0176 51.2398 13.4091L47.3054 33.6523C47.2579 33.8966 47.322 34.1493 47.4802 34.3413C47.6386 34.5334 47.8744 34.6445 48.1233 34.6445H52.533C52.9319 34.6445 53.275 34.3618 53.3511 33.9702L54.2659 29.2626H57.3561C59.1036 29.2626 60.5747 29.072 61.7281 28.6963C62.9144 28.3109 64.0061 27.6573 64.972 26.7538C65.7709 26.019 66.4287 25.1941 66.9273 24.3017C67.4261 23.4091 67.7844 22.4137 67.9923 21.3431C68.5083 18.6897 68.0891 16.5649 66.7466 15.0283C65.4172 13.5065 63.3281 12.7348 60.5374 12.7348ZM54.1997 25.2348H56.8819C58.6598 25.2348 59.9841 24.8999 60.8543 24.2301C61.7247 23.5601 62.3115 22.4419 62.6165 20.8749C62.9084 19.3705 62.7755 18.3088 62.2177 17.6904C61.6594 17.0719 60.5429 16.7626 58.8676 16.7626H55.8462L54.1997 25.2348ZM60.5374 13.5681C63.0884 13.5681 64.9494 14.2376 66.1191 15.5766C67.2888 16.9156 67.6409 18.7847 67.1743 21.1842C66.9822 22.1727 66.6573 23.0765 66.1999 23.8952C65.742 24.7145 65.1441 25.4637 64.4052 26.143C63.5247 26.967 62.5465 27.5543 61.4701 27.904C60.3937 28.2547 59.0227 28.4293 57.3561 28.4293H53.5788L52.533 33.8112H48.1233L52.0577 13.5681H60.5374Z" fill="white"/>
</g>
</g>
</g>
</g>
</g>
</g>
<defs>
<radialGradient id="paint0_radial_506_577" cx="0" cy="0" r="1" gradientUnits="userSpaceOnUse" gradientTransform="translate(24.6557 9.39918) scale(50.4247 50.4247)">
<stop stop-color="#AEB2D5"/>
<stop offset="0.3" stop-color="#AEB2D5"/>
<stop offset="0.75" stop-color="#484C89"/>
<stop offset="1" stop-color="#484C89"/>
</radialGradient>
</defs>
</svg>
