<svg width="80" height="80" viewBox="0 0 80 80" fill="none" xmlns="http://www.w3.org/2000/svg">
<g id="logos">
<path id="Vector" d="M32.4661 33.0747C31.2154 39.8814 29.5753 44.8223 27.5251 47.8976C25.93 50.2758 24.1833 51.465 22.2766 51.465C21.7702 51.465 21.1449 51.3118 20.4027 51.0078V49.3676C20.7656 49.4209 21.19 49.4492 21.68 49.4492C22.5677 49.4492 23.2832 49.2032 23.8327 48.7132C24.4847 48.1145 24.8106 47.4421 24.8106 46.6978C24.8106 46.1894 24.5564 45.1438 24.05 43.561L20.6877 33.0641H23.7015L26.1207 40.9163C26.664 42.6979 26.8916 43.9506 26.7993 44.6476C28.1217 41.1008 29.0545 37.2464 29.5671 33.0641H32.4784M19.1521 46.6363H16.0768C15.9688 41.4493 15.6688 36.5494 15.1809 31.9774H15.1538L10.4794 46.6363H8.14214L3.4882 31.9774H3.46073C3.1163 36.3649 2.89898 41.2648 2.80877 46.6363H0C0.180827 40.0962 0.63351 33.9661 1.35723 28.2461H5.17059L9.59901 41.7569H9.62628L14.0752 28.2461H17.7245C18.5221 34.9502 18.9936 41.0803 19.1371 46.6363" fill="#00758F"/>
<path id="Vector_2" d="M73.47 46.6465H64.7567V28.2563H67.6885V44.3913H73.47V46.6465ZM51.5329 42.9767C50.7908 41.7773 50.4176 39.8604 50.4176 37.1951C50.4176 32.5617 51.822 30.245 54.6205 30.245C56.0885 30.245 57.1628 30.7985 57.8598 31.9056C58.602 33.105 58.9751 35.0219 58.9751 37.6257C58.9751 42.3001 57.5707 44.6373 54.7722 44.6373C53.3043 44.6373 52.23 44.0838 51.5329 42.9746M62.4605 47.0955L59.0981 45.4287C59.3975 45.1827 59.6845 44.9162 59.9408 44.6066C61.3718 42.9193 62.0935 40.4242 62.0935 37.1234C62.0935 31.0343 59.7153 28 54.9383 28C52.6011 28 50.7764 28.7709 49.4848 30.3167C48.0517 32.0061 47.3321 34.4991 47.3321 37.7794C47.3321 41.0187 47.9656 43.3765 49.2347 44.8936C50.391 46.2549 52.1459 46.9376 54.4832 46.9376C55.3565 46.9376 56.1561 46.8298 56.8819 46.6137L61.2693 49.1765L62.4666 47.1058M46.0651 41.5702C46.0651 43.1304 45.4931 44.42 44.3531 45.4041C43.2132 46.4025 41.6879 46.9007 39.7607 46.9007C37.9668 46.9007 36.2344 46.3246 34.5327 45.1827L35.32 43.602C36.7695 44.3277 38.0878 44.6906 39.2564 44.6906C40.3614 44.6906 41.2266 44.4446 41.8601 43.9567C42.4834 43.4667 42.8586 42.7819 42.8586 41.9147C42.8586 40.8219 42.0979 39.8891 40.7059 39.1059C39.4183 38.3986 36.8515 36.9122 36.8515 36.9122C35.4574 35.8932 34.7603 34.8005 34.7603 32.9963C34.7603 31.5058 35.281 30.3106 36.3225 29.388C37.3661 28.4695 38.7008 28.0103 40.3614 28.0103C42.0651 28.0103 43.6212 28.4654 45.0154 29.3736L44.306 30.9523C43.1128 30.4459 41.9278 30.1896 40.7797 30.1896C39.8386 30.1896 39.1128 30.4172 38.6065 30.8723C38.098 31.3234 37.7843 31.9056 37.7843 32.615C37.7843 33.7036 38.5613 34.6488 39.9985 35.4443C41.3004 36.1536 43.9349 37.6585 43.9349 37.6585C45.368 38.6754 46.0876 39.7702 46.0876 41.5538" fill="#F29111"/>
<path id="Vector_3" d="M75.1102 46.6468H75.5961V44.775H76.2317V44.3937H74.448V44.775H75.1082L75.1102 46.6468ZM78.8211 46.6468H79.2803V44.3916H78.5914L78.0297 45.9272L77.4187 44.3916H76.7545V46.6468H77.1891V44.9308H77.2137L77.8534 46.6468H78.1835L78.8231 44.9308V46.6468" fill="#F29111"/>
</g>
</svg>
